<svg width="97" height="36" viewBox="0 0 97 36" fill="none" xmlns="http://www.w3.org/2000/svg">
<g filter="url(#filter0_ddi_56_6733)">
<rect x="3" y="2" width="30" height="30" rx="15" fill="#5F57FF"/>
<rect x="3" y="2" width="30" height="30" rx="15" fill="url(#paint0_linear_56_6733)" fill-opacity="0.15"/>
<rect x="3.5" y="2.5" width="29" height="29" rx="14.5" stroke="url(#paint1_linear_56_6733)" stroke-opacity="0.2"/>
<g clip-path="url(#clip0_56_6733)">
<mask id="mask0_56_6733" style="mask-type:luminance" maskUnits="userSpaceOnUse" x="10" y="9" width="16" height="16">
<path d="M26 9H10V25H26V9Z" fill="white"/>
</mask>
<g mask="url(#mask0_56_6733)">
<g filter="url(#filter1_dd_56_6733)">
<path fill-rule="evenodd" clip-rule="evenodd" d="M18 10.76C18 9.78798 17.212 9 16.24 9H11.76C10.788 9 10 9.78798 10 10.76V15.2976C10 16.2696 10.788 17.0575 11.76 17.0575H16.24C17.212 17.0575 18 17.8455 18 18.8175V23.24C18 24.212 18.788 25 19.76 25H24.24C25.212 25 26 24.212 26 23.24V18.7024C26 17.7304 25.212 16.9424 24.24 16.9424H19.76C18.788 16.9424 18 16.1545 18 15.1824V10.76Z" fill="url(#paint2_linear_56_6733)" shape-rendering="crispEdges"/>
<path d="M16.24 9.25C17.074 9.25 17.75 9.92605 17.75 10.76V15.1824C17.75 16.2925 18.6499 17.1924 19.76 17.1924H24.24C25.0739 17.1924 25.75 17.8685 25.75 18.7024V23.24C25.75 24.0739 25.0739 24.75 24.24 24.75H19.76C18.9261 24.75 18.25 24.0739 18.25 23.24V18.8175C18.25 17.7075 17.3501 16.8075 16.24 16.8075H11.76C10.926 16.8075 10.25 16.1315 10.25 15.2976V10.76C10.25 9.92605 10.9261 9.25 11.76 9.25H16.24Z" stroke="url(#paint3_linear_56_6733)" stroke-opacity="0.5" stroke-width="0.5" shape-rendering="crispEdges"/>
</g>
</g>
</g>
</g>
<path d="M57.5 16.875C57.5 18.6953 57.168 20.2734 56.5039 21.6094C55.8477 22.9453 54.9258 23.9766 53.7383 24.7031C52.5586 25.4219 51.1875 25.7812 49.625 25.7812C48.0469 25.7812 46.6641 25.418 45.4766 24.6914C44.2891 23.9648 43.3633 22.9375 42.6992 21.6094C42.0352 20.2734 41.7031 18.6953 41.7031 16.875C41.7031 15.0469 42.0352 13.4688 42.6992 12.1406C43.3633 10.8047 44.2891 9.77734 45.4766 9.05859C46.6641 8.33203 48.0469 7.96875 49.625 7.96875C51.1875 7.96875 52.5586 8.33203 53.7383 9.05859C54.9258 9.77734 55.8477 10.8047 56.5039 12.1406C57.168 13.4688 57.5 15.0469 57.5 16.875ZM54.8516 16.875C54.8516 15.5312 54.6406 14.3711 54.2188 13.3945C53.7969 12.4102 53.1953 11.6562 52.4141 11.1328C51.6328 10.6016 50.6992 10.3359 49.6133 10.3359C48.5117 10.3359 47.5703 10.6016 46.7891 11.1328C46.0078 11.6562 45.4102 12.4102 44.9961 13.3945C44.582 14.3711 44.3789 15.5312 44.3867 16.875C44.3789 18.2188 44.582 19.3828 44.9961 20.3672C45.4102 21.3438 46.0078 22.0977 46.7891 22.6289C47.5781 23.1523 48.5234 23.4141 49.625 23.4141C50.7109 23.4141 51.6445 23.1523 52.4258 22.6289C53.207 22.0977 53.8047 21.3438 54.2188 20.3672C54.6406 19.3828 54.8516 18.2188 54.8516 16.875ZM59.3984 25.5V13.125H61.8008V15.1641H61.8711C62.0977 14.4766 62.457 13.9336 62.9492 13.5352C63.4492 13.1367 64.0781 12.9375 64.8359 12.9375C65.0234 12.9375 65.1953 12.9492 65.3516 12.9727C65.5156 12.9883 65.6484 13.0078 65.75 13.0312V15.4219C65.6406 15.3828 65.4609 15.3477 65.2109 15.3164C64.9688 15.2773 64.707 15.2578 64.4258 15.2578C63.9727 15.2578 63.5547 15.3633 63.1719 15.5742C62.7891 15.7773 62.4805 16.0938 62.2461 16.5234C62.0195 16.9531 61.9062 17.5 61.9062 18.1641V25.5H59.3984ZM73.6133 25.6875C72.793 25.6875 72.0586 25.5156 71.4102 25.1719C70.7617 24.8203 70.2344 24.2969 69.8281 23.6016H69.7812V25.5H67.2734V8.25H69.793V15.0117H69.8398C70.207 14.3242 70.7227 13.8086 71.3867 13.4648C72.0508 13.1133 72.7969 12.9375 73.625 12.9375C74.6406 12.9375 75.5391 13.1953 76.3203 13.7109C77.1094 14.2188 77.7227 14.9492 78.1602 15.9023C78.6055 16.8555 78.8281 17.9922 78.8281 19.3125C78.8281 20.6094 78.6094 21.7383 78.1719 22.6992C77.7344 23.6523 77.125 24.3906 76.3438 24.9141C75.5625 25.4297 74.6523 25.6875 73.6133 25.6875ZM73.0156 23.5664C73.6719 23.5664 74.2461 23.4062 74.7383 23.0859C75.2305 22.7578 75.6133 22.2773 75.8867 21.6445C76.168 21.0117 76.3086 20.2344 76.3086 19.3125C76.3086 18.3828 76.168 17.6055 75.8867 16.9805C75.6133 16.3477 75.2305 15.8711 74.7383 15.5508C74.2461 15.2305 73.6719 15.0703 73.0156 15.0703C72.3281 15.0703 71.7305 15.2461 71.2227 15.5977C70.7227 15.9414 70.3359 16.4297 70.0625 17.0625C69.7891 17.6953 69.6523 18.4453 69.6523 19.3125C69.6523 20.1719 69.7891 20.9219 70.0625 21.5625C70.3359 22.2031 70.7227 22.6992 71.2227 23.0508C71.7305 23.3945 72.3281 23.5664 73.0156 23.5664ZM80.7031 25.5V13.125H83.2109V25.5H80.7031ZM81.9688 10.957C81.5312 10.957 81.1602 10.8086 80.8555 10.5117C80.5586 10.2148 80.4141 9.85938 80.4219 9.44531C80.4141 9.01562 80.5586 8.65625 80.8555 8.36719C81.1602 8.07031 81.5312 7.92188 81.9688 7.92188C82.3906 7.92188 82.75 8.07031 83.0469 8.36719C83.3516 8.65625 83.5078 9.01562 83.5156 9.44531C83.5078 9.85938 83.3516 10.2148 83.0469 10.5117C82.75 10.8086 82.3906 10.957 81.9688 10.957ZM85.5078 25.5V23.7773L92.0703 15.3047V15.2578H85.5547V13.125H95.1289V14.9648L88.7305 23.3203V23.3672H95.2109V25.5H85.5078Z" fill="#0D0D12"/>
<defs>
<filter id="filter0_ddi_56_6733" x="0" y="-2" width="36" height="38" filterUnits="userSpaceOnUse" color-interpolation-filters="sRGB">
<feFlood flood-opacity="0" result="BackgroundImageFix"/>
<feColorMatrix in="SourceAlpha" type="matrix" values="0 0 0 0 0 0 0 0 0 0 0 0 0 0 0 0 0 0 127 0" result="hardAlpha"/>
<feOffset dy="1"/>
<feGaussianBlur stdDeviation="1"/>
<feComposite in2="hardAlpha" operator="out"/>
<feColorMatrix type="matrix" values="0 0 0 0 0.0509804 0 0 0 0 0.0509804 0 0 0 0 0.0705882 0 0 0 0.04 0"/>
<feBlend mode="normal" in2="BackgroundImageFix" result="effect1_dropShadow_56_6733"/>
<feColorMatrix in="SourceAlpha" type="matrix" values="0 0 0 0 0 0 0 0 0 0 0 0 0 0 0 0 0 0 127 0" result="hardAlpha"/>
<feOffset dy="1"/>
<feGaussianBlur stdDeviation="1.5"/>
<feComposite in2="hardAlpha" operator="out"/>
<feColorMatrix type="matrix" values="0 0 0 0 0.0509804 0 0 0 0 0.0509804 0 0 0 0 0.0705882 0 0 0 0.05 0"/>
<feBlend mode="normal" in2="effect1_dropShadow_56_6733" result="effect2_dropShadow_56_6733"/>
<feBlend mode="normal" in="SourceGraphic" in2="effect2_dropShadow_56_6733" result="shape"/>
<feColorMatrix in="SourceAlpha" type="matrix" values="0 0 0 0 0 0 0 0 0 0 0 0 0 0 0 0 0 0 127 0" result="hardAlpha"/>
<feOffset dy="-4"/>
<feGaussianBlur stdDeviation="2"/>
<feComposite in2="hardAlpha" operator="arithmetic" k2="-1" k3="1"/>
<feColorMatrix type="matrix" values="0 0 0 0 1 0 0 0 0 1 0 0 0 0 1 0 0 0 0.25 0"/>
<feBlend mode="normal" in2="shape" result="effect3_innerShadow_56_6733"/>
</filter>
<filter id="filter1_dd_56_6733" x="7" y="7" width="22" height="22" filterUnits="userSpaceOnUse" color-interpolation-filters="sRGB">
<feFlood flood-opacity="0" result="BackgroundImageFix"/>
<feColorMatrix in="SourceAlpha" type="matrix" values="0 0 0 0 0 0 0 0 0 0 0 0 0 0 0 0 0 0 127 0" result="hardAlpha"/>
<feOffset dy="1"/>
<feGaussianBlur stdDeviation="1"/>
<feComposite in2="hardAlpha" operator="out"/>
<feColorMatrix type="matrix" values="0 0 0 0 0.0509804 0 0 0 0 0.0509804 0 0 0 0 0.0705882 0 0 0 0.04 0"/>
<feBlend mode="normal" in2="BackgroundImageFix" result="effect1_dropShadow_56_6733"/>
<feColorMatrix in="SourceAlpha" type="matrix" values="0 0 0 0 0 0 0 0 0 0 0 0 0 0 0 0 0 0 127 0" result="hardAlpha"/>
<feOffset dy="1"/>
<feGaussianBlur stdDeviation="1.5"/>
<feComposite in2="hardAlpha" operator="out"/>
<feColorMatrix type="matrix" values="0 0 0 0 0.0509804 0 0 0 0 0.0509804 0 0 0 0 0.0705882 0 0 0 0.05 0"/>
<feBlend mode="normal" in2="effect1_dropShadow_56_6733" result="effect2_dropShadow_56_6733"/>
<feBlend mode="normal" in="SourceGraphic" in2="effect2_dropShadow_56_6733" result="shape"/>
</filter>
<linearGradient id="paint0_linear_56_6733" x1="18" y1="2" x2="18" y2="32" gradientUnits="userSpaceOnUse">
<stop stop-color="white"/>
<stop offset="1" stop-color="white" stop-opacity="0"/>
</linearGradient>
<linearGradient id="paint1_linear_56_6733" x1="18" y1="2" x2="18" y2="32" gradientUnits="userSpaceOnUse">
<stop stop-color="white"/>
<stop offset="1" stop-color="white" stop-opacity="0"/>
</linearGradient>
<linearGradient id="paint2_linear_56_6733" x1="18" y1="9" x2="18" y2="25" gradientUnits="userSpaceOnUse">
<stop stop-color="white"/>
<stop offset="1" stop-color="white" stop-opacity="0"/>
</linearGradient>
<linearGradient id="paint3_linear_56_6733" x1="18" y1="9" x2="18" y2="25" gradientUnits="userSpaceOnUse">
<stop stop-color="white"/>
<stop offset="1" stop-color="white" stop-opacity="0"/>
</linearGradient>
<clipPath id="clip0_56_6733">
<rect width="16" height="16" fill="white" transform="translate(10 9)"/>
</clipPath>
</defs>
</svg>
