<svg width="1440" height="712" viewBox="0 0 1440 712" fill="none" xmlns="http://www.w3.org/2000/svg">
<g opacity="0.7" clip-path="url(#clip0_17_1385)">
<g opacity="0.4" filter="url(#filter0_f_17_1385)">
<g filter="url(#filter1_f_17_1385)">
<path d="M1100.01 723.105C1258.84 710.061 1324.97 786.978 1247.71 894.904C1170.44 1002.83 979.043 1100.89 820.21 1113.94C661.378 1126.98 595.254 1050.07 672.519 942.14C749.784 834.214 941.179 736.149 1100.01 723.105Z" fill="#33CFFF"/>
</g>
<g filter="url(#filter2_f_17_1385)">
<path d="M1100.01 723.105C1258.84 710.061 1324.97 786.978 1247.71 894.904C1170.44 1002.83 979.043 1100.89 820.21 1113.94C661.378 1126.98 595.254 1050.07 672.519 942.14C749.784 834.214 941.179 736.149 1100.01 723.105Z" fill="#33CFFF"/>
</g>
<g filter="url(#filter3_f_17_1385)">
<path d="M1157.28 584.673C1231.38 578.588 1262.23 614.47 1226.18 664.817C1190.13 715.165 1100.85 760.913 1026.75 766.998C952.658 773.083 921.81 737.201 957.855 686.853C993.9 636.505 1083.19 590.758 1157.28 584.673Z" fill="#5FA8FF"/>
</g>
<g filter="url(#filter4_f_17_1385)">
<path d="M603.596 636.312C823.42 607.447 935.12 701.004 853.087 845.277C771.054 989.55 526.349 1129.91 306.526 1158.77C86.7025 1187.64 -24.9991 1094.08 57.0347 949.807C139.068 805.533 383.772 665.177 603.596 636.312Z" fill="#5F57FF"/>
</g>
<g opacity="0.6" filter="url(#filter5_f_17_1385)">
<path d="M603.596 636.312C823.42 607.447 935.12 701.004 853.087 845.277C771.053 989.55 526.349 1129.91 306.526 1158.77C86.7025 1187.64 -24.9991 1094.08 57.0347 949.807C139.068 805.533 383.772 665.177 603.596 636.312Z" fill="#5F57FF"/>
</g>
</g>
<g opacity="0.4">
<g opacity="0.4" filter="url(#filter6_f_17_1385)">
<path d="M259.544 889.034L22.2012 955.999L140.873 822.07L585.888 570.952L823.231 503.987L704.56 637.917L259.544 889.034Z" fill="url(#paint0_linear_17_1385)"/>
</g>
<g opacity="0.3" filter="url(#filter7_f_17_1385)">
<path d="M858.704 749.997L1004.23 849.995L761.684 789.996L276.582 589.999L131.052 490L373.603 549.999L858.704 749.997Z" fill="url(#paint1_linear_17_1385)"/>
</g>
<g opacity="0.3" filter="url(#filter8_f_17_1385)">
<path d="M-14.4684 709.992L-160 609.99L82.5493 669.991L567.647 869.997L713.176 969.999L470.627 909.998L-14.4684 709.992Z" fill="url(#paint2_linear_17_1385)"/>
</g>
</g>
<g style="mix-blend-mode:overlay" filter="url(#filter9_f_17_1385)">
<path d="M361.524 621.863L673.547 349.862L402.223 662.663L329.803 735.263L72.0459 952.864L289.104 694.463L361.524 621.863Z" fill="#091135"/>
</g>
<g style="mix-blend-mode:overlay" filter="url(#filter10_f_17_1385)">
<path d="M926.038 657.734L1238.06 385.733L966.735 698.535L769.611 896.152L511.853 1113.75L728.912 855.352L926.038 657.734Z" fill="#091135"/>
</g>
<g style="mix-blend-mode:overlay" filter="url(#filter11_f_17_1385)">
<path d="M499.672 932.599L811.693 660.598L540.369 973.399L467.951 1046L210.192 1263.6L427.252 1005.2L499.672 932.599Z" fill="url(#paint3_linear_17_1385)"/>
</g>
<g style="mix-blend-mode:overlay" filter="url(#filter12_f_17_1385)">
<path d="M942.382 857.832L634.417 1087.76L902.213 823.344L973.692 761.974L1228.09 578.035L1013.86 796.463L942.382 857.832Z" fill="#091135"/>
</g>
<g style="mix-blend-mode:overlay" filter="url(#filter13_f_17_1385)">
<path d="M778.603 742.659L470.637 972.583L738.434 708.171L951.932 524.866L1206.33 340.927L992.102 559.354L778.603 742.659Z" fill="#091135"/>
</g>
<g style="mix-blend-mode:overlay" filter="url(#filter14_f_17_1385)">
<path d="M521.375 707.72L213.408 937.643L481.205 673.231L675.768 506.184L930.174 322.245L715.937 540.673L521.375 707.72Z" fill="#091135"/>
</g>
<g style="mix-blend-mode:overlay" filter="url(#filter15_f_17_1385)">
<path d="M301.345 640.842L-6.62109 870.765L261.176 606.353L332.654 544.984L587.06 361.045L372.823 579.472L301.345 640.842Z" fill="url(#paint4_linear_17_1385)"/>
</g>
</g>
<defs>
<filter id="filter0_f_17_1385" x="-269.893" y="284" width="1849.89" height="1180" filterUnits="userSpaceOnUse" color-interpolation-filters="sRGB">
<feFlood flood-opacity="0" result="BackgroundImageFix"/>
<feBlend mode="normal" in="SourceGraphic" in2="BackgroundImageFix" result="shape"/>
<feGaussianBlur stdDeviation="150" result="effect1_foregroundBlur_17_1385"/>
</filter>
<filter id="filter1_f_17_1385" x="348.19" y="429.629" width="1223.84" height="977.786" filterUnits="userSpaceOnUse" color-interpolation-filters="sRGB">
<feFlood flood-opacity="0" result="BackgroundImageFix"/>
<feBlend mode="normal" in="SourceGraphic" in2="BackgroundImageFix" result="shape"/>
<feGaussianBlur stdDeviation="146.017" result="effect1_foregroundBlur_17_1385"/>
</filter>
<filter id="filter2_f_17_1385" x="348.19" y="429.629" width="1223.84" height="977.786" filterUnits="userSpaceOnUse" color-interpolation-filters="sRGB">
<feFlood flood-opacity="0" result="BackgroundImageFix"/>
<feBlend mode="normal" in="SourceGraphic" in2="BackgroundImageFix" result="shape"/>
<feGaussianBlur stdDeviation="146.017" result="effect1_foregroundBlur_17_1385"/>
</filter>
<filter id="filter3_f_17_1385" x="750.465" y="391.676" width="683.108" height="568.318" filterUnits="userSpaceOnUse" color-interpolation-filters="sRGB">
<feFlood flood-opacity="0" result="BackgroundImageFix"/>
<feBlend mode="normal" in="SourceGraphic" in2="BackgroundImageFix" result="shape"/>
<feGaussianBlur stdDeviation="96.162" result="effect1_foregroundBlur_17_1385"/>
</filter>
<filter id="filter4_f_17_1385" x="-169.431" y="431.546" width="1248.98" height="931.992" filterUnits="userSpaceOnUse" color-interpolation-filters="sRGB">
<feFlood flood-opacity="0" result="BackgroundImageFix"/>
<feBlend mode="normal" in="SourceGraphic" in2="BackgroundImageFix" result="shape"/>
<feGaussianBlur stdDeviation="99.769" result="effect1_foregroundBlur_17_1385"/>
</filter>
<filter id="filter5_f_17_1385" x="-169.431" y="431.546" width="1248.98" height="931.992" filterUnits="userSpaceOnUse" color-interpolation-filters="sRGB">
<feFlood flood-opacity="0" result="BackgroundImageFix"/>
<feBlend mode="normal" in="SourceGraphic" in2="BackgroundImageFix" result="shape"/>
<feGaussianBlur stdDeviation="99.769" result="effect1_foregroundBlur_17_1385"/>
</filter>
<filter id="filter6_f_17_1385" x="-137.799" y="343.987" width="1121.03" height="772.012" filterUnits="userSpaceOnUse" color-interpolation-filters="sRGB">
<feFlood flood-opacity="0" result="BackgroundImageFix"/>
<feBlend mode="normal" in="SourceGraphic" in2="BackgroundImageFix" result="shape"/>
<feGaussianBlur stdDeviation="80" result="effect1_foregroundBlur_17_1385"/>
</filter>
<filter id="filter7_f_17_1385" x="19.0518" y="378" width="1097.18" height="583.995" filterUnits="userSpaceOnUse" color-interpolation-filters="sRGB">
<feFlood flood-opacity="0" result="BackgroundImageFix"/>
<feBlend mode="normal" in="SourceGraphic" in2="BackgroundImageFix" result="shape"/>
<feGaussianBlur stdDeviation="56" result="effect1_foregroundBlur_17_1385"/>
</filter>
<filter id="filter8_f_17_1385" x="-272" y="497.99" width="1097.18" height="584.009" filterUnits="userSpaceOnUse" color-interpolation-filters="sRGB">
<feFlood flood-opacity="0" result="BackgroundImageFix"/>
<feBlend mode="normal" in="SourceGraphic" in2="BackgroundImageFix" result="shape"/>
<feGaussianBlur stdDeviation="56" result="effect1_foregroundBlur_17_1385"/>
</filter>
<filter id="filter9_f_17_1385" x="18.0459" y="295.862" width="709.501" height="711.002" filterUnits="userSpaceOnUse" color-interpolation-filters="sRGB">
<feFlood flood-opacity="0" result="BackgroundImageFix"/>
<feBlend mode="normal" in="SourceGraphic" in2="BackgroundImageFix" result="shape"/>
<feGaussianBlur stdDeviation="27" result="effect1_foregroundBlur_17_1385"/>
</filter>
<filter id="filter10_f_17_1385" x="457.853" y="331.733" width="834.206" height="836.02" filterUnits="userSpaceOnUse" color-interpolation-filters="sRGB">
<feFlood flood-opacity="0" result="BackgroundImageFix"/>
<feBlend mode="normal" in="SourceGraphic" in2="BackgroundImageFix" result="shape"/>
<feGaussianBlur stdDeviation="27" result="effect1_foregroundBlur_17_1385"/>
</filter>
<filter id="filter11_f_17_1385" x="156.192" y="606.598" width="709.501" height="711.002" filterUnits="userSpaceOnUse" color-interpolation-filters="sRGB">
<feFlood flood-opacity="0" result="BackgroundImageFix"/>
<feBlend mode="normal" in="SourceGraphic" in2="BackgroundImageFix" result="shape"/>
<feGaussianBlur stdDeviation="27" result="effect1_foregroundBlur_17_1385"/>
</filter>
<filter id="filter12_f_17_1385" x="562.417" y="506.035" width="737.677" height="653.721" filterUnits="userSpaceOnUse" color-interpolation-filters="sRGB">
<feFlood flood-opacity="0" result="BackgroundImageFix"/>
<feBlend mode="normal" in="SourceGraphic" in2="BackgroundImageFix" result="shape"/>
<feGaussianBlur stdDeviation="36" result="effect1_foregroundBlur_17_1385"/>
</filter>
<filter id="filter13_f_17_1385" x="398.637" y="268.927" width="879.697" height="775.656" filterUnits="userSpaceOnUse" color-interpolation-filters="sRGB">
<feFlood flood-opacity="0" result="BackgroundImageFix"/>
<feBlend mode="normal" in="SourceGraphic" in2="BackgroundImageFix" result="shape"/>
<feGaussianBlur stdDeviation="36" result="effect1_foregroundBlur_17_1385"/>
</filter>
<filter id="filter14_f_17_1385" x="141.408" y="250.245" width="860.766" height="759.398" filterUnits="userSpaceOnUse" color-interpolation-filters="sRGB">
<feFlood flood-opacity="0" result="BackgroundImageFix"/>
<feBlend mode="normal" in="SourceGraphic" in2="BackgroundImageFix" result="shape"/>
<feGaussianBlur stdDeviation="36" result="effect1_foregroundBlur_17_1385"/>
</filter>
<filter id="filter15_f_17_1385" x="-78.6211" y="289.045" width="737.681" height="653.72" filterUnits="userSpaceOnUse" color-interpolation-filters="sRGB">
<feFlood flood-opacity="0" result="BackgroundImageFix"/>
<feBlend mode="normal" in="SourceGraphic" in2="BackgroundImageFix" result="shape"/>
<feGaussianBlur stdDeviation="36" result="effect1_foregroundBlur_17_1385"/>
</filter>
<linearGradient id="paint0_linear_17_1385" x1="704.56" y1="637.917" x2="408.171" y2="1026.14" gradientUnits="userSpaceOnUse">
<stop stop-color="#33CFFF"/>
<stop offset="0.5" stop-color="#116B97"/>
<stop offset="1" stop-color="#33CFFF"/>
</linearGradient>
<linearGradient id="paint1_linear_17_1385" x1="373.603" y1="549.999" x2="462.192" y2="872.313" gradientUnits="userSpaceOnUse">
<stop stop-color="#5F57FF"/>
<stop offset="0.5" stop-color="#116B97"/>
<stop offset="1" stop-color="#33CFFF"/>
</linearGradient>
<linearGradient id="paint2_linear_17_1385" x1="470.628" y1="909.998" x2="382.032" y2="587.673" gradientUnits="userSpaceOnUse">
<stop stop-color="#5F57FF"/>
<stop offset="0.5" stop-color="#116B97"/>
<stop offset="1" stop-color="#33CFFF"/>
</linearGradient>
<linearGradient id="paint3_linear_17_1385" x1="775.978" y1="696.403" x2="208.781" y2="1262.19" gradientUnits="userSpaceOnUse">
<stop stop-opacity="0"/>
<stop offset="0.772"/>
</linearGradient>
<linearGradient id="paint4_linear_17_1385" x1="28.6304" y1="840.499" x2="502.565" y2="288.499" gradientUnits="userSpaceOnUse">
<stop stop-opacity="0"/>
<stop offset="0.772"/>
</linearGradient>
<clipPath id="clip0_17_1385">
<rect width="1440" height="712" fill="white"/>
</clipPath>
</defs>
</svg>
