<svg width="474" height="288" viewBox="0 0 474 288" fill="none" xmlns="http://www.w3.org/2000/svg">
<line x1="4.37114e-08" y1="15.5" x2="474" y2="15.5" stroke="url(#paint0_linear_609_53881)" stroke-opacity="0.15"/>
<line x1="4.37114e-08" y1="47.5001" x2="474" y2="47.5001" stroke="url(#paint1_linear_609_53881)" stroke-opacity="0.15"/>
<line x1="4.37114e-08" y1="79.5001" x2="474" y2="79.5001" stroke="url(#paint2_linear_609_53881)" stroke-opacity="0.15"/>
<rect x="72" y="28" width="132" height="40" rx="8" fill="white"/>
<path opacity="0.12" d="M99.5 49.5C102.538 49.5 105 48.6046 105 47.5V55C105 56.1046 102.538 57 99.5 57C96.4624 57 94 56.1046 94 55V47.5C94 48.6046 96.4624 49.5 99.5 49.5Z" fill="#5F57FF"/>
<path d="M96 41C96 42.1046 93.5376 43 90.5 43C87.4624 43 85 42.1046 85 41M96 41C96 39.8954 93.5376 39 90.5 39C87.4624 39 85 39.8954 85 41M96 41V42.5M85 41V53C85 54.1046 87.4624 55 90.5 55M90.5 47C90.3315 47 90.1647 46.9972 90 46.9918C87.1967 46.9 85 46.0433 85 45M90.5 51C87.4624 51 85 50.1046 85 49M105 47.5C105 48.6046 102.538 49.5 99.5 49.5C96.4624 49.5 94 48.6046 94 47.5M105 47.5C105 46.3954 102.538 45.5 99.5 45.5C96.4624 45.5 94 46.3954 94 47.5M105 47.5V55C105 56.1046 102.538 57 99.5 57C96.4624 57 94 56.1046 94 55V47.5M105 51.25C105 52.3546 102.538 53.25 99.5 53.25C96.4624 53.25 94 52.3546 94 51.25" stroke="#5F57FF" stroke-width="2" stroke-linecap="round" stroke-linejoin="round"/>
<path d="M117.797 54V42.5H121.906C122.797 42.5 123.536 42.6641 124.125 42.9922C124.714 43.3203 125.154 43.7656 125.445 44.3281C125.737 44.8854 125.883 45.5182 125.883 46.2266C125.883 46.9297 125.734 47.5625 125.438 48.125C125.146 48.6875 124.706 49.1328 124.117 49.4609C123.529 49.7891 122.789 49.9531 121.898 49.9531H119.078V48.4844H121.734C122.302 48.4844 122.76 48.388 123.109 48.1953C123.464 47.9974 123.724 47.7292 123.891 47.3906C124.057 47.0469 124.138 46.6589 124.133 46.2266C124.138 45.7891 124.057 45.4036 123.891 45.0703C123.724 44.7318 123.464 44.4661 123.109 44.2734C122.755 44.0807 122.292 43.9844 121.719 43.9844H119.539V54H117.797ZM129.703 54.1172C129.156 54.1172 128.667 54.026 128.234 53.8438C127.807 53.6562 127.469 53.3802 127.219 53.0156C126.969 52.6458 126.844 52.1875 126.844 51.6406C126.844 51.1719 126.932 50.7865 127.109 50.4844C127.292 50.1823 127.536 49.9427 127.844 49.7656C128.151 49.5885 128.5 49.4557 128.891 49.3672C129.281 49.2734 129.685 49.2031 130.102 49.1562C130.622 49.0885 131.031 49.0365 131.328 49C131.63 48.9583 131.844 48.8958 131.969 48.8125C132.099 48.724 132.164 48.5807 132.164 48.3828V48.3438C132.164 47.9427 132.018 47.6198 131.727 47.375C131.44 47.125 131.036 47 130.516 47C130.005 47 129.589 47.1224 129.266 47.3672C128.948 47.612 128.771 47.9219 128.734 48.2969H127.047C127.078 47.7865 127.237 47.3307 127.523 46.9297C127.815 46.5286 128.216 46.2109 128.727 45.9766C129.237 45.7422 129.839 45.625 130.531 45.625C131.208 45.625 131.794 45.7396 132.289 45.9688C132.784 46.1979 133.164 46.5156 133.43 46.9219C133.701 47.3281 133.836 47.8021 133.836 48.3438V54H132.203V52.8281H132.172C132.052 53.0521 131.891 53.263 131.688 53.4609C131.484 53.6589 131.221 53.8177 130.898 53.9375C130.576 54.0573 130.177 54.1172 129.703 54.1172ZM130.062 52.7812C130.536 52.7812 130.93 52.6979 131.242 52.5312C131.56 52.3594 131.794 52.1328 131.945 51.8516C132.096 51.5651 132.172 51.2526 132.172 50.9141V49.9609C132.062 50.0443 131.818 50.1224 131.438 50.1953C131.057 50.263 130.648 50.3281 130.211 50.3906C129.914 50.4323 129.635 50.5026 129.375 50.6016C129.12 50.6953 128.911 50.8281 128.75 51C128.594 51.1667 128.516 51.3906 128.516 51.6719C128.521 52.0208 128.661 52.2943 128.938 52.4922C129.214 52.6849 129.589 52.7812 130.062 52.7812ZM135.43 57.375V55.8984H136.32C136.513 55.8984 136.667 55.8724 136.781 55.8203C136.896 55.7682 136.987 55.6927 137.055 55.5938C137.122 55.4948 137.182 55.375 137.234 55.2344C137.234 55.2344 137.255 55.1719 137.297 55.0469C137.339 54.9219 137.388 54.7786 137.445 54.6172C137.503 54.4557 137.552 54.3125 137.594 54.1875C137.641 54.0625 137.664 54 137.664 54L134.531 45.75H136.328L138.562 52.0312H138.594L140.805 45.75H142.578L138.719 55.9531C138.599 56.2656 138.44 56.526 138.242 56.7344C138.044 56.9479 137.797 57.1068 137.5 57.2109C137.203 57.3203 136.846 57.375 136.43 57.375H135.43ZM143.578 54V45.75H145.203V47.1406H145.234C145.406 46.6979 145.708 46.3359 146.141 46.0547C146.573 45.7682 147.076 45.625 147.648 45.625C148.227 45.625 148.721 45.7682 149.133 46.0547C149.549 46.3411 149.839 46.7031 150 47.1406H150.031C150.203 46.7135 150.516 46.3542 150.969 46.0625C151.422 45.7708 151.961 45.625 152.586 45.625C153.102 45.625 153.562 45.7344 153.969 45.9531C154.38 46.1719 154.706 46.5 154.945 46.9375C155.185 47.375 155.305 47.9245 155.305 48.5859V54H153.633V48.7422C153.633 48.1536 153.471 47.7292 153.148 47.4688C152.831 47.2031 152.451 47.0703 152.008 47.0703C151.461 47.0703 151.034 47.2396 150.727 47.5781C150.419 47.9167 150.266 48.3464 150.266 48.8672V54H148.617V48.625C148.617 48.1562 148.469 47.7812 148.172 47.5C147.88 47.2135 147.5 47.0703 147.031 47.0703C146.552 47.0703 146.135 47.237 145.781 47.5703C145.427 47.9036 145.25 48.3932 145.25 49.0391V54H143.578ZM160.453 54.125C159.661 54.125 158.974 53.9479 158.391 53.5938C157.812 53.2344 157.362 52.737 157.039 52.1016C156.721 51.4661 156.562 50.7292 156.562 49.8906C156.562 49.0521 156.719 48.3125 157.031 47.6719C157.349 47.0312 157.797 46.5312 158.375 46.1719C158.953 45.8073 159.633 45.625 160.414 45.625C161.19 45.625 161.857 45.8047 162.414 46.1641C162.977 46.5234 163.406 47.0234 163.703 47.6641C164 48.3047 164.148 49.0443 164.148 49.8828V50.3125H157.32V49.0859H162.516C162.505 48.6693 162.406 48.3047 162.219 47.9922C162.031 47.6797 161.779 47.4349 161.461 47.2578C161.148 47.0807 160.794 46.9922 160.398 46.9922C159.956 46.9922 159.573 47.099 159.25 47.3125C158.927 47.526 158.68 47.8073 158.508 48.1562C158.336 48.5 158.25 48.8672 158.25 49.2578V50.2969C158.245 50.7448 158.331 51.1562 158.508 51.5312C158.685 51.901 158.938 52.1979 159.266 52.4219C159.599 52.6406 159.997 52.75 160.461 52.75C160.773 52.75 161.065 52.6979 161.336 52.5938C161.607 52.4844 161.839 52.3333 162.031 52.1406C162.224 51.9479 162.359 51.724 162.438 51.4688H164.047C163.943 52 163.724 52.4661 163.391 52.8672C163.062 53.263 162.646 53.5729 162.141 53.7969C161.635 54.0156 161.073 54.125 160.453 54.125ZM167.086 49.2344V54H165.406V45.75H167.039V47.1406H167.07C167.253 46.7083 167.549 46.349 167.961 46.0625C168.372 45.7708 168.901 45.625 169.547 45.625C170.12 45.625 170.638 45.7474 171.102 45.9922C171.57 46.237 171.943 46.6016 172.219 47.0859C172.495 47.5651 172.633 48.1615 172.633 48.875V54H170.961V49.0781C170.961 48.4219 170.789 47.9245 170.445 47.5859C170.107 47.2474 169.648 47.0781 169.07 47.0781C168.701 47.0781 168.365 47.1536 168.062 47.3047C167.766 47.4557 167.529 47.6901 167.352 48.0078C167.174 48.3255 167.086 48.7344 167.086 49.2344ZM177.102 54.0469C176.674 54.0469 176.281 53.974 175.922 53.8281C175.568 53.6823 175.281 53.4531 175.062 53.1406C174.849 52.8281 174.742 52.4219 174.742 51.9219V43.7266H176.422V51.6484C176.422 51.9401 176.464 52.1562 176.547 52.2969C176.635 52.4375 176.753 52.5286 176.898 52.5703C177.044 52.6068 177.203 52.625 177.375 52.625C177.479 52.625 177.578 52.6224 177.672 52.6172C177.766 52.6068 177.839 52.5964 177.891 52.5859L178.062 53.9766C177.964 53.9922 177.833 54.0078 177.672 54.0234C177.51 54.0391 177.32 54.0469 177.102 54.0469ZM173.555 47.125V45.75H178V47.125H173.555ZM185.461 48.2969H183.859C183.854 47.8958 183.703 47.5781 183.406 47.3438C183.109 47.1094 182.721 46.9922 182.242 46.9922C181.794 46.9922 181.427 47.0885 181.141 47.2812C180.854 47.4688 180.711 47.7188 180.711 48.0312C180.711 48.3021 180.815 48.5208 181.023 48.6875C181.237 48.8542 181.531 48.9792 181.906 49.0625L183.312 49.375C184.094 49.5521 184.677 49.8255 185.062 50.1953C185.448 50.5599 185.641 51.0365 185.641 51.625C185.641 52.151 185.497 52.6016 185.211 52.9766C184.924 53.3516 184.529 53.638 184.023 53.8359C183.523 54.0286 182.958 54.125 182.328 54.125C181.682 54.125 181.107 54.026 180.602 53.8281C180.096 53.6302 179.69 53.3333 179.383 52.9375C179.081 52.5417 178.909 52.0495 178.867 51.4609H180.531C180.578 51.9036 180.753 52.2318 181.055 52.4453C181.362 52.6589 181.779 52.7656 182.305 52.7656C182.815 52.7656 183.216 52.6719 183.508 52.4844C183.805 52.2969 183.953 52.0417 183.953 51.7188C183.953 51.4375 183.846 51.224 183.633 51.0781C183.419 50.9271 183.135 50.8125 182.781 50.7344L181.43 50.4375C180.643 50.2604 180.049 49.974 179.648 49.5781C179.253 49.1771 179.055 48.6745 179.055 48.0703C179.055 47.5807 179.188 47.1536 179.453 46.7891C179.724 46.4193 180.096 46.1328 180.57 45.9297C181.044 45.7266 181.596 45.625 182.227 45.625C183.159 45.625 183.924 45.862 184.523 46.3359C185.128 46.8047 185.44 47.4583 185.461 48.2969Z" fill="#0D0D12"/>
<line x1="4.37114e-08" y1="119.5" x2="474" y2="119.5" stroke="url(#paint3_linear_609_53881)" stroke-opacity="0.15"/>
<line x1="4.37114e-08" y1="151.5" x2="474" y2="151.5" stroke="url(#paint4_linear_609_53881)" stroke-opacity="0.15"/>
<line x1="4.37114e-08" y1="183.5" x2="474" y2="183.5" stroke="url(#paint5_linear_609_53881)" stroke-opacity="0.15"/>
<rect x="226" y="132" width="166" height="40" rx="8" fill="white"/>
<path opacity="0.12" d="M251.529 148.352C250.957 148.76 250.257 149 249.5 149C247.567 149 246 147.433 246 145.5C246 143.567 247.567 142 249.5 142C250.753 142 251.852 142.658 252.471 143.648C253.043 143.24 253.743 143 254.5 143C256.433 143 258 144.567 258 146.5C258 148.433 256.433 150 254.5 150C253.247 150 252.148 149.342 251.529 148.352Z" fill="#33CFFF"/>
<path d="M251.529 148.352C250.957 148.76 250.257 149 249.5 149C247.567 149 246 147.433 246 145.5C246 143.567 247.567 142 249.5 142C250.753 142 251.852 142.658 252.471 143.648M244 160.087H246.61C246.951 160.087 247.289 160.128 247.619 160.209L250.377 160.879C250.975 161.025 251.599 161.039 252.203 160.921L255.253 160.328C256.059 160.171 256.8 159.785 257.38 159.221L259.538 157.122C260.154 156.523 260.154 155.552 259.538 154.953C258.983 154.413 258.105 154.353 257.477 154.81L254.963 156.645C254.602 156.908 254.164 157.05 253.714 157.05H251.285L252.831 157.05C253.702 157.05 254.408 156.363 254.408 155.516V155.209C254.408 154.505 253.916 153.892 253.214 153.722L250.829 153.142C250.44 153.048 250.043 153 249.643 153C248.678 153 246.932 153.799 246.932 153.799L244 155.025M258 146.5C258 148.433 256.433 150 254.5 150C252.567 150 251 148.433 251 146.5C251 144.567 252.567 143 254.5 143C256.433 143 258 144.567 258 146.5ZM240 154.6L240 160.4C240 160.96 240 161.24 240.109 161.454C240.205 161.642 240.358 161.795 240.546 161.891C240.76 162 241.04 162 241.6 162H242.4C242.96 162 243.24 162 243.454 161.891C243.642 161.795 243.795 161.642 243.891 161.454C244 161.24 244 160.96 244 160.4V154.6C244 154.04 244 153.76 243.891 153.546C243.795 153.358 243.642 153.205 243.454 153.109C243.24 153 242.96 153 242.4 153L241.6 153C241.04 153 240.76 153 240.546 153.109C240.358 153.205 240.205 153.358 240.109 153.546C240 153.76 240 154.04 240 154.6Z" stroke="#33CFFF" stroke-width="2" stroke-linecap="round" stroke-linejoin="round"/>
<path d="M270.797 158V146.5H274.906C275.797 146.5 276.536 146.654 277.125 146.961C277.714 147.268 278.154 147.693 278.445 148.234C278.737 148.771 278.883 149.396 278.883 150.109C278.883 150.812 278.734 151.43 278.438 151.961C278.146 152.492 277.706 152.906 277.117 153.203C276.529 153.495 275.789 153.641 274.898 153.641H271.789V152.156H274.734C275.302 152.156 275.76 152.076 276.109 151.914C276.464 151.753 276.724 151.521 276.891 151.219C277.057 150.911 277.138 150.542 277.133 150.109C277.138 149.672 277.057 149.294 276.891 148.977C276.724 148.659 276.464 148.414 276.109 148.242C275.755 148.07 275.292 147.984 274.719 147.984H272.539V158H270.797ZM276.484 152.805L279.328 158H277.344L274.562 152.805H276.484ZM283.531 158.125C282.74 158.125 282.052 157.948 281.469 157.594C280.891 157.234 280.44 156.737 280.117 156.102C279.799 155.466 279.641 154.729 279.641 153.891C279.641 153.052 279.797 152.312 280.109 151.672C280.427 151.031 280.875 150.531 281.453 150.172C282.031 149.807 282.711 149.625 283.492 149.625C284.268 149.625 284.935 149.805 285.492 150.164C286.055 150.523 286.484 151.023 286.781 151.664C287.078 152.305 287.227 153.044 287.227 153.883V154.312H280.398V153.086H285.594C285.583 152.669 285.484 152.305 285.297 151.992C285.109 151.68 284.857 151.435 284.539 151.258C284.227 151.081 283.872 150.992 283.477 150.992C283.034 150.992 282.651 151.099 282.328 151.312C282.005 151.526 281.758 151.807 281.586 152.156C281.414 152.5 281.328 152.867 281.328 153.258V154.297C281.323 154.745 281.409 155.156 281.586 155.531C281.763 155.901 282.016 156.198 282.344 156.422C282.677 156.641 283.076 156.75 283.539 156.75C283.852 156.75 284.143 156.698 284.414 156.594C284.685 156.484 284.917 156.333 285.109 156.141C285.302 155.948 285.438 155.724 285.516 155.469H287.125C287.021 156 286.802 156.466 286.469 156.867C286.141 157.263 285.724 157.573 285.219 157.797C284.714 158.016 284.151 158.125 283.531 158.125ZM291.992 158.125C291.232 158.125 290.56 157.945 289.977 157.586C289.398 157.227 288.948 156.727 288.625 156.086C288.302 155.445 288.141 154.714 288.141 153.891C288.141 153.052 288.299 152.315 288.617 151.68C288.94 151.039 289.388 150.536 289.961 150.172C290.539 149.807 291.208 149.625 291.969 149.625C292.708 149.625 293.336 149.779 293.852 150.086C294.367 150.388 294.763 150.771 295.039 151.234C295.315 151.693 295.464 152.159 295.484 152.633H293.859C293.812 152.357 293.711 152.099 293.555 151.859C293.404 151.615 293.195 151.417 292.93 151.266C292.669 151.115 292.352 151.039 291.977 151.039C291.549 151.039 291.174 151.159 290.852 151.398C290.529 151.638 290.276 151.971 290.094 152.398C289.917 152.82 289.828 153.318 289.828 153.891C289.828 154.448 289.919 154.938 290.102 155.359C290.289 155.781 290.544 156.109 290.867 156.344C291.19 156.578 291.562 156.695 291.984 156.695C292.318 156.695 292.62 156.628 292.891 156.492C293.161 156.357 293.378 156.169 293.539 155.93C293.706 155.685 293.794 155.411 293.805 155.109H295.484C295.453 155.63 295.299 156.12 295.023 156.578C294.747 157.036 294.354 157.409 293.844 157.695C293.339 157.982 292.721 158.125 291.992 158.125ZM302.289 154.516V149.75H303.961V158H302.336V156.609H302.305C302.122 157.036 301.823 157.396 301.406 157.688C300.995 157.979 300.466 158.125 299.82 158.125C299.258 158.125 298.742 158.003 298.273 157.758C297.805 157.513 297.43 157.148 297.148 156.664C296.872 156.18 296.734 155.583 296.734 154.875V149.75H298.414V154.672C298.414 155.328 298.586 155.826 298.93 156.164C299.273 156.503 299.729 156.672 300.297 156.672C300.672 156.672 301.008 156.596 301.305 156.445C301.607 156.294 301.846 156.06 302.023 155.742C302.201 155.419 302.289 155.01 302.289 154.516ZM305.562 158V149.75H307.164V151.109H307.211C307.362 150.651 307.602 150.289 307.93 150.023C308.263 149.758 308.682 149.625 309.188 149.625C309.312 149.625 309.427 149.633 309.531 149.648C309.641 149.659 309.729 149.672 309.797 149.688V151.281C309.724 151.255 309.604 151.232 309.438 151.211C309.276 151.185 309.102 151.172 308.914 151.172C308.612 151.172 308.333 151.242 308.078 151.383C307.823 151.518 307.617 151.729 307.461 152.016C307.31 152.302 307.234 152.667 307.234 153.109V158H305.562ZM310.812 158V149.75H312.414V151.109H312.461C312.612 150.651 312.852 150.289 313.18 150.023C313.513 149.758 313.932 149.625 314.438 149.625C314.562 149.625 314.677 149.633 314.781 149.648C314.891 149.659 314.979 149.672 315.047 149.688V151.281C314.974 151.255 314.854 151.232 314.688 151.211C314.526 151.185 314.352 151.172 314.164 151.172C313.862 151.172 313.583 151.242 313.328 151.383C313.073 151.518 312.867 151.729 312.711 152.016C312.56 152.302 312.484 152.667 312.484 153.109V158H310.812ZM316.062 158V149.75H317.734V158H316.062ZM316.906 148.305C316.615 148.305 316.367 148.206 316.164 148.008C315.966 147.81 315.87 147.573 315.875 147.297C315.87 147.01 315.966 146.771 316.164 146.578C316.367 146.38 316.615 146.281 316.906 146.281C317.188 146.281 317.427 146.38 317.625 146.578C317.828 146.771 317.932 147.01 317.938 147.297C317.932 147.573 317.828 147.81 317.625 148.008C317.427 148.206 317.188 148.305 316.906 148.305ZM321.008 153.234V158H319.328V149.75H320.961V151.141H320.992C321.174 150.708 321.471 150.349 321.883 150.062C322.294 149.771 322.823 149.625 323.469 149.625C324.042 149.625 324.56 149.747 325.023 149.992C325.492 150.237 325.865 150.602 326.141 151.086C326.417 151.565 326.555 152.161 326.555 152.875V158H324.883V153.078C324.883 152.422 324.711 151.924 324.367 151.586C324.029 151.247 323.57 151.078 322.992 151.078C322.622 151.078 322.286 151.154 321.984 151.305C321.688 151.456 321.451 151.69 321.273 152.008C321.096 152.326 321.008 152.734 321.008 153.234ZM331.812 161.375C331.135 161.375 330.536 161.273 330.016 161.07C329.5 160.872 329.086 160.583 328.773 160.203C328.461 159.823 328.273 159.365 328.211 158.828H329.891C329.995 159.224 330.219 159.521 330.562 159.719C330.911 159.917 331.331 160.016 331.82 160.016C332.477 160.016 332.99 159.844 333.359 159.5C333.734 159.161 333.922 158.661 333.922 158V156.656H333.891C333.661 157.089 333.344 157.43 332.938 157.68C332.536 157.924 332.036 158.047 331.438 158.047C330.729 158.047 330.117 157.878 329.602 157.539C329.091 157.195 328.695 156.711 328.414 156.086C328.138 155.461 328 154.719 328 153.859C328 153 328.146 152.253 328.438 151.617C328.734 150.982 329.143 150.492 329.664 150.148C330.19 149.799 330.786 149.625 331.453 149.625C331.953 149.625 332.362 149.708 332.68 149.875C333.003 150.036 333.258 150.232 333.445 150.461C333.638 150.69 333.784 150.901 333.883 151.094H333.938V149.75H335.586V157.969C335.586 158.776 335.417 159.43 335.078 159.93C334.745 160.43 334.292 160.794 333.719 161.023C333.151 161.258 332.516 161.375 331.812 161.375ZM331.797 156.641C332.474 156.641 332.997 156.401 333.367 155.922C333.737 155.438 333.922 154.755 333.922 153.875C333.922 153.276 333.839 152.768 333.672 152.352C333.51 151.935 333.271 151.617 332.953 151.398C332.641 151.174 332.266 151.062 331.828 151.062C331.365 151.062 330.974 151.182 330.656 151.422C330.344 151.656 330.104 151.984 329.938 152.406C329.776 152.828 329.695 153.318 329.695 153.875C329.695 154.432 329.773 154.919 329.93 155.336C330.091 155.747 330.328 156.068 330.641 156.297C330.953 156.526 331.339 156.641 331.797 156.641ZM341.375 158V146.5H345.617C346.435 146.5 347.112 146.635 347.648 146.906C348.185 147.177 348.586 147.542 348.852 148C349.117 148.458 349.25 148.971 349.25 149.539C349.25 150.013 349.167 150.417 349 150.75C348.833 151.083 348.607 151.352 348.32 151.555C348.039 151.758 347.724 151.904 347.375 151.992V152.008C347.755 152.029 348.125 152.156 348.484 152.391C348.844 152.625 349.141 152.953 349.375 153.375C349.609 153.797 349.727 154.305 349.727 154.898C349.727 155.487 349.589 156.016 349.312 156.484C349.036 156.953 348.612 157.323 348.039 157.594C347.466 157.865 346.734 158 345.844 158H341.375ZM343.141 156.484H345.688C346.516 156.484 347.107 156.326 347.461 156.008C347.82 155.685 348 155.284 348 154.805C348 154.44 347.909 154.112 347.727 153.82C347.544 153.523 347.286 153.286 346.953 153.109C346.62 152.927 346.219 152.836 345.75 152.836H343.141V156.484ZM343.141 151.438H345.516C345.906 151.438 346.255 151.365 346.562 151.219C346.875 151.068 347.12 150.859 347.297 150.594C347.479 150.323 347.57 150.003 347.57 149.633C347.57 149.174 347.406 148.786 347.078 148.469C346.75 148.146 346.24 147.984 345.547 147.984H343.141V151.438ZM351.016 158V149.75H352.688V158H351.016ZM351.859 148.305C351.568 148.305 351.32 148.206 351.117 148.008C350.919 147.81 350.823 147.573 350.828 147.297C350.823 147.01 350.919 146.771 351.117 146.578C351.32 146.38 351.568 146.281 351.859 146.281C352.141 146.281 352.38 146.38 352.578 146.578C352.781 146.771 352.885 147.01 352.891 147.297C352.885 147.573 352.781 147.81 352.578 148.008C352.38 148.206 352.141 148.305 351.859 148.305ZM355.961 146.5V158H354.281V146.5H355.961ZM359.242 146.5V158H357.562V146.5H359.242ZM360.844 158V149.75H362.516V158H360.844ZM361.688 148.305C361.396 148.305 361.148 148.206 360.945 148.008C360.747 147.81 360.651 147.573 360.656 147.297C360.651 147.01 360.747 146.771 360.945 146.578C361.148 146.38 361.396 146.281 361.688 146.281C361.969 146.281 362.208 146.38 362.406 146.578C362.609 146.771 362.714 147.01 362.719 147.297C362.714 147.573 362.609 147.81 362.406 148.008C362.208 148.206 361.969 148.305 361.688 148.305ZM365.789 153.234V158H364.109V149.75H365.742V151.141H365.773C365.956 150.708 366.253 150.349 366.664 150.062C367.076 149.771 367.604 149.625 368.25 149.625C368.823 149.625 369.341 149.747 369.805 149.992C370.273 150.237 370.646 150.602 370.922 151.086C371.198 151.565 371.336 152.161 371.336 152.875V158H369.664V153.078C369.664 152.422 369.492 151.924 369.148 151.586C368.81 151.247 368.352 151.078 367.773 151.078C367.404 151.078 367.068 151.154 366.766 151.305C366.469 151.456 366.232 151.69 366.055 152.008C365.878 152.326 365.789 152.734 365.789 153.234ZM376.594 161.375C375.917 161.375 375.318 161.273 374.797 161.07C374.281 160.872 373.867 160.583 373.555 160.203C373.242 159.823 373.055 159.365 372.992 158.828H374.672C374.776 159.224 375 159.521 375.344 159.719C375.693 159.917 376.112 160.016 376.602 160.016C377.258 160.016 377.771 159.844 378.141 159.5C378.516 159.161 378.703 158.661 378.703 158V156.656H378.672C378.443 157.089 378.125 157.43 377.719 157.68C377.318 157.924 376.818 158.047 376.219 158.047C375.51 158.047 374.898 157.878 374.383 157.539C373.872 157.195 373.477 156.711 373.195 156.086C372.919 155.461 372.781 154.719 372.781 153.859C372.781 153 372.927 152.253 373.219 151.617C373.516 150.982 373.924 150.492 374.445 150.148C374.971 149.799 375.568 149.625 376.234 149.625C376.734 149.625 377.143 149.708 377.461 149.875C377.784 150.036 378.039 150.232 378.227 150.461C378.419 150.69 378.565 150.901 378.664 151.094H378.719V149.75H380.367V157.969C380.367 158.776 380.198 159.43 379.859 159.93C379.526 160.43 379.073 160.794 378.5 161.023C377.932 161.258 377.297 161.375 376.594 161.375ZM376.578 156.641C377.255 156.641 377.779 156.401 378.148 155.922C378.518 155.438 378.703 154.755 378.703 153.875C378.703 153.276 378.62 152.768 378.453 152.352C378.292 151.935 378.052 151.617 377.734 151.398C377.422 151.174 377.047 151.062 376.609 151.062C376.146 151.062 375.755 151.182 375.438 151.422C375.125 151.656 374.885 151.984 374.719 152.406C374.557 152.828 374.477 153.318 374.477 153.875C374.477 154.432 374.555 154.919 374.711 155.336C374.872 155.747 375.109 156.068 375.422 156.297C375.734 156.526 376.12 156.641 376.578 156.641Z" fill="#0D0D12"/>
<line x1="4.37114e-08" y1="223.5" x2="474" y2="223.5" stroke="url(#paint6_linear_609_53881)" stroke-opacity="0.15"/>
<line x1="4.37114e-08" y1="255.5" x2="474" y2="255.5" stroke="url(#paint7_linear_609_53881)" stroke-opacity="0.15"/>
<line x1="4.37114e-08" y1="287.5" x2="474" y2="287.5" stroke="url(#paint8_linear_609_53881)" stroke-opacity="0.15"/>
<rect x="138" y="236" width="128" height="40" rx="8" fill="white"/>
<path opacity="0.12" d="M167.136 258H153.75L153.188 249H170.106C170.416 249 170.57 249 170.683 249.062C170.782 249.117 170.86 249.204 170.903 249.308C170.953 249.427 170.935 249.581 170.901 249.888L170.316 255.153C170.204 256.16 170.149 256.663 169.916 257.043C169.712 257.378 169.413 257.645 169.058 257.811C168.655 258 168.149 258 167.136 258Z" fill="#40C4AA"/>
<path d="M154 258H167.136C168.149 258 168.655 258 169.058 257.811C169.413 257.645 169.712 257.378 169.916 257.043C170.149 256.663 170.204 256.16 170.316 255.153L170.901 249.888C170.935 249.581 170.953 249.427 170.903 249.308C170.86 249.204 170.782 249.117 170.683 249.062C170.57 249 170.416 249 170.106 249H153.5M151 246H152.248C152.513 246 152.645 246 152.749 246.05C152.84 246.095 152.916 246.166 152.965 246.254C153.022 246.354 153.03 246.486 153.047 246.75L153.953 261.25C153.97 261.514 153.978 261.646 154.035 261.746C154.084 261.834 154.16 261.905 154.251 261.95C154.355 262 154.487 262 154.752 262H168M156.5 265.5H156.51M165.5 265.5H165.51M157 265.5C157 265.776 156.776 266 156.5 266C156.224 266 156 265.776 156 265.5C156 265.224 156.224 265 156.5 265C156.776 265 157 265.224 157 265.5ZM166 265.5C166 265.776 165.776 266 165.5 266C165.224 266 165 265.776 165 265.5C165 265.224 165.224 265 165.5 265C165.776 265 166 265.224 166 265.5Z" stroke="#40C4AA" stroke-width="2" stroke-linecap="round" stroke-linejoin="round"/>
<path d="M188.828 262.188C187.74 262.188 186.794 261.951 185.992 261.477C185.19 260.997 184.568 260.312 184.125 259.422C183.688 258.531 183.469 257.474 183.469 256.25C183.469 255.021 183.693 253.964 184.141 253.078C184.589 252.188 185.214 251.505 186.016 251.031C186.823 250.552 187.76 250.312 188.828 250.312C189.458 250.312 190.052 250.414 190.609 250.617C191.172 250.82 191.672 251.115 192.109 251.5C192.547 251.88 192.904 252.341 193.18 252.883C193.456 253.419 193.625 254.026 193.688 254.703H191.914C191.846 254.271 191.721 253.883 191.539 253.539C191.362 253.19 191.135 252.893 190.859 252.648C190.589 252.404 190.281 252.216 189.938 252.086C189.599 251.951 189.234 251.883 188.844 251.883C188.089 251.883 187.443 252.06 186.906 252.414C186.375 252.768 185.966 253.273 185.68 253.93C185.398 254.581 185.258 255.354 185.258 256.25C185.258 257.146 185.396 257.922 185.672 258.578C185.948 259.229 186.352 259.732 186.883 260.086C187.419 260.44 188.073 260.617 188.844 260.617C189.25 260.617 189.63 260.549 189.984 260.414C190.339 260.279 190.654 260.086 190.93 259.836C191.206 259.581 191.43 259.281 191.602 258.938C191.773 258.594 191.878 258.214 191.914 257.797H193.688C193.641 258.438 193.49 259.026 193.234 259.562C192.979 260.099 192.635 260.562 192.203 260.953C191.776 261.344 191.276 261.648 190.703 261.867C190.13 262.081 189.505 262.188 188.828 262.188ZM196.625 257.164V262H194.953V250.5H196.602V255.062H196.641C196.828 254.635 197.13 254.279 197.547 253.992C197.964 253.701 198.495 253.555 199.141 253.555C199.708 253.555 200.224 253.677 200.688 253.922C201.156 254.167 201.529 254.529 201.805 255.008C202.081 255.487 202.219 256.083 202.219 256.797V262H200.547V257C200.547 256.349 200.375 255.854 200.031 255.516C199.693 255.177 199.237 255.008 198.664 255.008C198.294 255.008 197.953 255.083 197.641 255.234C197.333 255.385 197.086 255.62 196.898 255.938C196.716 256.255 196.625 256.664 196.625 257.164ZM207.359 262.125C206.568 262.125 205.88 261.948 205.297 261.594C204.719 261.234 204.268 260.737 203.945 260.102C203.628 259.466 203.469 258.729 203.469 257.891C203.469 257.052 203.625 256.312 203.938 255.672C204.255 255.031 204.703 254.531 205.281 254.172C205.859 253.807 206.539 253.625 207.32 253.625C208.096 253.625 208.763 253.805 209.32 254.164C209.883 254.523 210.312 255.023 210.609 255.664C210.906 256.305 211.055 257.044 211.055 257.883V258.312H204.227V257.086H209.422C209.411 256.669 209.312 256.305 209.125 255.992C208.938 255.68 208.685 255.435 208.367 255.258C208.055 255.081 207.701 254.992 207.305 254.992C206.862 254.992 206.479 255.099 206.156 255.312C205.833 255.526 205.586 255.807 205.414 256.156C205.242 256.5 205.156 256.867 205.156 257.258V258.297C205.151 258.745 205.237 259.156 205.414 259.531C205.591 259.901 205.844 260.198 206.172 260.422C206.505 260.641 206.904 260.75 207.367 260.75C207.68 260.75 207.971 260.698 208.242 260.594C208.513 260.484 208.745 260.333 208.938 260.141C209.13 259.948 209.266 259.724 209.344 259.469H210.953C210.849 260 210.63 260.466 210.297 260.867C209.969 261.263 209.552 261.573 209.047 261.797C208.542 262.016 207.979 262.125 207.359 262.125ZM215.82 262.125C215.06 262.125 214.388 261.945 213.805 261.586C213.227 261.227 212.776 260.727 212.453 260.086C212.13 259.445 211.969 258.714 211.969 257.891C211.969 257.052 212.128 256.315 212.445 255.68C212.768 255.039 213.216 254.536 213.789 254.172C214.367 253.807 215.036 253.625 215.797 253.625C216.536 253.625 217.164 253.779 217.68 254.086C218.195 254.388 218.591 254.771 218.867 255.234C219.143 255.693 219.292 256.159 219.312 256.633H217.688C217.641 256.357 217.539 256.099 217.383 255.859C217.232 255.615 217.023 255.417 216.758 255.266C216.497 255.115 216.18 255.039 215.805 255.039C215.378 255.039 215.003 255.159 214.68 255.398C214.357 255.638 214.104 255.971 213.922 256.398C213.745 256.82 213.656 257.318 213.656 257.891C213.656 258.448 213.747 258.938 213.93 259.359C214.117 259.781 214.372 260.109 214.695 260.344C215.018 260.578 215.391 260.695 215.812 260.695C216.146 260.695 216.448 260.628 216.719 260.492C216.99 260.357 217.206 260.169 217.367 259.93C217.534 259.685 217.622 259.411 217.633 259.109H219.312C219.281 259.63 219.128 260.12 218.852 260.578C218.576 261.036 218.182 261.409 217.672 261.695C217.167 261.982 216.549 262.125 215.82 262.125ZM222.109 259.25L222.086 257.203H222.383L225.812 253.75H227.828L223.922 257.75H223.641L222.109 259.25ZM220.562 262V250.5H222.234V262H220.562ZM226 262L222.922 258.125L224.078 256.945L228.062 262H226ZM232.266 262.125C231.479 262.125 230.786 261.948 230.188 261.594C229.589 261.234 229.12 260.737 228.781 260.102C228.448 259.461 228.281 258.724 228.281 257.891C228.281 257.047 228.448 256.305 228.781 255.664C229.12 255.023 229.589 254.523 230.188 254.164C230.786 253.805 231.479 253.625 232.266 253.625C233.057 253.625 233.75 253.805 234.344 254.164C234.943 254.523 235.409 255.023 235.742 255.664C236.081 256.305 236.25 257.047 236.25 257.891C236.25 258.724 236.083 259.461 235.75 260.102C235.417 260.737 234.951 261.234 234.352 261.594C233.753 261.948 233.057 262.125 232.266 262.125ZM232.266 260.703C232.714 260.703 233.109 260.586 233.453 260.352C233.797 260.117 234.068 259.789 234.266 259.367C234.464 258.94 234.562 258.448 234.562 257.891C234.562 257.318 234.464 256.82 234.266 256.398C234.068 255.971 233.797 255.638 233.453 255.398C233.115 255.154 232.719 255.031 232.266 255.031C231.812 255.031 231.414 255.151 231.07 255.391C230.727 255.63 230.456 255.964 230.258 256.391C230.065 256.818 229.969 257.318 229.969 257.891C229.974 258.448 230.073 258.94 230.266 259.367C230.464 259.789 230.734 260.117 231.078 260.352C231.422 260.586 231.818 260.703 232.266 260.703ZM243.055 258.516V253.75H244.727V262H243.102V260.609H243.07C242.888 261.036 242.589 261.396 242.172 261.688C241.76 261.979 241.232 262.125 240.586 262.125C240.023 262.125 239.508 262.003 239.039 261.758C238.57 261.513 238.195 261.148 237.914 260.664C237.638 260.18 237.5 259.583 237.5 258.875V253.75H239.18V258.672C239.18 259.328 239.352 259.826 239.695 260.164C240.039 260.503 240.495 260.672 241.062 260.672C241.438 260.672 241.773 260.596 242.07 260.445C242.372 260.294 242.612 260.06 242.789 259.742C242.966 259.419 243.055 259.01 243.055 258.516ZM249.227 262.047C248.799 262.047 248.406 261.974 248.047 261.828C247.693 261.682 247.406 261.453 247.188 261.141C246.974 260.828 246.867 260.422 246.867 259.922V251.727H248.547V259.648C248.547 259.94 248.589 260.156 248.672 260.297C248.76 260.438 248.878 260.529 249.023 260.57C249.169 260.607 249.328 260.625 249.5 260.625C249.604 260.625 249.703 260.622 249.797 260.617C249.891 260.607 249.964 260.596 250.016 260.586L250.188 261.977C250.089 261.992 249.958 262.008 249.797 262.023C249.635 262.039 249.445 262.047 249.227 262.047ZM245.68 255.125V253.75H250.125V255.125H245.68Z" fill="#0D0D12"/>
<defs>
<linearGradient id="paint0_linear_609_53881" x1="0" y1="16" x2="474" y2="16" gradientUnits="userSpaceOnUse">
<stop stop-color="white" stop-opacity="0"/>
<stop offset="0.502487" stop-color="white"/>
<stop offset="1" stop-color="white" stop-opacity="0"/>
</linearGradient>
<linearGradient id="paint1_linear_609_53881" x1="0" y1="48.0001" x2="474" y2="48" gradientUnits="userSpaceOnUse">
<stop stop-color="white" stop-opacity="0"/>
<stop offset="0.502487" stop-color="white"/>
<stop offset="1" stop-color="white" stop-opacity="0"/>
</linearGradient>
<linearGradient id="paint2_linear_609_53881" x1="0" y1="80.0001" x2="474" y2="80" gradientUnits="userSpaceOnUse">
<stop stop-color="white" stop-opacity="0"/>
<stop offset="0.502487" stop-color="white"/>
<stop offset="1" stop-color="white" stop-opacity="0"/>
</linearGradient>
<linearGradient id="paint3_linear_609_53881" x1="0" y1="120" x2="474" y2="120" gradientUnits="userSpaceOnUse">
<stop stop-color="white" stop-opacity="0"/>
<stop offset="0.502487" stop-color="white"/>
<stop offset="1" stop-color="white" stop-opacity="0"/>
</linearGradient>
<linearGradient id="paint4_linear_609_53881" x1="0" y1="152" x2="474" y2="152" gradientUnits="userSpaceOnUse">
<stop stop-color="white" stop-opacity="0"/>
<stop offset="0.502487" stop-color="white"/>
<stop offset="1" stop-color="white" stop-opacity="0"/>
</linearGradient>
<linearGradient id="paint5_linear_609_53881" x1="0" y1="184" x2="474" y2="184" gradientUnits="userSpaceOnUse">
<stop stop-color="white" stop-opacity="0"/>
<stop offset="0.502487" stop-color="white"/>
<stop offset="1" stop-color="white" stop-opacity="0"/>
</linearGradient>
<linearGradient id="paint6_linear_609_53881" x1="0" y1="224" x2="474" y2="224" gradientUnits="userSpaceOnUse">
<stop stop-color="white" stop-opacity="0"/>
<stop offset="0.502487" stop-color="white"/>
<stop offset="1" stop-color="white" stop-opacity="0"/>
</linearGradient>
<linearGradient id="paint7_linear_609_53881" x1="0" y1="256" x2="474" y2="256" gradientUnits="userSpaceOnUse">
<stop stop-color="white" stop-opacity="0"/>
<stop offset="0.502487" stop-color="white"/>
<stop offset="1" stop-color="white" stop-opacity="0"/>
</linearGradient>
<linearGradient id="paint8_linear_609_53881" x1="0" y1="288" x2="474" y2="288" gradientUnits="userSpaceOnUse">
<stop stop-color="white" stop-opacity="0"/>
<stop offset="0.502487" stop-color="white"/>
<stop offset="1" stop-color="white" stop-opacity="0"/>
</linearGradient>
</defs>
</svg>
