<svg width="768" height="320" viewBox="0 0 768 320" fill="none" xmlns="http://www.w3.org/2000/svg">
<g clip-path="url(#clip0_711_15694)">
<rect x="0.5" y="0.473145" width="95" height="95" rx="15.5" fill="#F8FAFB"/>
<rect x="0.5" y="0.473145" width="95" height="95" rx="15.5" stroke="#ECEFF3"/>
<path fill-rule="evenodd" clip-rule="evenodd" d="M57 35.9731H39C37.3646 35.9706 36.0029 37.3407 36 38.9731V56.9731C36 58.6298 37.3435 59.9731 39 59.9731H57C58.6354 59.9757 59.9971 58.6056 60 56.9731V38.9731C60 37.3165 58.6571 35.9731 57 35.9731ZM51.1993 40.3731C51.1993 39.9318 51.5581 39.5731 52 39.5731C52.4419 39.5731 52.8 39.9318 52.8 40.3731V51.0618C52.8 51.5031 52.4412 51.8618 52 51.8618C51.5765 51.8622 51.2011 51.4868 51.2 51.0618L51.1993 40.3731ZM47.1993 39.9685C47.1993 39.5265 47.5581 39.1685 48 39.1685C48.4419 39.1685 48.8007 39.5265 48.8007 39.9685V51.5685C48.8007 52.0105 48.4419 52.3685 48 52.3685C47.5765 52.3688 47.2011 51.9934 47.2 51.5685L47.1993 39.9685ZM43.2 40.3731C43.2 39.9318 43.5588 39.5731 44 39.5731C44.4419 39.5731 44.8 39.9318 44.8 40.3731V51.0618C44.8 51.5031 44.4419 51.8618 44 51.8618C43.5765 51.8622 43.2011 51.4868 43.2 51.0618V40.3731ZM39.2 41.9731C39.2 41.5311 39.5581 41.1731 40 41.1731C40.4419 41.1731 40.8 41.5311 40.8 41.9731V49.1685C40.8 49.6105 40.4412 49.9685 40 49.9685C39.5639 49.9692 39.2007 49.6038 39.2 49.1685V41.9731ZM56.5209 54.1758C56.398 54.2825 53.4339 56.7685 48 56.7685C42.5661 56.7685 39.604 54.2818 39.4791 54.1751C39.1485 53.8919 39.1094 53.3781 39.3927 53.0478C39.6688 52.7264 40.1958 52.6852 40.5183 52.9598C40.5648 52.9991 43.2113 55.1685 47.9993 55.1685C52.8472 55.1685 55.4532 52.9831 55.4784 52.9618C55.8004 52.6851 56.3294 52.7254 56.606 53.0478C56.8911 53.3775 56.8525 53.8927 56.5209 54.1758ZM56.8 49.1691C56.8 49.6105 56.4412 49.9691 56 49.9691C55.5639 49.9699 55.2007 49.6045 55.2 49.1691V41.9731C55.2 41.5311 55.5581 41.1731 55.9993 41.1731C56.4412 41.1731 56.8 41.5311 56.8 41.9731V49.1691Z" fill="#322CA0"/>
<rect x="112.5" y="0.473145" width="95" height="95" rx="15.5" fill="#F8FAFB"/>
<rect x="112.5" y="0.473145" width="95" height="95" rx="15.5" stroke="#ECEFF3"/>
<path d="M153.863 53.4907L148.731 62.5485C148.731 62.5485 148.56 62.4655 148.328 62.2938C149.057 62.8542 149.765 62.9731 149.765 62.9731H169.92C171.032 62.9731 171.264 62.5485 171.264 62.5485C171.268 62.5466 171.27 62.5447 171.273 62.5429L166.145 53.4907H153.863Z" fill="#4285F4"/>
<path d="M166.145 53.4907H176.496C176.444 54.7211 175.91 55.44 175.91 55.44L175.521 56.1156C175.493 56.1552 175.477 56.1779 175.477 56.1779L174.63 57.6649L172.728 60.9747C172.673 61.1087 172.608 61.2314 172.539 61.3484C172.513 61.388 172.489 61.4314 172.461 61.4691C172.454 61.4805 172.447 61.4918 172.439 61.5031C172.204 61.8352 171.941 62.0919 171.677 62.2938C171.446 62.4674 171.275 62.5485 171.275 62.5485L166.145 53.4907Z" fill="#EA4335"/>
<path d="M153.863 53.4907H143.512C143.564 54.7211 144.098 55.44 144.098 55.44L144.487 56.1156C144.515 56.1552 144.531 56.1779 144.531 56.1779L145.378 57.6649L147.28 60.9747C147.335 61.1087 147.4 61.2314 147.469 61.3484C147.495 61.388 147.519 61.4314 147.547 61.4691C147.554 61.4805 147.562 61.4918 147.569 61.5031C147.804 61.8352 148.068 62.0919 148.331 62.2938C148.562 62.4674 148.733 62.5485 148.733 62.5485L153.863 53.4907Z" fill="#1967D2"/>
<path d="M160.003 42.6494L166.145 53.4905H176.496C176.513 53.0734 176.476 52.5998 176.342 52.0752L166.859 35.3428C166.859 35.3428 166.154 33.6237 164.625 33.1199C164.822 33.1972 165.022 33.3124 165.194 33.4878L160.003 42.6494Z" fill="#FBBC05"/>
<path d="M160.003 42.6494L154.812 33.4878C154.984 33.3124 155.182 33.1972 155.381 33.1199C153.85 33.6237 153.147 35.3428 153.147 35.3428L143.664 52.0752C143.53 52.5998 143.493 53.0734 143.51 53.4905H153.861L160.003 42.6494Z" fill="#34A853"/>
<path d="M160.003 42.6498L165.194 33.4882C165.022 33.3127 164.822 33.1976 164.625 33.1202C164.399 33.0466 164.156 32.9976 163.893 32.9844H163.619H156.387H156.113C155.851 32.9957 155.607 33.0448 155.381 33.1202C155.184 33.1976 154.984 33.3127 154.812 33.4882L160.003 42.6498Z" fill="#188038"/>
<rect x="224.5" y="0.473145" width="95" height="95" rx="15.5" fill="#F8FAFB"/>
<rect x="224.5" y="0.473145" width="95" height="95" rx="15.5" stroke="#ECEFF3"/>
<circle cx="272" cy="47.9731" r="21" fill="#FF3366"/>
<path d="M265.039 40.2622C266.489 40.2622 267.664 39.087 267.664 37.6372C267.664 36.1875 266.489 35.0122 265.039 35.0122C263.589 35.0122 262.414 36.1875 262.414 37.6372C262.414 39.087 263.589 40.2622 265.039 40.2622Z" fill="white"/>
<path d="M259.555 42.5122L258.641 45.8638H261.641C261.039 48.3091 259.78 53.4528 259.555 54.4653C259.273 55.731 259.226 59.3403 263.023 59.3403C265.674 59.3403 267.364 57.6283 268.307 56.2304L267.594 59.0825H271.859L274.086 50.0702C274.402 48.5708 275.147 45.6763 277.836 45.6763C281.034 45.6763 279.861 49.4631 279.286 51.3189C279.262 51.3945 279.24 51.4669 279.219 51.5356C278.787 52.9419 278.328 54.5825 278.328 55.7075C278.328 56.9731 278.914 59.3403 282.195 59.3403C285.477 59.3403 286.875 56.0903 287.164 54.4653L285.5 53.7856C285.383 54.6528 284.328 56.5278 283.344 56.5278C281.996 56.5278 282.673 54.2559 283.396 51.8312C283.716 50.7558 284.045 49.6503 284.211 48.6997C284.63 46.2963 284.211 42.2075 280.039 42.2075C277.448 42.2075 275.413 44.5164 274.445 46.1193L275.258 42.5122H268.766L267.875 45.8638H270.898C270.898 45.8638 269.104 53.1756 268.988 53.4048C267.77 55.813 265.926 56.6213 264.547 56.5278C263.441 56.4528 263.57 55.1216 263.773 54.4653L266.773 42.5122H259.555Z" fill="white"/>
<rect x="336.5" y="0.473145" width="95" height="95" rx="15.5" fill="#F8FAFB"/>
<rect x="336.5" y="0.473145" width="95" height="95" rx="15.5" stroke="#ECEFF3"/>
<path fill-rule="evenodd" clip-rule="evenodd" d="M373.5 54.4731H384V64.4731L373.5 54.4731Z" fill="#0055FF"/>
<path d="M384 44.4731H373.5V54.4731H394.5L384 44.4731Z" fill="#00AAFF"/>
<path d="M373.5 34.4731L384 44.4731H394.5V34.4731H373.5Z" fill="#88DDFF"/>
<rect x="448.5" y="0.473145" width="95" height="95" rx="15.5" fill="#F8FAFB"/>
<rect x="448.5" y="0.473145" width="95" height="95" rx="15.5" stroke="#ECEFF3"/>
<path d="M496 26.9731C484.417 26.9731 475 36.3903 475 47.9731C475 59.556 484.417 68.9731 496 68.9731C507.583 68.9731 517 59.556 517 47.9731C517 36.3903 507.583 26.9731 496 26.9731Z" fill="#E6001F"/>
<path d="M482.5 58.4731C482.5 58.4731 491.831 35.979 491.809 35.9731C491.809 35.9731 491.809 35.9731 491.809 35.9731H491.809H498.895L509.5 58.4731L501.49 58.4731C501.496 58.485 495.484 44.6676 495.409 44.5287C495.396 44.6492 491.423 53.8968 491.375 53.9082H495.657C495.637 53.9317 497.518 58.4302 497.518 58.4731L482.5 58.4731Z" fill="white"/>
<rect x="560.5" y="0.473145" width="95" height="95" rx="15.5" fill="#F8FAFB"/>
<rect x="560.5" y="0.473145" width="95" height="95" rx="15.5" stroke="#ECEFF3"/>
<path d="M628.497 46.7979L609.811 28.725L608 26.9731L593.934 40.5777L587.503 46.7979C586.832 47.4472 586.832 48.4991 587.503 49.1484L600.354 61.5777L608 68.9731L622.066 55.3686L622.284 55.1579L628.497 49.1484C629.168 48.4991 629.168 47.4472 628.497 46.7979ZM608 54.1822L601.58 47.9731L608 41.7641L614.42 47.9731L608 54.1822Z" fill="#2684FF"/>
<path fill-rule="evenodd" clip-rule="evenodd" d="M614.437 47.9565L608 54.1823C610.029 56.1432 611.169 58.8036 611.169 61.5777C611.169 64.3518 610.029 67.0122 608 68.9732L622.083 55.352L614.437 47.9565Z" fill="url(#paint0_linear_711_15694)"/>
<path fill-rule="evenodd" clip-rule="evenodd" d="M608 41.764C603.797 37.6983 603.777 31.1131 607.954 27.0229L593.906 40.6053L601.552 48.0008L608 41.764Z" fill="url(#paint1_linear_711_15694)"/>
<rect x="672.5" y="0.473145" width="95" height="95" rx="15.5" fill="#F8FAFB"/>
<rect x="672.5" y="0.473145" width="95" height="95" rx="15.5" stroke="#ECEFF3"/>
<path d="M713.863 53.4907L708.731 62.5485C708.731 62.5485 708.56 62.4655 708.328 62.2938C709.057 62.8542 709.765 62.9731 709.765 62.9731H729.92C731.032 62.9731 731.264 62.5485 731.264 62.5485C731.268 62.5466 731.27 62.5447 731.273 62.5429L726.145 53.4907H713.863Z" fill="#4285F4"/>
<path d="M726.145 53.4907H736.496C736.444 54.7211 735.91 55.44 735.91 55.44L735.521 56.1156C735.493 56.1552 735.477 56.1779 735.477 56.1779L734.63 57.6649L732.728 60.9747C732.673 61.1087 732.608 61.2314 732.539 61.3484C732.513 61.388 732.489 61.4314 732.461 61.4691C732.454 61.4805 732.447 61.4918 732.439 61.5031C732.204 61.8352 731.941 62.0919 731.677 62.2938C731.446 62.4674 731.275 62.5485 731.275 62.5485L726.145 53.4907Z" fill="#EA4335"/>
<path d="M713.863 53.4907H703.512C703.564 54.7211 704.098 55.44 704.098 55.44L704.487 56.1156C704.515 56.1552 704.531 56.1779 704.531 56.1779L705.378 57.6649L707.28 60.9747C707.335 61.1087 707.4 61.2314 707.469 61.3484C707.495 61.388 707.519 61.4314 707.547 61.4691C707.554 61.4805 707.562 61.4918 707.569 61.5031C707.804 61.8352 708.068 62.0919 708.331 62.2938C708.562 62.4674 708.733 62.5485 708.733 62.5485L713.863 53.4907Z" fill="#1967D2"/>
<path d="M720.003 42.6494L726.145 53.4905H736.496C736.513 53.0734 736.476 52.5998 736.342 52.0752L726.859 35.3428C726.859 35.3428 726.154 33.6237 724.625 33.1199C724.822 33.1972 725.022 33.3124 725.194 33.4878L720.003 42.6494Z" fill="#FBBC05"/>
<path d="M720.003 42.6494L714.812 33.4878C714.984 33.3124 715.182 33.1972 715.381 33.1199C713.85 33.6237 713.147 35.3428 713.147 35.3428L703.664 52.0752C703.53 52.5998 703.493 53.0734 703.51 53.4905H713.861L720.003 42.6494Z" fill="#34A853"/>
<path d="M720.003 42.6498L725.194 33.4882C725.022 33.3127 724.822 33.1976 724.625 33.1202C724.399 33.0466 724.156 32.9976 723.893 32.9844H723.619H716.387H716.113C715.851 32.9957 715.607 33.0448 715.381 33.1202C715.184 33.1976 714.984 33.3127 714.812 33.4882L720.003 42.6498Z" fill="#188038"/>
<rect x="-51.5" y="112.473" width="95" height="95" rx="15.5" fill="#F8FAFB"/>
<rect x="-51.5" y="112.473" width="95" height="95" rx="15.5" stroke="#ECEFF3"/>
<path d="M-10.1374 165.491L-15.2694 174.549C-15.2694 174.549 -15.44 174.465 -15.6716 174.294C-14.9433 174.854 -14.2353 174.973 -14.2353 174.973H5.92029C7.03232 174.973 7.264 174.549 7.264 174.549C7.2677 174.547 7.26956 174.545 7.27326 174.543L2.14495 165.491H-10.1374Z" fill="#4285F4"/>
<path d="M2.14502 165.491H12.4962C12.4443 166.721 11.9105 167.44 11.9105 167.44L11.5213 168.116C11.4935 168.155 11.4768 168.178 11.4768 168.178L10.6298 169.665L8.72823 172.975C8.67263 173.109 8.60777 173.231 8.53919 173.348C8.51325 173.388 8.48914 173.431 8.46134 173.469C8.45393 173.48 8.44652 173.492 8.4391 173.503C8.20372 173.835 7.94055 174.092 7.67737 174.294C7.44569 174.467 7.27518 174.549 7.27518 174.549L2.14502 165.491Z" fill="#EA4335"/>
<path d="M-3.99707 154.649L2.14505 165.49H12.4962C12.5129 165.073 12.4758 164.6 12.3424 164.075L2.85859 147.343C2.85859 147.343 2.15431 145.624 0.625268 145.12C0.821727 145.197 1.02189 145.312 1.19426 145.488L-3.99707 154.649Z" fill="#FBBC05"/>
<path d="M-3.99715 154.65L1.19418 145.488C1.02182 145.313 0.82165 145.198 0.625192 145.12C0.399078 145.047 0.156283 144.998 -0.106897 144.984H-0.3812H-7.6131H-7.8874C-8.14873 144.996 -8.39337 145.045 -8.61949 145.12C-8.81595 145.198 -9.01611 145.313 -9.18848 145.488L-3.99715 154.65Z" fill="#188038"/>
<rect x="60.5" y="112.473" width="95" height="95" rx="15.5" fill="#F8FAFB"/>
<rect x="60.5" y="112.473" width="95" height="95" rx="15.5" stroke="#ECEFF3"/>
<path fill-rule="evenodd" clip-rule="evenodd" d="M102.012 143.475C93.8129 143.354 87 149.233 87 156.165C87 160.167 88.9291 163.639 92.6634 166.188C92.6634 166.188 91.2948 170.594 91.3142 170.683C91.3337 170.771 91.6316 170.945 91.7352 170.888C91.8389 170.831 96.6826 168.013 96.6826 168.013C100.154 169.176 102.271 168.89 102.633 168.841C102.658 168.837 102.675 168.835 102.683 168.835C102.312 167.776 102.069 166.128 102.346 164.575C103.793 156.446 112.323 153.918 116.998 154.35C115.707 148.479 110.1 143.594 102.012 143.475ZM96.313 150.147C95.2375 150.147 94.3657 150.998 94.3657 152.047C94.3657 153.097 95.2375 153.948 96.313 153.948C97.3886 153.948 98.2605 153.097 98.2605 152.047C98.2605 150.998 97.3886 150.147 96.313 150.147ZM108.102 150.147C107.027 150.147 106.155 150.998 106.155 152.047C106.155 153.097 107.027 153.948 108.102 153.948C109.178 153.948 110.05 153.097 110.05 152.047C110.05 150.998 109.178 150.147 108.102 150.147Z" fill="#31CE6F"/>
<path fill-rule="evenodd" clip-rule="evenodd" d="M129 165.812C129 159.873 123.113 155.324 116.284 155.324C109.052 155.324 103.285 159.976 103.285 165.914C103.285 171.864 108.771 176.79 116.292 176.83C117.806 176.838 120.061 176.458 121.581 175.839C121.581 175.839 125.215 177.989 125.419 177.973C125.622 177.957 125.727 177.8 125.735 177.665C125.743 177.53 124.577 174.174 124.577 174.174C127.698 171.79 129 169.162 129 165.812ZM111.524 160.251C110.573 160.251 109.801 161.005 109.801 161.936C109.801 162.865 110.573 163.62 111.524 163.62C112.476 163.62 113.247 162.866 113.247 161.936C113.247 161.005 112.476 160.251 111.524 160.251ZM120.737 160.251C119.785 160.251 119.014 161.005 119.014 161.936C119.014 162.865 119.785 163.62 120.737 163.62C121.689 163.62 122.46 162.866 122.46 161.936C122.46 161.005 121.689 160.251 120.737 160.251Z" fill="#31CE6F"/>
<rect x="172.5" y="112.473" width="95" height="95" rx="15.5" fill="#F8FAFB"/>
<rect x="172.5" y="112.473" width="95" height="95" rx="15.5" stroke="#ECEFF3"/>
<path fill-rule="evenodd" clip-rule="evenodd" d="M220 180.973C231.598 180.973 241 171.571 241 159.973C241 148.375 231.598 138.973 220 138.973C208.402 138.973 199 148.375 199 159.973C199 171.571 208.402 180.973 220 180.973Z" fill="#1FB6FF"/>
<path fill-rule="evenodd" clip-rule="evenodd" d="M217.907 155.355C219.445 155.372 216.738 163.354 217.028 166.824C217.321 170.325 221.195 169.317 220.949 167.302C220.531 163.875 222.813 153.139 225.128 153.139C226.752 153.139 223.329 160.54 224.003 165.28C224.448 168.416 228.493 167.328 228.082 165.469C226.722 159.315 230.935 153.402 230.463 149.212C230.256 147.379 229.154 146.482 228.051 146.473C224.19 146.444 221.207 154.362 221.207 154.362C221.207 154.362 221.518 149.861 218.517 149.696C213.922 149.443 209.374 160.942 209.503 171.209C209.544 174.485 213.62 173.927 213.406 171.315C213.007 166.459 215.715 155.331 217.907 155.355Z" fill="white"/>
<rect x="284.5" y="112.473" width="95" height="95" rx="15.5" fill="#F8FAFB"/>
<rect x="284.5" y="112.473" width="95" height="95" rx="15.5" stroke="#ECEFF3"/>
<path fill-rule="evenodd" clip-rule="evenodd" d="M317.474 166.226L315.276 167.015L315.158 173.439L322.764 170.708C320.156 169.847 318.251 168.332 317.474 166.226Z" fill="#FDBD39"/>
<path fill-rule="evenodd" clip-rule="evenodd" d="M318.623 159.43L311 162.168L315.276 167.015L317.474 166.226C316.699 164.126 317.177 161.752 318.623 159.43Z" fill="#F69833"/>
<path fill-rule="evenodd" clip-rule="evenodd" d="M331.452 150.159C321.745 153.645 315.486 160.838 317.474 166.226L352.628 153.602C350.641 148.215 341.16 146.673 331.452 150.159Z" fill="#FECF33"/>
<path fill-rule="evenodd" clip-rule="evenodd" d="M338.649 169.668C348.357 166.182 354.627 159.021 352.628 153.602L317.473 166.226C319.472 171.645 328.942 173.154 338.649 169.668Z" fill="#EE6723"/>
<path fill-rule="evenodd" clip-rule="evenodd" d="M352.628 153.602L317.473 166.226C318.162 168.091 320.787 169.011 324.47 169.011C328.061 169.011 332.657 168.138 337.45 166.417C347.157 162.931 353.987 157.287 352.628 153.602Z" fill="#F69833"/>
<path fill-rule="evenodd" clip-rule="evenodd" d="M345.632 150.817C342.041 150.817 337.445 151.69 332.652 153.411C322.945 156.897 316.115 162.541 317.474 166.226L352.629 153.602C351.941 151.736 349.316 150.817 345.632 150.817Z" fill="#FDBD39"/>
<path fill-rule="evenodd" clip-rule="evenodd" d="M343.69 173.78H343.69C342.656 173.78 341.13 172.861 339.154 171.05C336.818 168.907 334.141 165.769 331.617 162.213C329.093 158.657 327.02 155.102 325.778 152.203C324.425 149.043 324.232 147.101 325.204 146.429C325.418 146.282 325.675 146.207 325.968 146.207C326.759 146.207 328.301 146.786 331.151 149.544L331.213 149.604L331.205 149.69C331.185 149.888 331.168 150.088 331.151 150.284L331.12 150.674L330.84 150.397C327.769 147.356 326.417 147.028 325.979 147.028C325.853 147.028 325.754 147.053 325.682 147.102C325.26 147.393 325.233 148.82 326.545 151.883C327.765 154.731 329.808 158.232 332.299 161.742C334.791 165.252 337.426 168.344 339.721 170.448C342.196 172.718 343.311 172.963 343.676 172.963C343.802 172.963 343.904 172.936 343.98 172.884C344.425 172.576 344.426 171.048 342.963 167.751L342.896 167.6L343.043 167.52C343.19 167.441 343.332 167.363 343.465 167.289L343.641 167.191L343.723 167.373C344.76 169.709 345.729 172.678 344.458 173.557C344.244 173.705 343.985 173.78 343.69 173.78ZM343.69 173.419H343.69L343.69 173.6L343.69 173.419Z" fill="#EE6723"/>
<path fill-rule="evenodd" clip-rule="evenodd" d="M338.885 169.57L338.871 169.75C338.625 172.735 337.979 176.323 336.294 176.469C336.26 176.472 336.225 176.473 336.19 176.473C335.045 176.473 333.962 174.861 332.971 171.682C332.034 168.674 331.306 164.636 330.922 160.311C330.539 155.986 330.545 151.885 330.939 148.761C331.368 145.357 332.186 143.58 333.368 143.478C333.403 143.475 333.44 143.473 333.475 143.473C334.306 143.473 335.557 144.397 336.838 148.702L336.002 148.861C335.574 147.422 335.108 146.252 334.645 145.448C334.217 144.705 333.801 144.295 333.473 144.295C333.462 144.295 333.452 144.296 333.441 144.296C332.928 144.341 332.181 145.563 331.765 148.863C331.378 151.93 331.374 155.97 331.752 160.239C332.131 164.508 332.846 168.486 333.767 171.44C334.18 172.763 334.632 173.854 335.075 174.593C335.484 175.276 335.88 175.651 336.19 175.651C336.2 175.651 336.211 175.651 336.221 175.65C336.712 175.608 337.636 174.336 338.025 169.86L338.885 169.57Z" fill="#EE6723"/>
<rect x="396.5" y="112.473" width="95" height="95" rx="15.5" fill="#F8FAFB"/>
<rect x="396.5" y="112.473" width="95" height="95" rx="15.5" stroke="#ECEFF3"/>
<path d="M423 151.048C423 146.777 423 144.641 423.844 143.016C424.556 141.646 425.673 140.529 427.043 139.818C428.668 138.973 430.804 138.973 435.075 138.973H452.925C457.196 138.973 459.332 138.973 460.957 139.818C462.327 140.529 463.444 141.646 464.156 143.016C465 144.641 465 146.777 465 151.048V168.898C465 173.169 465 175.305 464.156 176.93C463.444 178.3 462.327 179.417 460.957 180.129C459.332 180.973 457.196 180.973 452.925 180.973H435.075C430.804 180.973 428.668 180.973 427.043 180.129C425.673 179.417 424.556 178.3 423.844 176.93C423 175.305 423 173.169 423 168.898V151.048Z" fill="url(#paint2_linear_711_15694)"/>
<path d="M441.931 172.264L431.71 162.042C432.583 167.267 436.707 171.391 441.931 172.264Z" fill="#F2F3F8"/>
<path d="M431.558 159.279L444.694 172.416C445.473 172.373 446.233 172.259 446.968 172.079L431.894 157.005C431.715 157.74 431.6 158.5 431.558 159.279Z" fill="#F2F3F8"/>
<path d="M432.551 155.049L448.926 171.424C449.521 171.168 450.093 170.866 450.636 170.524L433.451 153.339C433.109 153.882 432.807 154.454 432.551 155.049Z" fill="#F2F3F8"/>
<path d="M434.558 151.838C436.843 149.189 440.224 147.511 443.998 147.511C450.88 147.511 456.459 153.091 456.459 159.973C456.459 163.746 454.782 167.128 452.133 169.413L434.558 151.838Z" fill="#F2F3F8"/>
<rect x="508.5" y="112.473" width="95" height="95" rx="15.5" fill="#F8FAFB"/>
<rect x="508.5" y="112.473" width="95" height="95" rx="15.5" stroke="#ECEFF3"/>
<rect x="535" y="138.973" width="42" height="42" rx="6" fill="#2789F6"/>
<path d="M566.385 163.474C566.062 163.036 565.989 162.592 566.166 162.142C566.607 160.943 573.024 153.322 570.351 153.322C568.514 153.347 566.304 153.322 564.543 153.322C564.216 153.402 564.005 153.574 563.872 153.923C562.842 156.297 561.582 159.195 559.735 161.058C559.492 161.254 559.341 161.245 559.064 161.173C557.768 159.809 559.15 155.136 558.362 153.289C558.206 152.928 557.867 152.765 557.519 152.673C555.76 152.253 551.743 152.503 551.087 153.347C550.9 153.588 550.874 153.72 551.009 153.741C551.633 153.84 552.075 154.075 552.336 154.448C552.827 155.529 553.188 161.288 551.743 161.288C550.297 161.288 547.965 155.636 547.325 154.07C547.154 153.598 546.72 153.328 546.263 153.248L541.986 153.28C541.234 153.28 540.814 153.651 541.08 154.398C543.308 159.929 548.183 170.648 555.661 170.379C556.41 170.379 557.699 170.667 558.284 170.018C559.088 168.951 558.107 167.051 559.486 166.327C559.833 166.142 560.194 166.297 560.492 166.525C562.026 167.692 562.84 169.741 564.731 170.364C565.063 170.473 565.355 170.501 565.605 170.446L569.601 170.38C570.343 170.38 571.074 170.05 570.92 169.163C570.338 167.261 568.016 165.306 566.385 163.474Z" fill="white"/>
<rect x="620.5" y="112.473" width="95" height="95" rx="15.5" fill="#F8FAFB"/>
<rect x="620.5" y="112.473" width="95" height="95" rx="15.5" stroke="#ECEFF3"/>
<path fill-rule="evenodd" clip-rule="evenodd" d="M658.884 164.713C659.165 167.126 659.565 168.949 660.436 171.098C661.306 173.246 663.226 176.118 665.568 177.827C667.91 179.536 671.729 181.132 674.311 180.96C676.894 180.79 678.044 179.836 679.232 178.627C680.419 177.419 683.089 173.74 684.019 170.305C684.95 166.87 684.37 165.665 683.62 164.668C682.872 163.672 681.182 162.995 678.877 163.171C676.571 163.348 674.081 164.778 673.939 165.96C673.72 167.787 677.122 168.039 676.571 169.644C676.35 170.291 675.525 170.811 673.336 170.745C671.147 170.68 668.75 169.616 668.193 167.927C667.636 166.238 667.88 164.686 669.063 163.867C674.059 160.408 675.726 157.559 676.054 156.263C676.382 154.968 675.869 153.449 674.572 152.284C671.789 149.784 666.191 150.901 663.477 152.825C659.448 155.681 658.343 160.058 658.884 164.713ZM665.458 141.099C664.991 142.151 664.377 144.346 664.997 146.157C665.617 147.967 667.963 150.017 670.543 149.539C673.122 149.06 673.043 145.034 672.537 143.287C672.08 141.708 669.778 139.109 668.169 138.982C666.561 138.856 665.924 140.048 665.458 141.099ZM657.882 147.311C659.393 149.521 661.755 149.866 662.954 149.458C664.153 149.049 663.635 145.711 662.912 144.178C662.01 142.263 659.906 142.087 658.681 142.711C657.457 143.335 656.372 145.101 657.882 147.311ZM654.004 148.891C652.408 149.442 652.869 152.748 653.793 154.061C654.716 155.375 657.478 156.103 658.542 154.918C659.606 153.733 658.281 151.391 657.641 150.633C657.001 149.874 655.601 148.34 654.004 148.891ZM651.634 157.156C652.086 156.123 654.171 156.226 655.735 157.125C657.705 158.259 657.785 161.104 656.624 161.568C655.684 161.943 654.019 161.7 652.98 160.876C651.94 160.053 651.181 158.189 651.634 157.156Z" fill="black"/>
<rect x="732.5" y="112.473" width="95" height="95" rx="15.5" fill="#F8FAFB"/>
<rect x="732.5" y="112.473" width="95" height="95" rx="15.5" stroke="#ECEFF3"/>
<path d="M773.863 165.491H763.512C763.564 166.721 764.098 167.44 764.098 167.44L764.487 168.116C764.515 168.155 764.531 168.178 764.531 168.178L765.378 169.665L767.28 172.975C767.335 173.109 767.4 173.231 767.469 173.348C767.495 173.388 767.519 173.431 767.547 173.469C767.554 173.48 767.562 173.492 767.569 173.503C767.804 173.835 768.068 174.092 768.331 174.294C768.562 174.467 768.733 174.549 768.733 174.549L773.863 165.491Z" fill="#1967D2"/>
<path d="M780.003 154.649L774.812 145.488C774.984 145.312 775.182 145.197 775.381 145.12C773.85 145.624 773.147 147.343 773.147 147.343L763.664 164.075C763.53 164.6 763.493 165.073 763.51 165.49H773.861L780.003 154.649Z" fill="#34A853"/>
<rect x="-13.5" y="224.473" width="95" height="95" rx="15.5" fill="#F8FAFB"/>
<rect x="-13.5" y="224.473" width="95" height="95" rx="15.5" stroke="#ECEFF3"/>
<path d="M27.8626 277.491L22.7306 286.549C22.7306 286.549 22.56 286.465 22.3284 286.294C23.0567 286.854 23.7647 286.973 23.7647 286.973H43.9203C45.0323 286.973 45.264 286.549 45.264 286.549C45.2677 286.547 45.2696 286.545 45.2733 286.543L40.145 277.491H27.8626Z" fill="#4285F4"/>
<path d="M40.145 277.491H50.4962C50.4443 278.721 49.9105 279.44 49.9105 279.44L49.5213 280.116C49.4935 280.155 49.4768 280.178 49.4768 280.178L48.6298 281.665L46.7282 284.975C46.6726 285.109 46.6078 285.231 46.5392 285.348C46.5132 285.388 46.4891 285.431 46.4613 285.469C46.4539 285.48 46.4465 285.492 46.4391 285.503C46.2037 285.835 45.9405 286.092 45.6774 286.294C45.4457 286.467 45.2752 286.549 45.2752 286.549L40.145 277.491Z" fill="#EA4335"/>
<path d="M27.8631 277.491H17.512C17.5639 278.721 18.0976 279.44 18.0976 279.44L18.4868 280.116C18.5146 280.155 18.5313 280.178 18.5313 280.178L19.3783 281.665L21.2799 284.975C21.3355 285.109 21.4004 285.231 21.4689 285.348C21.4949 285.388 21.519 285.431 21.5468 285.469C21.5542 285.48 21.5616 285.492 21.569 285.503C21.8044 285.835 22.0676 286.092 22.3308 286.294C22.5624 286.467 22.7329 286.549 22.7329 286.549L27.8631 277.491Z" fill="#1967D2"/>
<path d="M34.0029 266.649L40.145 277.49H50.4962C50.5129 277.073 50.4758 276.6 50.3424 276.075L40.8586 259.343C40.8586 259.343 40.1543 257.624 38.6253 257.12C38.8217 257.197 39.0219 257.312 39.1943 257.488L34.0029 266.649Z" fill="#FBBC05"/>
<path d="M34.0031 266.649L28.8118 257.488C28.9841 257.312 29.1825 257.197 29.3808 257.12C27.8499 257.624 27.1474 259.343 27.1474 259.343L17.6637 276.075C17.5302 276.6 17.4932 277.073 17.5098 277.49H27.861L34.0031 266.649Z" fill="#34A853"/>
<path d="M34.0029 266.65L39.1942 257.488C39.0218 257.313 38.8216 257.198 38.6252 257.12C38.3991 257.047 38.1563 256.998 37.8931 256.984H37.6188H30.3869H30.1126C29.8513 256.996 29.6066 257.045 29.3805 257.12C29.1841 257.198 28.9839 257.313 28.8115 257.488L34.0029 266.65Z" fill="#188038"/>
<rect x="98.5" y="224.473" width="95" height="95" rx="15.5" fill="#F8FAFB"/>
<rect x="98.5" y="224.473" width="95" height="95" rx="15.5" stroke="#ECEFF3"/>
<path d="M125 271.97C125 283.566 134.403 292.97 146.001 292.97C157.598 292.97 167 283.566 167 271.97C167 260.371 157.598 250.97 146.001 250.97C134.403 250.97 125 260.371 125 271.97Z" fill="url(#paint3_linear_711_15694)"/>
<path fill-rule="evenodd" clip-rule="evenodd" d="M151.469 285.661C152.02 285.131 155.251 282.019 157.11 279.969C158.881 278.011 159.772 275.491 159.612 272.877C159.447 270.186 158.191 267.693 156.072 265.863C152.573 262.837 146.917 262.899 143.464 265.997C142.205 267.126 140.782 268.674 140.721 268.74C139.813 269.727 139.88 271.265 140.866 272.172C141.853 273.078 143.386 273.014 144.296 272.027C144.308 272.013 145.62 270.585 146.703 269.615C148.521 267.984 151.428 268.266 152.899 269.539C154.021 270.507 154.683 271.797 154.767 273.171C154.846 274.468 154.4 275.725 153.513 276.705C151.762 278.64 148.537 281.743 148.092 282.172C148.06 282.202 148.043 282.219 148.04 282.221C147.072 283.149 147.037 284.684 147.964 285.655C148.44 286.153 149.077 286.405 149.719 286.405C150.32 286.405 150.924 286.181 151.393 285.734C151.403 285.724 151.429 285.699 151.469 285.661ZM136.225 277.91C137.947 279.399 140.19 280.142 142.437 280.142C144.757 280.142 147.08 279.351 148.833 277.776C149.988 276.739 151.283 275.35 151.534 275.08C151.557 275.056 151.571 275.041 151.576 275.036C152.483 274.049 152.417 272.51 151.431 271.604C150.446 270.695 148.909 270.759 148.003 271.747C148.002 271.747 148 271.75 147.996 271.754C147.893 271.866 146.636 273.224 145.595 274.16C143.776 275.789 140.87 275.51 139.396 274.235C138.276 273.266 137.614 271.976 137.529 270.6C137.45 269.305 137.897 268.051 138.784 267.067C140.66 264.997 144.22 261.588 144.257 261.553C145.226 260.626 145.259 259.09 144.333 258.119C143.406 257.151 141.872 257.113 140.903 258.041L140.887 258.057C140.588 258.344 137.134 261.657 135.189 263.806C133.415 265.764 132.528 268.284 132.685 270.896C132.85 273.589 134.107 276.08 136.225 277.91Z" fill="white"/>
<rect x="210.5" y="224.473" width="95" height="95" rx="15.5" fill="#F8FAFB"/>
<rect x="210.5" y="224.473" width="95" height="95" rx="15.5" stroke="#ECEFF3"/>
<path d="M258 250.973C246.417 250.973 237 260.39 237 271.973C237 283.556 246.417 292.973 258 292.973C269.583 292.973 279 283.556 279 271.973C279 260.39 269.583 250.973 258 250.973Z" fill="#FF5A5F"/>
<path d="M258 277.503C256.624 275.771 255.814 274.253 255.544 272.954C255.274 271.899 255.382 271.06 255.841 270.438C256.327 269.707 257.056 269.355 258 269.355C258.945 269.355 259.674 269.707 260.16 270.438C260.619 271.06 260.727 271.899 260.457 272.954C260.16 274.28 259.35 275.796 258 277.503ZM265.538 281.508C263.243 282.509 260.973 280.913 259.029 278.748C262.244 274.713 262.838 271.574 261.459 269.542C260.649 268.379 259.488 267.81 258 267.81C255.004 267.81 253.355 270.354 254.002 273.306C254.38 274.903 255.379 276.718 256.972 278.748C255.777 280.075 254.21 281.58 252.329 281.752C249.602 282.158 247.467 279.506 248.439 276.77L255.352 262.423C255.942 261.344 256.671 260.42 257.998 260.42C258.97 260.42 259.726 260.989 260.049 261.449L267.557 276.77C268.293 278.621 267.36 280.719 265.538 281.508ZM269.02 276.229L262.592 262.829C261.378 260.339 260.514 258.848 258 258.848C255.517 258.848 254.461 260.58 253.382 262.829L246.981 276.229C245.604 280.02 248.439 283.348 251.87 283.348C252.086 283.348 252.3 283.321 252.518 283.321C254.299 283.105 256.138 281.968 258 279.936C259.863 281.965 261.702 283.105 263.483 283.321C263.701 283.321 263.915 283.348 264.131 283.348C267.562 283.351 270.397 280.02 269.02 276.229Z" fill="white"/>
<rect x="322.5" y="224.473" width="95" height="95" rx="15.5" fill="#F8FAFB"/>
<rect x="322.5" y="224.473" width="95" height="95" rx="15.5" stroke="#ECEFF3"/>
<circle cx="370" cy="271.973" r="21" fill="#FF5502"/>
<path d="M381.895 279.473H369.616V264.639C370.754 263.6 372.227 262.973 373.837 262.973C377.399 262.973 380.295 266.043 380.359 269.855C380.84 269.673 381.357 269.573 381.895 269.573C384.438 269.573 386.5 271.789 386.5 274.523C386.5 277.257 384.438 279.473 381.895 279.473Z" fill="white"/>
<path d="M368.5 265.973H367V279.473H368.5V265.973Z" fill="white"/>
<path d="M364 267.473H365.5V279.473H364V267.473Z" fill="white"/>
<path d="M362.5 270.473H361V279.473H362.5V270.473Z" fill="white"/>
<path d="M358 268.973H359.5V279.473H358V268.973Z" fill="white"/>
<path d="M356.5 271.973H355V279.473H356.5V271.973Z" fill="white"/>
<rect x="434.5" y="224.473" width="95" height="95" rx="15.5" fill="#F8FAFB"/>
<rect x="434.5" y="224.473" width="95" height="95" rx="15.5" stroke="#ECEFF3"/>
<path d="M482 271.973C487.799 271.973 492.5 267.272 492.5 261.473C492.5 255.674 487.799 250.973 482 250.973C476.201 250.973 471.5 255.674 471.5 261.473C471.5 267.272 476.201 271.973 482 271.973Z" fill="url(#paint4_linear_711_15694)"/>
<path fill-rule="evenodd" clip-rule="evenodd" d="M481.164 292.717C474.761 288.351 469.436 282.401 465.639 275.37C465.492 275.088 465.46 274.754 465.551 274.446C465.641 274.139 465.846 273.884 466.117 273.743L473.542 269.848C474.061 269.577 474.688 269.782 474.976 270.318C478.73 277.043 484.28 282.413 490.913 285.738C488.467 288.373 485.758 290.713 482.835 292.717C482.324 293.058 481.675 293.058 481.164 292.717Z" fill="url(#paint5_linear_711_15694)"/>
<path fill-rule="evenodd" clip-rule="evenodd" d="M482.834 292.717C489.238 288.352 494.564 282.402 498.36 275.37C498.507 275.089 498.539 274.755 498.45 274.448C498.361 274.14 498.157 273.885 497.887 273.743L490.457 269.848C489.937 269.577 489.311 269.782 489.022 270.318C485.269 277.044 479.719 282.414 473.085 285.738C475.53 288.375 478.239 290.715 481.164 292.717C481.675 293.058 482.323 293.058 482.834 292.717Z" fill="#2684FF"/>
<rect x="546.5" y="224.473" width="95" height="95" rx="15.5" fill="#F8FAFB"/>
<rect x="546.5" y="224.473" width="95" height="95" rx="15.5" stroke="#ECEFF3"/>
<path d="M573.855 278.014C576.451 286.668 584.481 292.973 593.986 292.973C605.591 292.973 614.999 283.571 614.999 271.973C614.999 260.375 605.591 250.973 593.986 250.973C582.85 250.973 573.737 259.631 573.018 270.578C573.018 273.723 573.018 275.036 573.855 278.014Z" fill="url(#paint6_linear_711_15694)"/>
<path d="M592.906 266.817L587.764 274.282C586.552 274.227 585.332 274.57 584.319 275.236L573.027 270.59C573.027 270.59 572.766 274.886 573.855 278.087L581.837 281.379C582.238 283.169 583.467 284.739 585.279 285.494C588.245 286.733 591.665 285.321 592.899 282.356C593.22 281.581 593.37 280.768 593.348 279.957L600.886 274.706C605.289 274.706 608.867 271.119 608.867 266.713C608.867 262.308 605.289 258.724 600.886 258.724C596.633 258.724 592.668 262.435 592.906 266.817ZM591.67 281.84C590.715 284.131 588.081 285.218 585.791 284.265C584.735 283.825 583.937 283.019 583.477 282.058L586.075 283.135C587.764 283.838 589.701 283.037 590.403 281.35C591.108 279.661 590.309 277.721 588.621 277.018L585.935 275.906C586.971 275.513 588.15 275.499 589.25 275.957C590.36 276.418 591.221 277.287 591.678 278.397C592.134 279.508 592.132 280.734 591.67 281.84ZM600.886 272.038C597.955 272.038 595.568 269.65 595.568 266.713C595.568 263.78 597.955 261.391 600.886 261.391C603.818 261.391 606.205 263.78 606.205 266.713C606.205 269.65 603.818 272.038 600.886 272.038ZM596.901 266.705C596.901 264.497 598.69 262.705 600.895 262.705C603.101 262.705 604.89 264.497 604.89 266.705C604.89 268.914 603.101 270.704 600.895 270.704C598.69 270.704 596.901 268.914 596.901 266.705Z" fill="white"/>
<rect x="658.5" y="224.473" width="95" height="95" rx="15.5" fill="#F8FAFB"/>
<rect x="658.5" y="224.473" width="95" height="95" rx="15.5" stroke="#ECEFF3"/>
<path d="M706 250.973C694.417 250.973 685 260.39 685 271.973C685 283.556 694.417 292.973 706 292.973C717.583 292.973 727 283.556 727 271.973C727 260.39 717.583 250.973 706 250.973Z" fill="#00AF87"/>
<path d="M697 273.473C697 272.587 697.682 271.973 698.5 271.973C699.318 271.973 700 272.587 700 273.473C700 274.36 699.386 274.973 698.5 274.973C697.614 274.973 697 274.291 697 273.473Z" fill="white"/>
<path fill-rule="evenodd" clip-rule="evenodd" d="M698.5 268.973C696.045 268.973 694 270.814 694 273.473C694 275.928 695.841 277.973 698.5 277.973C701.159 277.973 703 276.132 703 273.473C703 270.814 700.955 268.973 698.5 268.973ZM698.5 270.473C696.864 270.473 695.5 271.7 695.5 273.473C695.5 275.11 696.727 276.473 698.5 276.473C700.273 276.473 701.5 275.246 701.5 273.473C701.5 271.7 700.136 270.473 698.5 270.473Z" fill="white"/>
<path d="M715 273.473C715 272.587 714.318 271.973 713.5 271.973C712.682 271.973 712 272.587 712 273.473C712 274.36 712.614 274.973 713.5 274.973C714.386 274.973 715 274.291 715 273.473Z" fill="white"/>
<path fill-rule="evenodd" clip-rule="evenodd" d="M713.5 268.973C715.955 268.973 718 270.814 718 273.473C718 275.928 716.159 277.973 713.5 277.973C710.841 277.973 709 276.132 709 273.473C709 270.814 711.045 268.973 713.5 268.973ZM713.5 270.473C715.136 270.473 716.5 271.7 716.5 273.473C716.5 275.11 715.273 276.473 713.5 276.473C711.727 276.473 710.5 275.246 710.5 273.473C710.5 271.7 711.864 270.473 713.5 270.473Z" fill="white"/>
<path fill-rule="evenodd" clip-rule="evenodd" d="M695.5 265.949C698.277 264.192 702.147 262.973 706 262.973C709.853 262.973 713.723 264.192 716.5 265.949L721 265.973L719.402 268.952C720.308 270.142 721 271.83 721 273.473C721 277.61 717.475 280.973 713.452 280.973C711.072 280.973 708.917 279.616 707.5 277.973L706 280.973L704.5 277.973C703.083 279.616 700.928 280.973 698.548 280.973C694.525 280.973 691 277.61 691 273.473C691 271.83 691.692 270.142 692.598 268.952L691 265.973L695.5 265.949ZM706 272.723C706.283 268.926 709.598 266.03 713.452 265.973C711.355 265.066 708.663 264.473 706 264.473C703.337 264.473 700.645 265.066 698.548 265.973C702.402 266.03 705.717 268.926 706 272.723ZM698.548 279.5C695.262 279.5 692.5 276.76 692.5 273.473C692.5 270.186 695.262 267.422 698.548 267.422C701.835 267.422 704.498 270.186 704.498 273.473C704.498 276.703 701.835 279.5 698.548 279.5ZM713.452 279.5C716.738 279.5 719.5 276.76 719.5 273.473C719.5 270.186 716.738 267.422 713.452 267.422C710.165 267.422 707.502 270.186 707.502 273.473C707.502 276.703 710.165 279.5 713.452 279.5Z" fill="white"/>
<rect y="0.0268555" width="768" height="320" fill="url(#paint7_radial_711_15694)"/>
</g>
<defs>
<linearGradient id="paint0_linear_711_15694" x1="609.227" y1="60.3913" x2="619.916" y2="55.7489" gradientUnits="userSpaceOnUse">
<stop offset="0.18" stop-color="#0052CC"/>
<stop offset="1" stop-color="#2684FF"/>
</linearGradient>
<linearGradient id="paint1_linear_711_15694" x1="606.854" y1="35.4828" x2="596.145" y2="40.1585" gradientUnits="userSpaceOnUse">
<stop offset="0.18" stop-color="#0052CC"/>
<stop offset="1" stop-color="#2684FF"/>
</linearGradient>
<linearGradient id="paint2_linear_711_15694" x1="423" y1="180.973" x2="465" y2="138.973" gradientUnits="userSpaceOnUse">
<stop stop-color="#29359B"/>
<stop offset="1" stop-color="#6068CA"/>
</linearGradient>
<linearGradient id="paint3_linear_711_15694" x1="125" y1="292.97" x2="125" y2="250.97" gradientUnits="userSpaceOnUse">
<stop stop-color="#2255FF"/>
<stop offset="1" stop-color="#00AAFF"/>
</linearGradient>
<linearGradient id="paint4_linear_711_15694" x1="482" y1="254.463" x2="482" y2="276.022" gradientUnits="userSpaceOnUse">
<stop stop-color="#2684FF"/>
<stop offset="0.82" stop-color="#0052CC"/>
</linearGradient>
<linearGradient id="paint5_linear_711_15694" x1="475.965" y1="275.37" x2="481.742" y2="290.817" gradientUnits="userSpaceOnUse">
<stop stop-color="#2684FF"/>
<stop offset="0.62" stop-color="#0052CC"/>
</linearGradient>
<linearGradient id="paint6_linear_711_15694" x1="594.008" y1="250.973" x2="594.008" y2="292.973" gradientUnits="userSpaceOnUse">
<stop stop-color="#111D2E"/>
<stop offset="0.21248" stop-color="#051839"/>
<stop offset="0.40695" stop-color="#0A1B48"/>
<stop offset="0.5811" stop-color="#132E62"/>
<stop offset="0.7376" stop-color="#144B7E"/>
<stop offset="0.87279" stop-color="#136497"/>
<stop offset="1" stop-color="#1387B8"/>
</linearGradient>
<radialGradient id="paint7_radial_711_15694" cx="0" cy="0" r="1" gradientUnits="userSpaceOnUse" gradientTransform="translate(384 160.027) rotate(90) scale(160 384)">
<stop stop-color="white" stop-opacity="0"/>
<stop offset="1" stop-color="white"/>
</radialGradient>
<clipPath id="clip0_711_15694">
<rect width="768" height="320" fill="white"/>
</clipPath>
</defs>
</svg>
