<svg width="495" height="27" viewBox="0 0 495 27" fill="none" xmlns="http://www.w3.org/2000/svg">
<g clip-path="url(#clip0_610_54175)">
<path d="M33.8079 23.1566V3.58582H37.3779V23.1566H33.8079Z" fill="#818898"/>
<path d="M68.0887 9.85026H71.4866V11.492C72.2179 10.1959 73.8953 9.50464 75.3578 9.50464C77.1643 9.50464 78.6267 10.2823 79.2719 11.708C80.3042 10.0663 81.7236 9.50464 83.4441 9.50464C85.8958 9.50464 88.2185 10.9735 88.2185 14.5594V23.1567H84.7345V15.2506C84.7345 13.8249 84.0463 12.7448 82.4118 12.7448C80.8634 12.7448 79.9601 13.9545 79.9601 15.3802V23.1567H76.4331V15.2506C76.4331 13.8249 75.7019 12.7448 74.1104 12.7448C72.562 12.7448 71.6157 13.9113 71.6157 15.3802V23.1567H68.0457L68.0887 9.85026Z" fill="#818898"/>
<path d="M45.4641 23.5455C41.4209 23.5455 38.5391 20.5645 38.5391 16.5035C38.5391 12.5288 41.4639 9.46143 45.4641 9.46143C49.5072 9.46143 52.3891 12.572 52.3891 16.5035C52.4321 20.4781 49.5072 23.5455 45.4641 23.5455ZM45.4641 12.7016C43.3995 12.7016 41.679 14.3865 41.679 16.5035C41.679 18.5772 43.3565 20.3053 45.4641 20.3053C47.5287 20.3053 49.2491 18.6204 49.2491 16.5035C49.2491 14.4297 47.5287 12.7016 45.4641 12.7016Z" fill="#818898"/>
<path d="M60.0454 23.5455C56.0022 23.5455 53.1204 20.5645 53.1204 16.5035C53.1204 12.5288 56.0452 9.46143 60.0454 9.46143C64.0885 9.46143 66.9704 12.572 66.9704 16.5035C66.9704 20.4781 64.0885 23.5455 60.0454 23.5455ZM60.0454 12.6584C57.9378 12.6584 56.2173 14.3865 56.2173 16.5035C56.2173 18.6204 57.9378 20.3485 60.0454 20.3485C62.153 20.3485 63.8735 18.6204 63.8735 16.5035C63.8735 14.3865 62.153 12.6584 60.0454 12.6584Z" fill="#818898"/>
<path d="M26.6247 11.8807H18.8394L25.5924 7.9925L24.13 5.40034L17.377 9.28858L21.2481 2.50576L18.6674 1.03687L14.7963 7.81969V0H11.8284V7.81969L7.95729 1.03687L5.37655 2.50576L9.24767 9.28858L2.49472 5.40034L1.0323 7.9925L7.78524 11.8807H0V14.8617H7.78524L1.0323 18.75L2.49472 21.3421L9.24767 17.4539L5.37655 24.2367L7.95729 25.7056L11.8284 18.9228V26.7425H14.7963V18.9228L18.6674 25.7056L21.2481 24.2367L17.377 17.4539L24.13 21.3421L25.5924 18.75L18.8394 14.8617H26.6247V11.8807ZM13.2908 17.4107C11.0542 17.4107 9.24767 15.5962 9.24767 13.3496C9.24767 11.1031 11.0542 9.28858 13.2908 9.28858C15.5275 9.28858 17.334 11.1031 17.334 13.3496C17.334 15.5962 15.5275 17.4107 13.2908 17.4107Z" fill="#818898"/>
</g>
<g clip-path="url(#clip1_610_54175)">
<path d="M122.251 3.95158C122.251 2.79887 123.189 1.86572 124.346 1.86572H132.672C133.83 1.86572 134.767 2.79887 134.767 3.95158V5.59831C134.767 6.20211 134.271 6.64123 133.72 6.64123H123.299C122.747 6.69612 122.251 6.20211 122.251 5.59831V3.95158Z" fill="#818898"/>
<path d="M122.251 10.5933C122.251 10.0444 122.747 9.55042 123.299 9.55042H143.258C144.416 9.55042 145.353 10.4836 145.353 11.6363V17.1254C145.353 17.7292 144.857 18.1683 144.306 18.1683H124.346C123.189 18.2232 122.251 17.2351 122.251 16.0824V10.5933Z" fill="#818898"/>
<path d="M132.837 22.1204C132.837 21.5166 133.334 21.0775 133.885 21.0775H144.306C144.912 21.0775 145.353 21.5715 145.353 22.1204V22.7791C145.353 23.9318 144.416 24.865 143.258 24.865H134.988C133.83 24.865 132.893 23.9318 132.893 22.7791V22.1204H132.837Z" fill="#818898"/>
<path d="M158.531 16.0276H160.736L164.871 22.7792H169.944L165.368 15.5885C167.904 14.7102 169.393 12.7341 169.393 9.93469C169.393 5.98254 166.581 3.8418 162.115 3.8418H154.12V22.8341H158.531V16.0276ZM158.531 12.4048V7.4646H161.894C163.989 7.4646 165.037 8.34285 165.037 9.93469C165.037 11.4716 163.989 12.4048 161.894 12.4048H158.531Z" fill="#818898"/>
<path d="M177.608 23.0537C180.42 23.0537 182.956 21.6265 184.004 18.9918L180.42 17.8391C180.034 19.0467 178.986 19.7054 177.663 19.7054C176.064 19.7054 174.906 18.6075 174.63 16.7412H184.114V15.6434C184.114 11.6913 181.798 8.5625 177.553 8.5625C173.528 8.5625 170.55 11.6913 170.55 15.8081C170.495 20.1445 173.362 23.0537 177.608 23.0537ZM177.442 11.8011C178.986 11.8011 179.813 12.844 179.868 14.1065H174.741C175.182 12.5695 176.174 11.8011 177.442 11.8011Z" fill="#818898"/>
<path d="M186.485 19.0467C186.485 21.901 187.973 22.8891 191.006 22.8891C191.998 22.8891 192.825 22.8342 193.542 22.7244V19.2663C193.046 19.3212 192.825 19.3212 192.329 19.3212C191.281 19.3212 190.675 19.1016 190.675 17.9489V12.35H193.432V8.83699H190.675V4.99463H186.485V8.83699H184.72V12.35H186.485V19.0467Z" fill="#818898"/>
<path d="M208.76 15.8081C208.76 11.4717 205.893 8.5625 201.757 8.5625C197.622 8.5625 194.755 11.4717 194.755 15.8081C194.755 20.1445 197.622 23.0537 201.757 23.0537C205.893 23.0537 208.76 20.1445 208.76 15.8081ZM199.001 15.8081C199.001 13.3929 200.103 12.0206 201.813 12.0206C203.522 12.0206 204.624 13.3929 204.624 15.8081C204.624 18.2233 203.522 19.5956 201.813 19.5956C200.048 19.5956 199.001 18.2233 199.001 15.8081Z" fill="#818898"/>
<path d="M224.087 15.8081C224.087 11.4717 221.22 8.5625 217.085 8.5625C212.95 8.5625 210.083 11.4717 210.083 15.8081C210.083 20.1445 212.95 23.0537 217.085 23.0537C221.165 23.0537 224.087 20.1445 224.087 15.8081ZM214.273 15.8081C214.273 13.3929 215.376 12.0206 217.085 12.0206C218.794 12.0206 219.897 13.3929 219.897 15.8081C219.897 18.2233 218.794 19.5956 217.085 19.5956C215.376 19.5956 214.273 18.2233 214.273 15.8081Z" fill="#818898"/>
<path d="M230.318 3.78699H226.072V22.7792H230.318V3.78699Z" fill="#818898"/>
</g>
<g clip-path="url(#clip2_610_54175)">
<path d="M271.165 9.06586C268.794 9.06586 267.626 11.1585 267.626 13.9604V20.9831H264.264V6.19295H267.555V10.0235H267.626C268.334 7.64714 269.714 5.76733 271.872 5.76733C273.394 5.76733 274.031 6.29935 274.031 6.29935L272.509 9.3496C272.509 9.3496 272.049 9.06586 271.165 9.06586ZM311.611 11.123V21.0186H308.356V12.3289C308.356 9.84615 307.577 8.53384 305.595 8.53384C303.543 8.53384 302.552 10.2008 302.552 13.393V21.0186H299.297V12.3289C299.297 9.95256 298.518 8.53384 296.572 8.53384C294.307 8.53384 293.458 10.52 293.458 13.393V21.0186H290.167V6.19295H293.458V9.56241H293.493C293.989 7.25699 295.404 5.8028 297.775 5.8028C300.111 5.8028 301.632 7.07965 302.234 9.31413C302.8 7.15059 304.251 5.8028 306.516 5.8028C309.594 5.8028 311.611 7.75354 311.611 11.123ZM280.613 5.76733C277.57 5.76733 275.623 7.18605 274.703 9.77522L277.499 10.8038C277.994 9.2432 279.056 8.3565 280.684 8.3565C282.488 8.3565 283.585 9.17226 283.585 10.3782C283.585 11.6196 282.736 11.9033 280.825 12.2225C278.702 12.5772 273.606 12.6836 273.606 16.9752C273.606 19.4934 275.694 21.3732 278.844 21.3732C281.214 21.3732 282.842 20.4156 283.585 18.6067H283.621V21.0186H286.876V11.9033C286.841 7.89541 284.859 5.76733 280.613 5.76733ZM283.656 14.0314C283.656 17.1526 282.134 19.1388 279.657 19.1388C277.923 19.1388 276.897 18.1811 276.897 16.7624C276.897 15.4501 277.959 14.5279 280.011 14.1378C282.099 13.7476 283.161 13.2865 283.656 12.1161V14.0314ZM323.218 5.8028C320.741 5.8028 319.078 7.18605 318.37 9.2432V6.19295H314.902V26.6934H318.335V17.9683H318.37C319.148 20.2028 320.741 21.4442 323.218 21.4442C327.181 21.4442 330.012 18.1811 330.012 13.5703C330.012 8.95945 327.181 5.8028 323.218 5.8028ZM322.369 18.6777C319.644 18.6777 318.122 16.6915 318.122 13.6058C318.122 10.52 319.821 8.53384 322.369 8.53384C324.916 8.53384 326.615 10.6264 326.615 13.6058C326.615 16.5851 324.916 18.6777 322.369 18.6777Z" fill="#818898"/>
<path d="M364.018 20.9121V21.0185H350.607V20.9121C352.553 19.8126 353.862 18.7131 355.065 17.5427H360.585L364.018 20.9121ZM360.692 3.4264L357.295 0.0924072H357.188C357.188 0.0924072 357.259 6.2993 351.527 11.9742C345.936 17.5072 339.389 17.5427 339.389 17.5427V17.6491L342.857 21.054C342.857 21.054 349.333 21.1249 355.03 15.4855C360.727 9.88157 360.692 3.4264 360.692 3.4264Z" fill="#818898"/>
</g>
<g clip-path="url(#clip3_610_54175)">
<path d="M397.965 21.5237V5.287H402.306V7.46659C403.189 5.87475 404.906 4.89516 406.722 4.99312C408.61 4.94414 410.352 5.94822 411.235 7.58904C412.952 5.80128 414.252 4.99312 416.288 4.99312C419.942 4.99312 422.003 7.05026 422.003 10.8217V21.5237H417.342V12.7319C417.342 10.4543 416.852 9.42577 415.061 9.42577C413.246 9.42577 412.265 10.5278 412.265 12.7319V21.5237H407.58V12.7319C407.58 10.4543 407.089 9.42577 405.299 9.42577C403.484 9.42577 402.503 10.5278 402.503 12.7319V21.5237H397.965ZM427.522 7.41761C430.833 4.03802 436.278 3.96455 439.663 7.27067C443.048 10.5768 443.122 16.0135 439.811 19.3931C439.001 20.2258 438.02 20.887 436.941 21.3278C435.886 21.7686 434.733 21.989 433.58 21.9645C431.25 22.038 428.993 21.0829 427.424 19.3686C425.878 17.7523 425.02 15.6217 425.044 13.3686C425.044 11.1401 425.927 8.98496 427.522 7.41761ZM433.605 17.4339C435.812 17.5319 437.701 15.8176 437.799 13.589C437.897 11.3605 436.18 9.49924 433.948 9.40128C431.741 9.30332 429.852 11.0176 429.754 13.2462C429.754 13.3197 429.754 13.3686 429.754 13.4421C429.729 15.5972 431.446 17.385 433.605 17.4339ZM445.256 21.5237V5.287H449.794L449.745 7.46659C450.701 5.82577 452.516 4.87067 454.405 4.99312C457.766 4.99312 459.949 7.09924 459.949 10.8217V21.5237H455.165V12.7319C455.165 10.4543 454.675 9.42577 452.835 9.42577C450.947 9.42577 449.965 10.5278 449.965 12.7319V21.5237H445.256ZM480.258 7.39312C483.594 4.01353 489.015 3.96455 492.4 7.27067C495.785 10.5768 495.858 16.0135 492.547 19.3931C491.738 20.2258 490.756 20.887 489.677 21.3278C488.622 21.7686 487.47 21.989 486.317 21.9645C483.987 22.038 481.73 21.0829 480.16 19.3686C478.615 17.7523 477.756 15.6217 477.781 13.3686C477.781 11.1156 478.664 8.98496 480.258 7.39312ZM486.366 17.4094C488.573 17.5074 490.462 15.7931 490.56 13.5645C490.658 11.3605 488.941 9.47475 486.709 9.37679C484.502 9.27883 482.613 10.9931 482.515 13.2217C482.515 13.2952 482.515 13.3441 482.515 13.4176C482.466 15.5972 484.207 17.3605 486.366 17.4094ZM463.432 21.5237V18.1441L470.128 9.47475H463.432V5.287H475.524V9.10741L469.613 17.3115H475.647V21.4992H463.432V21.5237Z" fill="#818898"/>
</g>
<defs>
<clipPath id="clip0_610_54175">
<rect width="88.3045" height="26.7857" fill="white"/>
</clipPath>
<clipPath id="clip1_610_54175">
<rect width="108.066" height="23.0542" fill="white" transform="translate(122.251 1.86572)"/>
</clipPath>
<clipPath id="clip2_610_54175">
<rect width="99.7537" height="26.601" fill="white" transform="translate(264.264 0.0924072)"/>
</clipPath>
<clipPath id="clip3_610_54175">
<rect width="97.035" height="17.1429" fill="white" transform="translate(397.965 4.82141)"/>
</clipPath>
</defs>
</svg>
