<svg width="52" height="53" viewBox="0 0 52 53" fill="none" xmlns="http://www.w3.org/2000/svg">
<g filter="url(#filter0_i_728_57046)">
<rect y="0.758789" width="52" height="52" rx="14" fill="#5F57FF"/>
<rect x="0.5" y="1.25879" width="51" height="51" rx="13.5" stroke="#A19DF1"/>
<path d="M25.9998 30.5L22.4998 27M25.9998 30.5C27.6295 29.8802 29.1929 29.0985 30.6665 28.1666M25.9998 30.5V36.3333C25.9998 36.3333 29.5348 35.6916 30.6665 34C31.9265 32.11 30.6665 28.1666 30.6665 28.1666M22.4998 27C23.1207 25.3893 23.9024 23.8454 24.8332 22.3916C26.1925 20.2181 28.0854 18.4285 30.3317 17.1931C32.5779 15.9576 35.1029 15.3174 37.6665 15.3333C37.6665 18.5066 36.7565 24.0833 30.6665 28.1666M22.4998 27H16.6665C16.6665 27 17.3082 23.465 18.9998 22.3333C20.8898 21.0733 24.8332 22.3333 24.8332 22.3333M17.2498 32.25C15.4998 33.72 14.9165 38.0833 14.9165 38.0833C14.9165 38.0833 19.2798 37.5 20.7498 35.75C21.5782 34.77 21.5665 33.265 20.6448 32.355C20.1914 31.9221 19.594 31.672 18.9674 31.6527C18.3409 31.6333 17.7292 31.846 17.2498 32.25Z" stroke="white" stroke-width="2" stroke-linecap="round" stroke-linejoin="round"/>
</g>
<defs>
<filter id="filter0_i_728_57046" x="0" y="-3.24121" width="52" height="56" filterUnits="userSpaceOnUse" color-interpolation-filters="sRGB">
<feFlood flood-opacity="0" result="BackgroundImageFix"/>
<feBlend mode="normal" in="SourceGraphic" in2="BackgroundImageFix" result="shape"/>
<feColorMatrix in="SourceAlpha" type="matrix" values="0 0 0 0 0 0 0 0 0 0 0 0 0 0 0 0 0 0 127 0" result="hardAlpha"/>
<feOffset dy="-4"/>
<feGaussianBlur stdDeviation="4"/>
<feComposite in2="hardAlpha" operator="arithmetic" k2="-1" k3="1"/>
<feColorMatrix type="matrix" values="0 0 0 0 1 0 0 0 0 1 0 0 0 0 1 0 0 0 0.64 0"/>
<feBlend mode="normal" in2="shape" result="effect1_innerShadow_728_57046"/>
</filter>
</defs>
</svg>
