<svg width="20" height="20" viewBox="0 0 20 20" fill="none" xmlns="http://www.w3.org/2000/svg">
<path d="M11.5 2.5H5.5C5.10218 2.5 4.72064 2.65804 4.43934 2.93934C4.15804 3.22064 4 3.60218 4 4V16C4 16.3978 4.15804 16.7794 4.43934 17.0607C4.72064 17.342 5.10218 17.5 5.5 17.5H14.5C14.8978 17.5 15.2794 17.342 15.5607 17.0607C15.842 16.7794 16 16.3978 16 16V7L11.5 2.5Z" stroke="#818898" stroke-width="1.5" stroke-linecap="round" stroke-linejoin="round"/>
<path d="M13 13.75H7" stroke="#818898" stroke-width="1.5" stroke-linecap="round" stroke-linejoin="round"/>
<path d="M13 10.75H7" stroke="#818898" stroke-width="1.5" stroke-linecap="round" stroke-linejoin="round"/>
<path d="M8.5 7.75H7.75H7" stroke="#818898" stroke-width="1.5" stroke-linecap="round" stroke-linejoin="round"/>
<path d="M11.5 2.5V7H16" stroke="#818898" stroke-width="1.5" stroke-linecap="round" stroke-linejoin="round"/>
</svg>
