<svg width="109" height="28" viewBox="0 0 109 28" fill="none" xmlns="http://www.w3.org/2000/svg">
<g clip-path="url(#clip0_660_5773)">
<mask id="mask0_660_5773" style="mask-type:luminance" maskUnits="userSpaceOnUse" x="0" y="0" width="109" height="28">
<path d="M108.031 0.785645H0V27.9731H108.031V0.785645Z" fill="white"/>
</mask>
<g mask="url(#mask0_660_5773)">
<path d="M3.7628 18.576C3.89136 18.874 4.0309 19.1657 4.18299 19.448C4.2943 19.448 4.40405 19.4386 4.51537 19.4386C5.28831 19.4367 6.05395 19.5881 6.76795 19.8843C7.48195 20.1804 8.13013 20.6152 8.67493 21.1637L8.71728 21.2091C8.83014 20.9049 8.95713 20.6069 9.09509 20.3152C7.84591 19.1681 6.21116 18.5327 4.51537 18.5352C4.26397 18.5354 4.01274 18.5489 3.7628 18.576ZM3.12624 16.5373C3.18739 16.8352 3.26265 17.1285 3.34888 17.4171C3.73512 17.3604 4.125 17.3321 4.51537 17.3324C6.4124 17.3263 8.24856 18.0019 9.68936 19.2363C9.84614 18.9775 10.0202 18.7266 10.2021 18.4835C8.60722 17.1555 6.59672 16.43 4.52165 16.4337C4.05751 16.4347 3.59414 16.4713 3.13565 16.5435L3.12624 16.5373ZM4.8509 20.5207C5.11938 20.9014 5.41214 21.2644 5.72734 21.6075C6.66214 21.918 7.44581 22.5691 7.92237 23.4314C7.98975 23.4737 8.0572 23.516 8.12615 23.5568C8.18229 23.1768 8.25816 22.7999 8.35352 22.4277C7.94087 21.8795 7.41555 21.4262 6.81298 21.0984C6.2104 20.7705 5.54455 20.5757 4.8603 20.527L4.8509 20.5207ZM4.51224 14.4044C3.97486 14.4043 3.43821 14.4442 2.90674 14.5236C2.90674 14.8279 2.92555 15.1321 2.95534 15.4301C3.47039 15.3495 3.99093 15.3091 4.51224 15.3093C6.85128 15.3028 9.11764 16.1219 10.9123 17.6225C11.1161 17.4014 11.3294 17.1865 11.552 16.9827C9.58786 15.3175 7.09629 14.4043 4.52165 14.406L4.51224 14.4044Z" fill="#818898"/>
<path d="M14.9435 24.9715C15.257 24.9323 15.5549 24.8821 15.8544 24.8146C15.8875 24.2735 16.0617 23.7504 16.3596 23.2975C16.6576 22.8446 17.0689 22.4776 17.5527 22.233C18.0364 21.9885 18.5758 21.8749 19.1171 21.9036C19.6584 21.9322 20.1827 22.1021 20.638 22.3964C20.8679 22.1926 21.09 21.9792 21.3043 21.7566C20.7084 21.3247 20.0052 21.0653 19.2716 21.0067C18.5381 20.9481 17.8026 21.0925 17.1457 21.4243C16.4888 21.7559 15.9358 22.262 15.5474 22.8872C15.1589 23.5123 14.95 24.2323 14.9435 24.9684V24.9715ZM12.4803 25.0029C12.7782 25.0327 13.0809 25.0484 13.385 25.0546C13.385 25.0405 13.385 25.0248 13.385 25.0107C13.3848 23.9757 13.673 22.9611 14.2172 22.0807C14.7612 21.2003 15.5399 20.489 16.4656 20.0264C17.3913 19.564 18.4276 19.3686 19.4581 19.4623C20.4886 19.556 21.4727 19.935 22.2999 20.5568C22.4755 20.3111 22.6401 20.0571 22.7938 19.7946C21.83 19.0844 20.6882 18.6554 19.4953 18.5554C18.3023 18.4553 17.1051 18.6879 16.0364 19.2276C14.9678 19.7673 14.0697 20.5927 13.4419 21.6123C12.8141 22.6318 12.4813 23.8054 12.4803 25.0029ZM18.9541 14.0956C16.3102 14.095 13.756 15.0546 11.7662 16.7959C9.77647 18.5373 8.48637 20.942 8.13574 23.5632C8.4133 23.72 8.69707 23.8769 8.99025 24.0211C9.15821 22.3453 9.74575 20.7388 10.6986 19.3502C11.6515 17.9616 12.939 16.8357 14.442 16.0765C15.945 15.3173 17.6151 14.9493 19.298 15.0066C20.9808 15.0638 22.622 15.5444 24.07 16.404C24.1296 16.0904 24.1782 15.7768 24.2095 15.4458C22.6 14.5586 20.7918 14.094 18.9541 14.0956ZM10.174 24.4963C10.4656 24.5946 10.7635 24.6814 11.0677 24.7567C11.1121 23.337 11.5383 21.9556 12.3015 20.758C13.0647 19.5602 14.1366 18.5905 15.4044 17.9509C16.6722 17.3112 18.089 17.0252 19.5055 17.1231C20.9221 17.221 22.286 17.6991 23.4538 18.5071C23.573 18.2217 23.6776 17.931 23.7674 17.6351C22.4759 16.7925 20.9857 16.3041 19.4461 16.2188C17.9065 16.1336 16.3715 16.4544 14.9949 17.1493C13.6183 17.8441 12.4484 18.8886 11.6023 20.178C10.7562 21.4674 10.2636 22.9566 10.174 24.4963Z" fill="#818898"/>
<path d="M13.5903 0.785645C10.9024 0.785645 8.27485 1.5829 6.03993 3.0766C3.80502 4.57031 2.06312 6.69336 1.03451 9.1773C0.00588814 11.6612 -0.263245 14.3945 0.26114 17.0314C0.785521 19.6683 2.07987 22.0905 3.98051 23.9916C5.88115 25.8928 8.30269 27.1875 10.939 27.7119C13.5752 28.2365 16.3078 27.9673 18.7911 26.9384C21.2744 25.9095 23.3969 24.1672 24.8902 21.9317C26.3835 19.6962 27.1806 17.068 27.1806 14.3794C27.1806 10.7741 25.7487 7.31649 23.2001 4.76716C20.6514 2.21784 17.1947 0.785645 13.5903 0.785645ZM21.9596 22.7508C19.9762 24.7422 17.3453 25.9573 14.5436 26.1759L13.5903 27.8273L12.637 26.1759C9.835 25.9559 7.2035 24.7427 5.2162 22.7546C3.22891 20.7664 2.01635 18.1341 1.79678 15.3313L0.156793 14.3794L1.80463 13.4274C2.02368 10.6256 3.23524 7.9938 5.22132 6.00581C7.20735 4.01779 9.83754 2.80402 12.6386 2.58288L13.5903 0.942471L14.542 2.59072C17.3432 2.80983 19.9742 4.0217 21.9618 6.00828C23.9493 7.99484 25.1627 10.6257 25.3838 13.4274L27.0316 14.3794L25.3838 15.3313C25.1656 18.1343 23.9508 20.7665 21.9596 22.7508Z" fill="#818898"/>
<path d="M37.2022 6.68066H39.3862L45.5009 20.8704H42.6113L41.2896 17.624H35.1388L33.8563 20.8704H31.0342L37.2022 6.68066ZM40.4085 15.4629L38.2244 9.68703L35.9996 15.4598L40.4085 15.4629Z" fill="#818898"/>
<path d="M59.6826 19.8292C57.9329 20.7639 55.9762 21.2312 53.8125 21.2312C52.784 21.2431 51.7622 21.0639 50.799 20.7027C49.9143 20.3719 49.1084 19.8596 48.4334 19.1986C47.7584 18.5378 47.229 17.7429 46.8793 16.8652C46.4957 15.9028 46.3049 14.8744 46.3181 13.8384C46.3044 12.779 46.4949 11.7268 46.8793 10.7395C47.2284 9.84954 47.7574 9.04124 48.4331 8.36514C49.108 7.70166 49.9138 7.18623 50.799 6.85177C51.7622 6.48853 52.7848 6.30823 53.814 6.32013C54.8425 6.31366 55.8671 6.44553 56.8604 6.7122C57.8056 6.97156 58.6771 7.44848 59.4051 8.10484L57.5409 9.98829C57.0672 9.53617 56.5044 9.18789 55.8883 8.96582C55.2307 8.724 54.5351 8.60179 53.8344 8.60513C53.1497 8.595 52.4705 8.72806 51.8401 8.99562C51.26 9.24697 50.7385 9.61596 50.3083 10.0793C49.8762 10.5473 49.5391 11.0948 49.3158 11.6914C49.0784 12.3262 48.9594 12.9992 48.9646 13.6769C48.9574 14.3931 49.0762 15.105 49.3158 15.7799C49.5334 16.3947 49.8707 16.9603 50.3083 17.4439C50.7377 17.9116 51.2592 18.2854 51.8401 18.5416C52.4685 18.8166 53.1486 18.9535 53.8344 18.9431C54.4432 18.9459 55.0506 18.8854 55.6469 18.7628C56.1776 18.6562 56.6881 18.4667 57.1599 18.2013V14.8594H54.2484V12.5744H59.6779L59.6826 19.8292Z" fill="#818898"/>
<path d="M62.6079 6.68066H65.1337V20.8704H62.6079V6.68066Z" fill="#818898"/>
<path d="M77.9761 10.0087C77.4533 9.44727 76.9494 9.07292 76.4632 8.88581C75.9939 8.70243 75.4946 8.60727 74.9907 8.60511C74.3065 8.59518 73.6268 8.72817 72.9968 8.99561C72.4164 9.24696 71.8949 9.61595 71.4649 10.0792C71.0329 10.5473 70.6957 11.0948 70.4721 11.6914C70.2356 12.3263 70.1166 12.9992 70.1225 13.6769C70.1146 14.393 70.2336 15.1049 70.4721 15.7799C70.6898 16.3947 71.027 16.9603 71.4649 17.4439C71.8942 17.9116 72.4158 18.2854 72.9968 18.5416C73.6248 18.8164 74.3052 18.9534 74.9907 18.9431C75.5744 18.9428 76.1495 18.8036 76.6684 18.5369C77.2638 18.2164 77.7801 17.7682 78.1813 17.2243L80.2655 18.7063C79.6708 19.5497 78.8578 20.215 77.9134 20.6305C76.9841 21.0332 75.9802 21.2378 74.9672 21.2312C73.9392 21.2429 72.9184 21.0637 71.9557 20.7027C71.0708 20.3723 70.2643 19.8602 69.5892 19.1992C68.9141 18.5382 68.3854 17.7431 68.0357 16.8651C67.6514 15.903 67.4606 14.8744 67.4743 13.8384C67.4632 12.7783 67.6567 11.7259 68.0455 10.7395C68.3932 9.84933 68.9219 9.0409 69.5977 8.36513C70.2722 7.70217 71.0773 7.18679 71.9616 6.85176C72.9249 6.48866 73.9477 6.30836 74.977 6.32012C75.8933 6.31162 76.803 6.4854 77.6513 6.83138C78.5408 7.22333 79.327 7.8172 79.9472 8.5659L77.9761 10.0087Z" fill="#818898"/>
<path d="M87.7554 6.68066H89.9395L96.0541 20.8704H93.1694L91.8472 17.624H85.6902L84.4079 20.8704H81.5859L87.7554 6.68066ZM90.9597 15.4629L88.7762 9.68703L86.5463 15.4598L90.9597 15.4629Z" fill="#818898"/>
<path d="M98.0322 6.68069H102.802C103.465 6.67916 104.127 6.74644 104.776 6.88143C105.37 6.99987 105.938 7.22745 106.449 7.55264C106.932 7.87072 107.328 8.30474 107.601 8.8151C107.905 9.42754 108.051 10.1062 108.026 10.7895C108.026 11.6855 107.873 12.407 107.567 12.9537C107.276 13.4837 106.846 13.9241 106.323 14.2272C105.762 14.542 105.148 14.7494 104.511 14.8388C103.798 14.9463 103.078 14.9987 102.357 14.9957H100.554V20.8673H98.0322V6.68069ZM102.081 12.8346C102.441 12.8346 102.814 12.8205 103.203 12.7938C103.571 12.7695 103.932 12.6864 104.274 12.5476C104.59 12.4226 104.867 12.2152 105.075 11.947C105.302 11.6179 105.412 11.2228 105.389 10.824C105.408 10.4526 105.31 10.0844 105.108 9.77176C104.923 9.51328 104.675 9.3065 104.387 9.17108C104.077 9.02619 103.745 8.9345 103.404 8.8998C103.059 8.86039 102.711 8.84046 102.363 8.84019H100.56V12.8346H102.081Z" fill="#818898"/>
</g>
</g>
<defs>
<clipPath id="clip0_660_5773">
<rect width="108.031" height="27.1875" fill="white" transform="translate(0 0.785645)"/>
</clipPath>
</defs>
</svg>
