<svg width="113" height="25" viewBox="0 0 113 25" fill="none" xmlns="http://www.w3.org/2000/svg">
<path d="M14.1599 10.683C14.5823 10.7358 14.9884 10.8769 15.351 11.0968C15.7137 11.3167 16.0245 11.6103 16.2627 11.958C16.7481 12.8926 16.9715 13.9379 16.9097 14.9861C16.986 17.477 16.0885 19.9018 14.4026 21.7595C13.5725 22.6216 12.5672 23.3014 11.4523 23.7546C10.3373 24.2077 9.13795 24.4239 7.93242 24.3892C6.90689 24.4041 5.889 24.2143 4.93998 23.8314C4.01395 23.4887 3.16296 22.9747 2.43272 22.3174C1.67351 21.6665 1.04286 20.883 0.572599 20.0064C0.185532 19.2396 -0.00861091 18.3923 0.00648314 17.5361C-0.0424424 16.7661 0.186744 16.004 0.653445 15.3845C0.890092 15.0925 1.18382 14.8504 1.51728 14.6724C1.85073 14.4945 2.21707 14.3843 2.59451 14.3486C2.43801 14.0119 2.30295 13.6659 2.19009 13.3126C2.12971 13.1329 2.10239 12.944 2.10924 12.7549C2.12685 12.4603 2.20813 12.1728 2.34762 11.9117C2.48711 11.6506 2.6816 11.4218 2.91799 11.2408C3.08549 11.0098 3.30297 10.8185 3.5548 10.6807C3.80654 10.5429 4.0863 10.4619 4.37378 10.4439H5.02083L5.74873 10.8423C4.93998 8.45175 4.29293 6.61886 3.88852 5.34394C3.58733 4.46718 3.39709 3.5572 3.3224 2.63456C3.28528 2.06315 3.45747 1.49764 3.80767 1.04075C4.00398 0.812513 4.25407 0.635029 4.536 0.523906C4.81793 0.412782 5.12328 0.371405 5.42525 0.403241C6.71926 0.403241 7.12359 1.43918 9.30728 7.33609C9.54991 8.05323 9.79254 8.69074 9.87348 9.08917C9.95433 9.48768 10.197 8.29231 10.4396 7.6548C12.0571 3.11262 12.7041 0.881393 14.5643 0.881393C14.8208 0.871157 15.0764 0.915742 15.3138 1.01203C15.5511 1.10832 15.7644 1.25406 15.9392 1.43918C16.291 1.8645 16.4645 2.40606 16.4245 2.95327C16.3553 3.85075 16.1649 4.73514 15.8584 5.58292L14.1599 10.683ZM2.27102 17.3767C2.43272 17.5361 2.5945 17.8548 2.91799 18.1736C3.24155 18.4923 4.29293 19.6876 4.93998 19.6876L5.50609 19.5283C5.64645 19.4057 5.73337 19.2344 5.74873 19.0501C5.70952 18.7622 5.59839 18.4884 5.42525 18.2532C5.13464 17.8049 4.81021 17.3787 4.45472 16.9782L3.40325 15.7033C3.2007 15.5243 2.94601 15.4127 2.67536 15.3845C2.46751 15.3875 2.26348 15.4397 2.08044 15.5368C1.89749 15.6339 1.74091 15.773 1.62398 15.9423C1.30778 16.3857 1.13828 16.9145 1.13871 17.4564C1.13741 17.9522 1.24793 18.4422 1.46219 18.8908C1.72408 19.4812 2.04939 20.0422 2.43272 20.5642C3.03978 21.4358 3.8795 22.1252 4.85905 22.5564C5.86705 23.0375 6.97412 23.2829 8.09412 23.2736C9.12042 23.2938 10.1386 23.0898 11.0755 22.6766C12.0123 22.2632 12.8447 21.6507 13.5129 20.883C14.9877 19.238 15.7687 17.1 15.6966 14.9064C15.7345 14.3173 15.6799 13.726 15.5349 13.1533C15.4731 12.7941 15.3042 12.4612 15.0496 12.197C14.2305 11.7124 13.3244 11.3877 12.3807 11.2408C11.0291 10.9247 9.64499 10.7643 8.2559 10.7626C7.93962 10.732 7.6229 10.8171 7.36622 11.0017C7.20452 11.0814 7.12359 11.3205 7.12359 11.6392C7.1307 12.0083 7.26143 12.3647 7.49547 12.6529C7.72952 12.9412 8.05378 13.1451 8.41768 13.2329C9.71196 13.6924 11.0889 13.8823 12.4615 13.7908H13.1894C13.2648 13.7845 13.3405 13.7956 13.4108 13.8232C13.481 13.8509 13.5437 13.8944 13.5938 13.9501C13.6523 14.0149 13.6969 14.0906 13.7246 14.1728C13.7525 14.255 13.763 14.3419 13.7555 14.4283C13.3939 14.7117 12.9828 14.9277 12.5423 15.0658C12.088 15.2293 11.6538 15.4432 11.2483 15.7033C10.588 16.1668 10.0364 16.7647 9.63085 17.4564C9.25193 17.999 9.02847 18.6321 8.9838 19.2892C8.9916 19.7584 9.10195 20.2204 9.30728 20.6439C9.41537 20.9281 9.49656 21.2216 9.54991 21.5204V21.8392C9.30285 21.7953 9.07055 21.6925 8.87311 21.5397C8.67576 21.3869 8.51935 21.1888 8.41768 20.9626C8.09351 20.2906 7.92765 19.5552 7.93242 18.8111L7.68979 18.9705H6.8001C6.8001 19.1298 6.88095 19.2096 6.88095 19.3689V19.608C6.87636 19.8041 6.8309 19.9973 6.74736 20.1755C6.66391 20.3537 6.5442 20.5131 6.39569 20.6439C6.24995 20.7904 6.0723 20.9025 5.87616 20.9716C5.68002 21.0405 5.47053 21.0647 5.26346 21.0424C4.46478 20.9979 3.7132 20.656 3.16062 20.086C2.53387 19.5931 2.12755 18.8781 2.02839 18.0939C2.02839 17.9345 2.02839 17.8548 2.10924 17.7752C2.19009 17.6955 2.19009 17.4564 2.27102 17.3767ZM7.20452 17.7752C7.31088 17.7785 7.41671 17.7588 7.51447 17.7175C7.61232 17.6762 7.69976 17.6143 7.77064 17.5361C7.91637 17.3846 8.00242 17.1868 8.01327 16.9782C7.93112 16.4774 7.76725 15.9931 7.528 15.5439C7.20452 14.747 6.80011 14.0299 6.39569 13.2329C6.13406 12.7894 5.80702 12.3865 5.42525 12.0376C5.30076 11.908 5.15008 11.8056 4.98284 11.737C4.81567 11.6683 4.63576 11.635 4.45472 11.6392C4.17409 11.6894 3.91827 11.8294 3.72682 12.0376C3.60745 12.136 3.50995 12.2574 3.44038 12.3946C3.37081 12.5317 3.33064 12.6815 3.3224 12.8345C3.32796 13.2647 3.46935 13.6824 3.72682 14.0299C4.0176 14.64 4.3992 15.2041 4.85905 15.7033C5.23336 16.2763 5.69746 16.7873 6.23399 17.2173C6.47446 17.5173 6.8211 17.7165 7.20452 17.7752ZM8.90295 9.8064L7.04274 4.70643C6.7838 3.82247 6.43143 2.96784 5.99136 2.15641C5.9132 2.00529 5.79852 1.87543 5.65755 1.77819C5.5165 1.68086 5.35342 1.61926 5.18261 1.59862C5.07548 1.5889 4.96765 1.60573 4.86876 1.64746C4.76996 1.68918 4.68321 1.75459 4.61641 1.83761C4.52863 1.93468 4.46183 2.04832 4.4201 2.17158C4.37838 2.29494 4.36268 2.42532 4.37378 2.55484C4.443 3.45233 4.63342 4.33663 4.93998 5.1845C5.34431 6.37988 5.91042 8.05323 6.71926 10.0455L6.96189 9.8064H8.90295ZM10.7631 14.8267L9.38821 14.6674L8.17505 14.3486L8.66032 15.3845C8.80458 15.7177 8.91301 16.065 8.9838 16.4205L9.79254 15.5439C10.075 15.2552 10.4027 15.0131 10.7631 14.8267ZM12.9468 10.3642C13.6747 8.37203 14.3217 6.77831 14.726 5.50329C14.9904 4.72569 15.1801 3.92527 15.2922 3.11262C15.328 2.83676 15.2712 2.55692 15.1305 2.31576C15.0596 2.2376 14.9721 2.17566 14.8743 2.13437C14.7765 2.09299 14.6707 2.07339 14.5643 2.07668C14.2408 2.07668 13.9173 2.31576 13.5938 2.87354C13.1577 3.6312 12.8052 4.43265 12.5423 5.26421L10.844 10.0455L12.9468 10.3642Z" fill="#818898"/>
<path d="M32.6792 4.54675L39.0685 20.0858H35.7525L34.2159 16.2608H27.5031L26.0473 20.0858H22.8931L29.2015 4.54675H32.6792ZM28.4736 13.8702H33.2453L30.8999 8.053H30.819L28.4736 13.8702Z" fill="#818898"/>
<path d="M42.9504 20.0863H39.958V9.24884H42.9504V11.0019C43.2692 10.3486 43.7774 9.80308 44.411 9.43423C45.0443 9.06546 45.7747 8.88997 46.5094 8.93004C49.5013 8.93004 50.5527 10.9223 50.5527 13.3129V20.0863H47.5608V13.8707C47.5608 12.1972 46.9137 11.241 45.458 11.241C44.0018 11.241 42.9504 12.4363 42.9504 14.2691V20.0863Z" fill="#818898"/>
<path d="M57.1057 16.261C56.2772 16.2975 55.4505 16.1618 54.6794 15.8626C54.5597 15.961 54.4625 16.0824 54.3922 16.2195C54.3228 16.3566 54.2829 16.5064 54.2743 16.6594C54.2743 17.1376 54.5978 17.536 55.4072 17.536H59.774C62.2004 17.536 63.4946 18.811 63.4946 20.5642C63.4946 22.3173 60.2598 24.3892 56.8628 24.3892C53.4658 24.3892 51.2017 23.5923 51.2017 21.6001C51.2017 19.6079 52.0908 19.6876 53.4658 19.5283C53.0173 19.4191 52.62 19.1619 52.3407 18.7995C52.0613 18.437 51.9156 17.9911 51.9295 17.536C51.9295 16.5798 52.5766 15.8626 53.7087 15.3845C53.2394 15.0993 52.8516 14.7007 52.5827 14.2265C52.3138 13.7524 52.1724 13.2183 52.1715 12.6751C52.1715 10.3642 54.1936 8.92982 57.1057 8.92982C58.3375 8.88289 59.5537 9.2173 60.5834 9.88604C60.9182 9.43053 61.3546 9.05699 61.8594 8.79441C62.3643 8.53191 62.9238 8.3873 63.4946 8.37195V10.6829C62.8596 10.6721 62.2281 10.7803 61.6348 11.0017C61.9635 11.4987 62.1327 12.0819 62.1197 12.6751C62.1197 14.9064 60.0169 16.261 57.1057 16.261ZM56.8628 22.5564C59.0462 22.5564 60.6641 22.0782 60.6641 21.0423C60.6641 20.0063 60.0169 20.0861 59.0462 20.0861H55.4072C54.5978 20.0861 53.9516 20.4048 53.9516 21.122C53.9516 21.8391 55.0836 22.5564 56.8628 22.5564ZM57.1057 10.6829C56.8472 10.6819 56.5913 10.7341 56.3545 10.836C56.1168 10.9379 55.9042 11.0873 55.729 11.2748C55.5546 11.4622 55.4211 11.6836 55.3378 11.9247C55.2545 12.1658 55.2224 12.4214 55.245 12.6751C55.2215 12.9252 55.2528 13.1774 55.3369 13.4146C55.4211 13.6517 55.5555 13.8683 55.7325 14.0496C55.9086 14.231 56.1228 14.3729 56.3597 14.4657C56.5965 14.5585 56.8506 14.6001 57.1057 14.5876C57.3668 14.6123 57.6296 14.5798 57.8769 14.4924C58.1241 14.405 58.3479 14.2649 58.5336 14.0821C58.7192 13.8994 58.8615 13.6785 58.9499 13.4352C59.0384 13.192 59.0714 12.9324 59.0462 12.6751C59.0844 12.4116 59.0618 12.143 58.9786 11.8897C58.8962 11.6364 58.7556 11.405 58.5683 11.213C58.3817 11.021 58.1527 10.8735 57.8994 10.7816C57.6453 10.6898 57.3737 10.656 57.1057 10.6829Z" fill="#818898"/>
<path d="M74.8175 16.5001C74.2511 18.8908 72.3912 20.3251 69.5606 20.3251C66.7292 20.3251 63.7373 18.1735 63.7373 14.8267C63.7373 11.4798 66.1636 8.92981 69.4791 8.92981C72.7955 8.92981 74.8982 11.4001 74.8982 14.3486V15.3845H66.6485C66.6902 16.1313 67.0268 16.8326 67.5854 17.3387C68.1449 17.8448 68.8823 18.1158 69.6413 18.0939C70.2477 18.1713 70.8619 18.0277 71.3685 17.6902C71.8742 17.3526 72.2385 16.8444 72.3912 16.2611L74.8175 16.5001ZM71.987 13.5517C71.987 12.8965 71.7224 12.2682 71.2522 11.8049C70.7821 11.3416 70.1445 11.0814 69.4791 11.0814C68.7851 11.0594 68.1094 11.3052 67.5958 11.7665C67.0823 12.2278 66.7717 12.8682 66.7292 13.5517H71.987Z" fill="#818898"/>
<path d="M79.1031 4.54675V20.0858H76.1104V4.54675H79.1031Z" fill="#818898"/>
<path d="M84.0378 4.54675V17.5358H89.9418V20.0858H80.9644V4.54675H84.0378Z" fill="#818898"/>
<path d="M90.668 4.54675H93.7414V7.41549H90.668V4.54675ZM93.7414 9.24829V20.0858H90.7486V9.24829H93.7414Z" fill="#818898"/>
<path d="M97.3015 16.3407C97.4638 17.6955 98.4336 18.333 99.9708 18.333C101.507 18.333 101.993 17.9345 101.993 17.2173C101.993 16.5001 101.426 16.1016 100.375 15.9423L98.5958 15.6236C96.2502 15.3048 94.9559 14.4282 94.9559 12.4361C94.9559 10.4439 96.736 8.92981 99.5665 8.92981C102.397 8.92981 104.419 10.2845 104.581 12.6751H102.154C101.912 11.4798 101.103 10.8423 99.4858 10.8423C97.868 10.8423 97.7873 11.3204 97.7873 12.0376C97.7873 12.7549 98.1109 12.9938 98.9194 13.1533L101.022 13.472C103.368 13.8704 104.743 14.8267 104.743 16.8189C104.743 18.811 102.801 20.2454 99.9708 20.2454C97.1402 20.2454 94.8752 19.0501 94.7139 16.4204L97.3015 16.3407Z" fill="#818898"/>
<path d="M106.36 11.3207H104.742V9.5675L105.552 9.40814C106.603 9.24879 106.845 8.691 107.169 7.7347L107.492 6.2207H109.271V9.24879H112.264V11.3207H109.271V16.6597C109.244 16.8438 109.262 17.0316 109.321 17.2082C109.381 17.3847 109.481 17.5451 109.614 17.6767C109.748 17.8082 109.911 17.9073 110.09 17.9659C110.269 18.0245 110.46 18.0412 110.646 18.0144C111.301 17.9659 111.936 17.7755 112.507 17.4566V19.4488C111.609 20.0692 110.528 20.3777 109.433 20.3253C107.735 20.3253 106.36 19.6082 106.36 17.2972V11.3207Z" fill="#818898"/>
</svg>
