<svg width="20" height="20" viewBox="0 0 20 20" fill="none" xmlns="http://www.w3.org/2000/svg">
<path d="M6.55722 12.8832L5.83333 18.3333L9.657 16.0391C9.78171 15.9643 9.84406 15.9269 9.91063 15.9122C9.96951 15.8993 10.0305 15.8993 10.0894 15.9122C10.1559 15.9269 10.2183 15.9643 10.343 16.0391L14.1667 18.3333L13.4433 12.8809M13.6882 3.54069C13.8169 3.85196 14.064 4.09938 14.375 4.22855L15.4658 4.68036C15.7771 4.8093 16.0244 5.05662 16.1533 5.36791C16.2822 5.6792 16.2822 6.02897 16.1533 6.34026L15.7018 7.43025C15.5728 7.74168 15.5726 8.0918 15.7022 8.40308L16.1529 9.49275C16.2168 9.64693 16.2498 9.81219 16.2498 9.97909C16.2498 10.146 16.2169 10.3113 16.1531 10.4655C16.0892 10.6197 15.9956 10.7598 15.8775 10.8778C15.7595 10.9958 15.6194 11.0894 15.4652 11.1532L14.3752 11.6047C14.064 11.7334 13.8166 11.9804 13.6874 12.2915L13.2356 13.3823C13.1067 13.6936 12.8593 13.9409 12.5481 14.0698C12.2368 14.1988 11.887 14.1988 11.5758 14.0698L10.4858 13.6183C10.1745 13.4897 9.82489 13.49 9.5138 13.6191L8.42306 14.0702C8.11195 14.1989 7.76251 14.1988 7.45148 14.0699C7.14045 13.9411 6.89328 13.6941 6.76426 13.3831L6.31232 12.292C6.18363 11.9807 5.93659 11.7333 5.62553 11.6041L4.53479 11.1523C4.22365 11.0234 3.97641 10.7763 3.84743 10.4652C3.71844 10.1541 3.71827 9.80446 3.84694 9.49322L4.29841 8.40322C4.42703 8.09192 4.42677 7.74228 4.29768 7.43118L3.84686 6.33962C3.78294 6.18544 3.75003 6.02018 3.75 5.85327C3.74997 5.68637 3.78283 5.5211 3.8467 5.3669C3.91057 5.2127 4.0042 5.0726 4.12223 4.9546C4.24026 4.8366 4.38039 4.74301 4.5346 4.67919L5.62456 4.2277C5.93554 4.09911 6.1828 3.85238 6.31206 3.54166L6.76386 2.45088C6.8928 2.13959 7.14011 1.89227 7.45139 1.76333C7.76267 1.63439 8.11242 1.63439 8.4237 1.76333L9.51365 2.21482C9.82494 2.34345 10.1746 2.34318 10.4857 2.21409L11.5769 1.76403C11.8881 1.63516 12.2378 1.63519 12.549 1.76411C12.8602 1.89302 13.1075 2.14027 13.2364 2.45148L13.6884 3.54258L13.6882 3.54069Z" stroke="#5F57FF" stroke-width="2" stroke-linecap="round" stroke-linejoin="round"/>
</svg>
