<svg width="17" height="16" viewBox="0 0 17 16" fill="none" xmlns="http://www.w3.org/2000/svg">
<path d="M13.3 5H3.7C3.03726 5 2.5 5.53726 2.5 6.2V12.2C2.5 12.8627 3.03726 13.4 3.7 13.4H13.3C13.9627 13.4 14.5 12.8627 14.5 12.2V6.2C14.5 5.53726 13.9627 5 13.3 5Z" stroke="#5F57FF" stroke-width="1.5" stroke-linecap="round" stroke-linejoin="round"/>
<path d="M10.9001 13.4V3.79998C10.9001 3.48172 10.7737 3.17649 10.5486 2.95145C10.3236 2.7264 10.0184 2.59998 9.7001 2.59998H7.3001C6.98184 2.59998 6.67661 2.7264 6.45157 2.95145C6.22653 3.17649 6.1001 3.48172 6.1001 3.79998V13.4" stroke="#5F57FF" stroke-width="1.2" stroke-linecap="round" stroke-linejoin="round"/>
</svg>
