<svg width="96" height="97" viewBox="0 0 96 97" fill="none" xmlns="http://www.w3.org/2000/svg">
<rect x="0.5" y="1.23193" width="95" height="95" rx="15.5" fill="#F8FAFB"/>
<rect x="0.5" y="1.23193" width="95" height="95" rx="15.5" stroke="#ECEFF3"/>
<path fill-rule="evenodd" clip-rule="evenodd" d="M42.0118 32.2338C33.8129 32.1132 27 37.9914 27 44.9241C27 48.9259 28.9291 52.3976 32.6634 54.9464C32.6634 54.9464 31.2948 59.3531 31.3142 59.4414C31.3337 59.5299 31.6316 59.7036 31.7352 59.6468C31.8389 59.5901 36.6826 56.7718 36.6826 56.7718C40.1539 57.9344 42.2714 57.6484 42.6328 57.5995C42.6579 57.5962 42.6746 57.5939 42.6826 57.5934C42.3121 56.5351 42.0694 54.8871 42.3458 53.3339C43.7929 45.2051 52.3232 42.6765 56.9983 43.1085C55.7073 37.238 50.0997 32.3526 42.0118 32.2338ZM36.313 38.9058C35.2375 38.9058 34.3657 39.7565 34.3657 40.8061C34.3657 41.8556 35.2375 42.7064 36.313 42.7064C37.3886 42.7064 38.2605 41.8556 38.2605 40.8061C38.2605 39.7565 37.3886 38.9058 36.313 38.9058ZM48.1024 38.9058C47.027 38.9058 46.1551 39.7565 46.1551 40.8061C46.1551 41.8556 47.027 42.7064 48.1024 42.7064C49.1779 42.7064 50.0499 41.8556 50.0499 40.8061C50.0499 39.7565 49.1781 38.9058 48.1024 38.9058Z" fill="#31CE6F"/>
<path fill-rule="evenodd" clip-rule="evenodd" d="M69 54.5707C69 48.6315 63.1131 44.0823 56.2836 44.0823C49.0524 44.0823 43.2849 48.7343 43.2849 54.6731C43.2849 60.6228 48.7707 65.5483 56.2919 65.5886C57.8057 65.597 60.0605 65.2172 61.5809 64.5975C61.5809 64.5975 65.2154 66.7476 65.419 66.7318C65.6224 66.7158 65.7267 66.5586 65.7348 66.4238C65.7429 66.289 64.5768 62.9329 64.5768 62.9329C67.6977 60.5484 69 57.9208 69 54.5707ZM51.5241 49.0102C50.5725 49.0102 49.8012 49.7641 49.8012 50.6944C49.8012 51.6243 50.5725 52.3784 51.5241 52.3784C52.4756 52.3784 53.247 51.6245 53.247 50.6944C53.247 49.7641 52.4756 49.0102 51.5241 49.0102ZM60.7369 49.0102C59.7854 49.0102 59.014 49.7641 59.014 50.6944C59.014 51.6243 59.7854 52.3784 60.7369 52.3784C61.6887 52.3784 62.4601 51.6245 62.4601 50.6944C62.4601 49.7641 61.6887 49.0102 60.7369 49.0102Z" fill="#31CE6F"/>
</svg>
