<svg width="96" height="97" viewBox="0 0 96 97" fill="none" xmlns="http://www.w3.org/2000/svg">
<rect x="0.5" y="1.23193" width="95" height="95" rx="15.5" fill="#F8FAFB"/>
<rect x="0.5" y="1.23193" width="95" height="95" rx="15.5" stroke="#ECEFF3"/>
<path d="M48 48.7319C53.799 48.7319 58.5 44.0309 58.5 38.2319C58.5 32.4329 53.799 27.7319 48 27.7319C42.201 27.7319 37.5 32.4329 37.5 38.2319C37.5 44.0309 42.201 48.7319 48 48.7319Z" fill="url(#paint0_linear_727_18105)"/>
<path fill-rule="evenodd" clip-rule="evenodd" d="M47.1641 69.476C40.761 65.1099 35.4358 59.1597 31.6388 52.1286C31.492 51.8468 31.4601 51.5129 31.5505 51.2051C31.6409 50.8974 31.8457 50.6429 32.1169 50.5014L39.5416 46.6066C40.0609 46.3359 40.6877 46.5412 40.9759 47.0766C44.7297 53.8017 50.2803 59.1722 56.9134 62.4971C54.4671 65.1318 51.758 67.4721 48.8347 69.476C48.3236 69.8172 47.6752 69.8172 47.1641 69.476Z" fill="url(#paint1_linear_727_18105)"/>
<path fill-rule="evenodd" clip-rule="evenodd" d="M48.8343 69.476C55.2382 65.111 60.5636 59.1605 64.3596 52.1286C64.5067 51.8475 64.5395 51.5142 64.4501 51.2065C64.3608 50.8989 64.1572 50.644 63.8869 50.5014L56.4568 46.6066C55.9374 46.3359 55.3107 46.5412 55.0224 47.0766C51.2695 53.8024 45.7187 59.1732 39.085 62.4971C41.5298 65.1336 44.239 67.474 47.1636 69.476C47.6748 69.8172 48.3231 69.8172 48.8343 69.476Z" fill="#2684FF"/>
<defs>
<linearGradient id="paint0_linear_727_18105" x1="48" y1="31.2221" x2="48" y2="52.7813" gradientUnits="userSpaceOnUse">
<stop stop-color="#2684FF"/>
<stop offset="0.82" stop-color="#0052CC"/>
</linearGradient>
<linearGradient id="paint1_linear_727_18105" x1="41.9652" y1="52.1286" x2="47.7416" y2="67.5758" gradientUnits="userSpaceOnUse">
<stop stop-color="#2684FF"/>
<stop offset="0.62" stop-color="#0052CC"/>
</linearGradient>
</defs>
</svg>
