<svg width="96" height="97" viewBox="0 0 96 97" fill="none" xmlns="http://www.w3.org/2000/svg">
<rect x="0.5" y="1.23193" width="95" height="95" rx="15.5" fill="#F8FAFB"/>
<rect x="0.5" y="1.23193" width="95" height="95" rx="15.5" stroke="#ECEFF3"/>
<path d="M27.8545 54.7724C30.4506 63.4265 38.4813 69.7319 47.9859 69.7319C59.5911 69.7319 68.9993 60.3297 68.9993 48.7319C68.9993 37.134 59.5911 27.7319 47.9859 27.7319C36.8495 27.7319 27.7373 36.3895 27.0176 47.3367C27.0176 50.4819 27.0176 51.7944 27.8545 54.7724Z" fill="url(#paint0_linear_727_18107)"/>
<path d="M46.9059 43.5761L41.7639 51.0409C40.5517 50.9858 39.3315 51.3288 38.3186 51.9945L27.0274 47.3493C27.0274 47.3493 26.7662 51.6448 27.855 54.8462L35.8372 58.1377C36.238 59.9276 37.4667 61.4977 39.2794 62.2529C42.2453 63.4913 45.665 62.0799 46.8987 59.1147C47.2198 58.3396 47.3695 57.5266 47.3479 56.7154L54.8856 51.4645C59.2885 51.4645 62.8671 47.8774 62.8671 43.4723C62.8671 39.0668 59.2885 35.4829 54.8856 35.4829C50.633 35.4829 46.6676 39.1936 46.9059 43.5761ZM45.6704 58.5991C44.7155 60.8902 42.081 61.9772 39.791 61.0236C38.7345 60.5838 37.9369 59.778 37.4768 58.8172L40.0751 59.8934C41.7639 60.5964 43.7014 59.796 44.4035 58.1088C45.1076 56.4198 44.3088 54.4802 42.6208 53.7772L39.9349 52.6651C40.9713 52.2721 42.1495 52.2577 43.2503 52.7155C44.3602 53.177 45.2213 54.0458 45.6776 55.1562C46.1339 56.2666 46.1321 57.4923 45.6704 58.5991ZM54.8856 48.7967C51.9546 48.7967 49.5682 46.4083 49.5682 43.4723C49.5682 40.5386 51.9546 38.1495 54.8856 38.1495C57.8185 38.1495 60.2048 40.5386 60.2048 43.4723C60.2048 46.4083 57.8185 48.7967 54.8856 48.7967ZM50.9012 43.4642C50.9012 41.2555 52.6905 39.4641 54.8946 39.4641C57.1006 39.4641 58.8899 41.2555 58.8899 43.4642C58.8899 45.673 57.1006 47.4628 54.8946 47.4628C52.6905 47.4628 50.9012 45.673 50.9012 43.4642Z" fill="white"/>
<defs>
<linearGradient id="paint0_linear_727_18107" x1="48.0084" y1="27.7319" x2="48.0084" y2="69.7319" gradientUnits="userSpaceOnUse">
<stop stop-color="#111D2E"/>
<stop offset="0.21248" stop-color="#051839"/>
<stop offset="0.40695" stop-color="#0A1B48"/>
<stop offset="0.5811" stop-color="#132E62"/>
<stop offset="0.7376" stop-color="#144B7E"/>
<stop offset="0.87279" stop-color="#136497"/>
<stop offset="1" stop-color="#1387B8"/>
</linearGradient>
</defs>
</svg>
