<svg width="96" height="97" viewBox="0 0 96 97" fill="none" xmlns="http://www.w3.org/2000/svg">
<rect x="0.5" y="1.23193" width="95" height="95" rx="15.5" fill="#F8FAFB"/>
<rect x="0.5" y="1.23193" width="95" height="95" rx="15.5" stroke="#ECEFF3"/>
<path d="M27 48.729C27 60.3251 36.4033 69.7292 48.0008 69.7292C59.5982 69.7292 69 60.3251 69 48.729C69 37.1297 59.5982 27.7292 48.0008 27.7292C36.4033 27.7292 27 37.1297 27 48.729Z" fill="url(#paint0_linear_727_18099)"/>
<path fill-rule="evenodd" clip-rule="evenodd" d="M53.4691 62.4197C54.0197 61.8895 57.251 58.7779 59.1095 56.7283C60.8809 54.7695 61.7717 52.2493 61.6117 49.636C61.4473 46.9446 60.1912 44.452 58.0722 42.6217C54.5727 39.5959 48.9166 39.6574 45.464 42.756C44.2045 43.8845 42.7819 45.4326 42.7212 45.499C41.8134 46.4862 41.8804 48.0234 42.8659 48.9307C43.853 49.8366 45.3856 49.7723 46.2959 48.7861C46.3081 48.7716 47.6203 47.3436 48.7028 46.3742C50.5205 44.7425 53.4276 45.0252 54.8995 46.2978C56.0207 47.2656 56.6831 48.5557 56.7672 49.9302C56.8463 51.2273 56.4001 52.4842 55.5134 53.4634C53.7618 55.3991 50.5373 58.502 50.0917 58.9307C50.0603 58.9609 50.0428 58.9778 50.0404 58.9802C49.0721 59.9078 49.0368 61.4426 49.9639 62.4138C50.4405 62.9119 51.077 63.1641 51.7186 63.1641C52.3203 63.1641 52.9241 62.9401 53.3932 62.4929C53.4034 62.483 53.4292 62.4581 53.4691 62.4197ZM38.2246 54.6684C39.9469 56.1578 42.1903 56.9012 44.4368 56.9012C46.7569 56.9012 49.0798 56.1094 50.8327 54.5347C51.9875 53.4974 53.2825 52.1088 53.534 51.839C53.5566 51.8149 53.5708 51.7997 53.5756 51.7946C54.4831 50.8073 54.4173 49.2691 53.431 48.3627C52.4458 47.454 50.9095 47.5173 50.0028 48.5056C50.0024 48.5061 50.0001 48.5086 49.9961 48.5129C49.8926 48.6247 48.6362 49.9825 47.5948 50.9191C45.7761 52.5477 42.8701 52.269 41.3964 50.9937C40.2765 50.0252 39.6141 48.7347 39.5292 47.3592C39.4502 46.0634 39.8971 44.8093 40.7838 43.8263C42.6601 41.7558 46.2203 38.3465 46.2568 38.3118C47.2256 37.3852 47.2585 35.8483 46.3335 34.8781C45.4062 33.9093 43.8715 33.8722 42.9033 34.8001L42.8873 34.8154C42.588 35.1026 39.1341 38.4158 37.1892 40.5647C35.4151 42.5224 34.5279 45.0424 34.6847 47.6548C34.8504 50.3476 36.1065 52.8384 38.2246 54.6684Z" fill="white"/>
<defs>
<linearGradient id="paint0_linear_727_18099" x1="27" y1="69.7292" x2="27" y2="27.7292" gradientUnits="userSpaceOnUse">
<stop stop-color="#2255FF"/>
<stop offset="1" stop-color="#00AAFF"/>
</linearGradient>
</defs>
</svg>
