<svg width="96" height="97" viewBox="0 0 96 97" fill="none" xmlns="http://www.w3.org/2000/svg">
<rect x="0.5" y="1.23193" width="95" height="95" rx="15.5" fill="#F8FAFB"/>
<rect x="0.5" y="1.23193" width="95" height="95" rx="15.5" stroke="#ECEFF3"/>
<path d="M48 27.7319C36.4172 27.7319 27 37.1491 27 48.7319C27 60.3147 36.4172 69.7319 48 69.7319C59.5828 69.7319 69 60.3147 69 48.7319C69 37.1491 59.5828 27.7319 48 27.7319Z" fill="#FF5A5F"/>
<path d="M48.0005 54.262C46.6237 52.5302 45.8138 51.0121 45.5439 49.7132C45.2739 48.6579 45.3819 47.819 45.8408 47.1967C46.3267 46.4661 47.0556 46.1143 48.0005 46.1143C48.9453 46.1143 49.6742 46.4661 50.1602 47.1967C50.6191 47.819 50.7271 48.6579 50.4571 49.7132C50.1602 51.0392 49.3503 52.5545 48.0005 54.262ZM55.5377 58.2669C53.2431 59.2681 50.9727 57.6715 49.029 55.5068C52.2442 51.4721 52.8381 48.3332 51.4587 46.301C50.6488 45.1374 49.488 44.5692 48.0005 44.5692C45.004 44.5692 43.3545 47.1128 44.0024 50.065C44.3804 51.6615 45.3792 53.4773 46.9719 55.5068C45.7773 56.8337 44.2099 58.339 42.3287 58.5104C39.6021 58.9163 37.4667 56.2644 38.4386 53.5287L45.3522 39.1815C45.9423 38.103 46.6705 37.1791 47.9978 37.1791C48.9696 37.1791 49.7255 37.7474 50.0495 38.2074L57.557 53.5287C58.2926 55.3799 57.3598 57.4782 55.5377 58.2669ZM59.0202 52.9875L52.5925 39.5874C51.3777 37.0979 50.5138 35.6069 48.0005 35.6069C45.5169 35.6069 44.4613 37.3388 43.3815 39.5874L36.9808 52.9875C35.604 56.7786 38.4386 60.1069 41.8697 60.1069C42.0857 60.1069 42.3001 60.0799 42.5176 60.0799C44.2994 59.8634 46.1378 58.7269 48.0005 56.6947C49.8632 58.7242 51.7016 59.8634 53.4833 60.0799C53.7009 60.0799 53.9152 60.1069 54.1312 60.1069C57.5624 60.1096 60.397 56.7786 59.0202 52.9875Z" fill="white"/>
</svg>
