<svg width="96" height="97" viewBox="0 0 96 97" fill="none" xmlns="http://www.w3.org/2000/svg">
<rect x="0.5" y="1.23193" width="95" height="95" rx="15.5" fill="#F8FAFB"/>
<rect x="0.5" y="1.23193" width="95" height="95" rx="15.5" stroke="#ECEFF3"/>
<path fill-rule="evenodd" clip-rule="evenodd" d="M38.8844 53.4713C39.1649 55.8849 39.5652 57.7074 40.4359 59.8564C41.3063 62.0047 43.2259 64.8769 45.5678 66.5861C47.9096 68.2947 51.7293 69.8906 54.3115 69.7193C56.8936 69.5485 58.0445 68.5944 59.2323 67.3858C60.4194 66.1773 63.089 62.4987 64.0194 59.0637C64.9505 55.6292 64.3696 54.4239 63.6204 53.4273C62.8718 52.4306 61.1825 51.7541 58.8769 51.9303C56.5714 52.1064 54.0808 53.5367 53.9391 54.7188C53.72 56.5458 57.1224 56.7982 56.5714 58.4031C56.35 59.0493 55.5253 59.5698 53.3361 59.5037C51.1468 59.4383 48.7504 58.375 48.1933 56.6859C47.6362 54.9967 47.8797 53.4448 49.0627 52.6256C54.059 49.167 55.7261 46.3178 56.0538 45.0222C56.3815 43.7265 55.8688 42.2075 54.5724 41.043C51.7888 38.5423 46.191 39.6599 43.4765 41.5836C39.4476 44.4394 38.3434 48.8172 38.8844 53.4713ZM45.4576 29.8583C44.9914 30.9095 44.3771 33.1047 44.9968 34.9154C45.6169 36.7262 47.9626 38.7762 50.5425 38.2979C53.1221 37.8192 53.0431 33.7928 52.5374 32.0459C52.0799 30.4665 49.7775 27.8676 48.1692 27.7412C46.5608 27.6148 45.9241 28.8064 45.4576 29.8583ZM37.8823 36.0697C39.3927 38.2797 41.7548 38.625 42.9538 38.2165C44.1528 37.8077 43.6346 34.4699 42.9124 32.9369C42.0099 31.0221 39.9058 30.8463 38.6814 31.4702C37.457 32.0934 36.3723 33.8598 37.8823 36.0697ZM34.0044 37.65C32.4083 38.2012 32.8693 41.507 33.793 42.8202C34.7164 44.1334 37.4775 44.8613 38.5416 43.6767C39.606 42.4921 38.2807 40.1494 37.6411 39.3915C37.0014 38.6329 35.6006 37.0989 34.0044 37.65ZM31.6337 45.9147C32.0864 44.8817 34.1709 44.9848 35.7346 45.8841C37.7053 47.018 37.7853 49.8623 36.6235 50.3263C35.6841 50.7016 34.0192 50.4588 32.9795 49.6351C31.9399 48.8114 31.181 46.9474 31.6337 45.9147Z" fill="black"/>
</svg>
