<svg width="96" height="97" viewBox="0 0 96 97" fill="none" xmlns="http://www.w3.org/2000/svg">
<rect x="0.5" y="1.44629" width="95" height="95" rx="15.5" fill="#F8FAFB"/>
<rect x="0.5" y="1.44629" width="95" height="95" rx="15.5" stroke="#ECEFF3"/>
<path fill-rule="evenodd" clip-rule="evenodd" d="M33.4738 55.1987L31.2767 55.9877L31.1587 62.4126L38.7645 59.6815C36.1558 58.8202 34.2508 57.3047 33.4738 55.1987Z" fill="#FDBD39"/>
<path fill-rule="evenodd" clip-rule="evenodd" d="M34.6234 48.4033L27 51.1408L31.2764 55.9878L33.4736 55.1988C32.6989 53.099 33.1767 50.7254 34.6234 48.4033Z" fill="#F69833"/>
<path fill-rule="evenodd" clip-rule="evenodd" d="M47.4524 39.1324C37.7446 42.6183 31.4861 49.8115 33.4736 55.1988L68.6285 42.5752C66.641 37.1879 57.1601 35.6465 47.4524 39.1324Z" fill="#FECF33"/>
<path fill-rule="evenodd" clip-rule="evenodd" d="M54.6492 58.6415C64.357 55.1556 70.6273 47.9944 68.628 42.5752L33.4731 55.1987C35.4724 60.6179 44.9415 62.1274 54.6492 58.6415Z" fill="#EE6723"/>
<path fill-rule="evenodd" clip-rule="evenodd" d="M68.628 42.5752L33.4731 55.1987C34.1615 57.0646 36.7866 57.9839 40.4699 57.9839C44.0608 57.9839 48.6575 57.1108 53.4497 55.39C63.1575 51.9041 69.9875 46.2602 68.628 42.5752Z" fill="#F69833"/>
<path fill-rule="evenodd" clip-rule="evenodd" d="M61.6323 39.79C58.0414 39.79 53.4447 40.6631 48.6525 42.384C38.9447 45.8699 32.1147 51.5137 33.4742 55.1988L68.6291 42.5753C67.9407 40.7093 65.3156 39.79 61.6323 39.79Z" fill="#FDBD39"/>
<path fill-rule="evenodd" clip-rule="evenodd" d="M59.6904 62.7528H59.6902C58.6559 62.7528 57.1299 61.8345 55.1547 60.0234C52.818 57.8806 50.1412 54.7421 47.6174 51.1862C45.0937 47.6304 43.0199 44.0754 41.7781 41.1761C40.4251 38.0165 40.2322 36.0738 41.2047 35.4019C41.418 35.2547 41.675 35.1802 41.9687 35.1802C42.7597 35.1802 44.3011 35.7591 47.1513 38.5172L47.2136 38.5775L47.2052 38.6632C47.1857 38.8613 47.1677 39.0612 47.1517 39.2574L47.12 39.6471L46.8403 39.3701C43.7693 36.329 42.4175 36.0007 41.9787 36.0007C41.8536 36.0007 41.754 36.0257 41.6826 36.075C41.2607 36.3664 41.2336 37.7934 42.5453 40.8562C43.7649 43.7039 45.8085 47.2051 48.2996 50.7148C50.7909 54.2249 53.4267 57.317 55.7217 59.4214C58.1965 61.6907 59.3117 61.9357 59.6764 61.9357C59.8023 61.9357 59.9046 61.9091 59.9804 61.8567C60.4254 61.5493 60.426 60.0207 58.9632 56.724L58.896 56.5727L59.043 56.4936C59.19 56.4145 59.3322 56.3366 59.4656 56.2621L59.6417 56.1637L59.7229 56.3465C60.7601 58.6825 61.7296 61.6514 60.4583 62.5298C60.2439 62.6778 59.9856 62.7528 59.6904 62.7528ZM59.6902 62.3925H59.6905L59.6903 62.5727L59.6902 62.3925Z" fill="#EE6723"/>
<path fill-rule="evenodd" clip-rule="evenodd" d="M54.8855 58.5432L54.8708 58.7228C54.6253 61.7078 53.9791 65.2965 52.2942 65.4418C52.2603 65.4448 52.2252 65.4463 52.19 65.4463C51.0454 65.4463 49.9625 63.8343 48.9715 60.655C48.0339 57.6473 47.3062 53.6088 46.9227 49.2837C46.5391 44.9595 46.5449 40.8578 46.9389 37.7343C47.3683 34.3306 48.1859 32.5531 49.3687 32.4511C49.4037 32.4479 49.4399 32.4463 49.4757 32.4463C50.3061 32.4463 51.5575 33.3705 52.8386 37.6751L52.0021 37.8338C51.5744 36.3953 51.1082 35.2253 50.6454 34.4214C50.2174 33.6778 49.8011 33.2683 49.4734 33.2683C49.4626 33.2683 49.4517 33.2687 49.4411 33.2696C48.9284 33.3139 48.1817 34.5363 47.7654 37.8358C47.3785 40.9033 47.3738 44.9435 47.7523 49.2122C48.131 53.4816 48.8467 57.4596 49.7676 60.4135C50.18 61.7365 50.6323 62.8268 51.0757 63.5666C51.4845 64.2489 51.8802 64.6246 52.1898 64.6246C52.2004 64.6246 52.211 64.6241 52.2216 64.6233C52.7122 64.581 53.6366 63.3089 54.0257 58.8333L54.8855 58.5432Z" fill="#EE6723"/>
</svg>
