<svg width="96" height="97" viewBox="0 0 96 97" fill="none" xmlns="http://www.w3.org/2000/svg">
<rect x="0.5" y="1.23193" width="95" height="95" rx="15.5" fill="#F8FAFB"/>
<rect x="0.5" y="1.23193" width="95" height="95" rx="15.5" stroke="#ECEFF3"/>
<rect x="27" y="27.7319" width="42" height="42" rx="6" fill="#2789F6"/>
<path d="M58.385 52.2331C58.0618 51.7946 57.9894 51.3508 58.166 50.9011C58.6067 49.7013 65.0241 42.0811 62.3507 42.0811C60.5136 42.1055 58.3044 42.0811 56.5432 42.0811C56.2162 42.1607 56.0047 42.3323 55.8723 42.6814C54.8424 45.0561 53.5821 47.9541 51.7351 49.8167C51.4921 50.0126 51.3406 50.0042 51.0638 49.9318C49.7682 48.5677 51.1497 43.8946 50.3618 42.048C50.2065 41.6866 49.8666 41.5233 49.5188 41.4314C47.7598 41.0122 43.7425 41.2617 43.0871 42.1055C42.8997 42.3468 42.8735 42.4784 43.0088 42.5001C43.6333 42.5986 44.0755 42.8343 44.3357 43.2069C44.8266 44.288 45.1883 50.0465 43.7425 50.0465C42.2967 50.0465 39.9653 44.3951 39.3248 42.8285C39.1544 42.3568 38.7205 42.0863 38.2633 42.0065L33.9859 42.0392C33.2341 42.0392 32.8139 42.4101 33.0804 43.1573C35.3082 48.6874 40.1835 59.4065 47.6609 59.1382C48.4099 59.1382 49.6986 59.4257 50.2836 58.7764C51.0875 57.7098 50.107 55.8102 51.4856 55.0858C51.8333 54.9008 52.1936 55.0558 52.4923 55.2833C54.0257 56.4509 54.8399 58.5003 56.7309 59.1224C57.0634 59.2319 57.3547 59.2593 57.6048 59.2046L61.601 59.1389C62.343 59.1389 63.0739 58.8088 62.9203 57.9218C62.3377 56.0197 60.0161 54.0644 58.385 52.2331Z" fill="white"/>
</svg>
