<svg width="96" height="97" viewBox="0 0 96 97" fill="none" xmlns="http://www.w3.org/2000/svg">
<rect x="0.5" y="1.23193" width="95" height="95" rx="15.5" fill="#F8FAFB"/>
<rect x="0.5" y="1.23193" width="95" height="95" rx="15.5" stroke="#ECEFF3"/>
<path d="M27 39.8069C27 35.5358 27 33.4002 27.8444 31.7746C28.556 30.4048 29.6729 29.2879 31.0427 28.5763C32.6682 27.7319 34.8038 27.7319 39.075 27.7319H56.925C61.1962 27.7319 63.3318 27.7319 64.9573 28.5763C66.3271 29.2879 67.444 30.4048 68.1556 31.7746C69 33.4002 69 35.5358 69 39.8069V57.6569C69 61.9281 69 64.0637 68.1556 65.6892C67.444 67.0591 66.3271 68.176 64.9573 68.8875C63.3318 69.7319 61.1962 69.7319 56.925 69.7319H39.075C34.8038 69.7319 32.6682 69.7319 31.0427 68.8875C29.6729 68.176 28.556 67.0591 27.8444 65.6892C27 64.0637 27 61.9281 27 57.6569V39.8069Z" fill="url(#paint0_linear_727_18086)"/>
<path d="M45.9313 61.0224L35.71 50.801C36.5831 56.0256 40.7067 60.1493 45.9313 61.0224Z" fill="#F2F3F8"/>
<path d="M35.5576 48.0381L48.694 61.1744C49.4732 61.1316 50.2334 61.0173 50.9681 60.8378L35.8943 45.7639C35.7147 46.4986 35.6005 47.2589 35.5576 48.0381Z" fill="#F2F3F8"/>
<path d="M36.5508 43.8081L52.9256 60.1829C53.5212 59.9264 54.0928 59.625 54.6361 59.2826L37.4512 42.0977C37.1088 42.6409 36.8073 43.2125 36.5508 43.8081Z" fill="#F2F3F8"/>
<path d="M38.5576 40.5969C40.8428 37.9474 44.2244 36.2703 47.9979 36.2703C54.8801 36.2703 60.4594 41.8495 60.4594 48.7318C60.4594 52.5052 58.7823 55.8869 56.1327 58.172L38.5576 40.5969Z" fill="#F2F3F8"/>
<defs>
<linearGradient id="paint0_linear_727_18086" x1="27" y1="69.7319" x2="69" y2="27.7319" gradientUnits="userSpaceOnUse">
<stop stop-color="#29359B"/>
<stop offset="1" stop-color="#6068CA"/>
</linearGradient>
</defs>
</svg>
