<svg width="96" height="97" viewBox="0 0 96 97" fill="none" xmlns="http://www.w3.org/2000/svg">
<rect x="0.5" y="1.23193" width="95" height="95" rx="15.5" fill="#F8FAFB"/>
<rect x="0.5" y="1.23193" width="95" height="95" rx="15.5" stroke="#ECEFF3"/>
<path fill-rule="evenodd" clip-rule="evenodd" d="M48 69.7319C59.598 69.7319 69 60.3299 69 48.7319C69 37.134 59.598 27.7319 48 27.7319C36.402 27.7319 27 37.134 27 48.7319C27 60.3299 36.402 69.7319 48 69.7319Z" fill="#1FB6FF"/>
<path fill-rule="evenodd" clip-rule="evenodd" d="M45.907 44.1137C47.4447 44.1304 44.7375 52.1127 45.0282 55.5829C45.3213 59.0839 49.1952 58.0759 48.9493 56.0604C48.5309 52.6341 50.8133 41.8977 53.1281 41.8977C54.7522 41.8977 51.3293 49.2992 52.0028 54.0388C52.4484 57.1745 56.493 56.0867 56.082 54.2275C54.7224 48.0742 58.935 42.1605 58.4629 37.9706C58.2564 36.1373 57.1539 35.2408 56.0511 35.232C52.1899 35.2023 49.2073 43.1207 49.2073 43.1207C49.2073 43.1207 49.5178 38.6202 46.5169 38.4549C41.9223 38.2017 37.3738 49.7006 37.5027 59.968C37.5437 63.2435 41.6204 62.6856 41.4061 60.0741C41.0074 55.2174 43.7152 44.0902 45.907 44.1137Z" fill="white"/>
</svg>
