<svg width="96" height="97" viewBox="0 0 96 97" fill="none" xmlns="http://www.w3.org/2000/svg">
<rect x="0.5" y="1.23193" width="95" height="95" rx="15.5" fill="#F8FAFB"/>
<rect x="0.5" y="1.23193" width="95" height="95" rx="15.5" stroke="#ECEFF3"/>
<circle cx="48" cy="48.7319" r="21" fill="#FF5502"/>
<path d="M59.8953 56.2319H47.6163V41.3976C48.754 40.3587 50.2275 39.7319 51.8372 39.7319C55.3994 39.7319 58.2947 42.8013 58.3593 46.614C58.8397 46.4313 59.3568 46.3319 59.8953 46.3319C62.4384 46.3319 64.5 48.5481 64.5 51.2819C64.5 54.0158 62.4384 56.2319 59.8953 56.2319Z" fill="white"/>
<path d="M46.5 42.7319H45V56.2319H46.5V42.7319Z" fill="white"/>
<path d="M42 44.2319H43.5V56.2319H42V44.2319Z" fill="white"/>
<path d="M40.5 47.2319H39V56.2319H40.5V47.2319Z" fill="white"/>
<path d="M36 45.7319H37.5V56.2319H36V45.7319Z" fill="white"/>
<path d="M34.5 48.7319H33V56.2319H34.5V48.7319Z" fill="white"/>
</svg>
