<svg width="96" height="97" viewBox="0 0 96 97" fill="none" xmlns="http://www.w3.org/2000/svg">
<rect x="0.5" y="1.23193" width="95" height="95" rx="15.5" fill="#F8FAFB"/>
<rect x="0.5" y="1.23193" width="95" height="95" rx="15.5" stroke="#ECEFF3"/>
<path fill-rule="evenodd" clip-rule="evenodd" d="M33.4738 54.9844L31.2767 55.7733L31.1587 62.1983L38.7645 59.4672C36.1558 58.6058 34.2508 57.0903 33.4738 54.9844Z" fill="#FDBD39"/>
<path fill-rule="evenodd" clip-rule="evenodd" d="M34.6234 48.189L27 50.9264L31.2764 55.7734L33.4736 54.9844C32.6989 52.8846 33.1767 50.511 34.6234 48.189Z" fill="#F69833"/>
<path fill-rule="evenodd" clip-rule="evenodd" d="M47.4524 38.9181C37.7446 42.404 31.4861 49.5971 33.4736 54.9844L68.6285 42.3609C66.641 36.9736 57.1601 35.4322 47.4524 38.9181Z" fill="#FECF33"/>
<path fill-rule="evenodd" clip-rule="evenodd" d="M54.6492 58.4272C64.357 54.9413 70.6273 47.78 68.628 42.3608L33.4731 54.9844C35.4724 60.4036 44.9415 61.913 54.6492 58.4272Z" fill="#EE6723"/>
<path fill-rule="evenodd" clip-rule="evenodd" d="M68.628 42.3608L33.4731 54.9844C34.1615 56.8503 36.7866 57.7695 40.4699 57.7695C44.0608 57.7695 48.6575 56.8965 53.4497 55.1756C63.1575 51.6897 69.9875 46.0459 68.628 42.3608Z" fill="#F69833"/>
<path fill-rule="evenodd" clip-rule="evenodd" d="M61.6323 39.5757C58.0414 39.5757 53.4447 40.4488 48.6525 42.1696C38.9447 45.6555 32.1147 51.2994 33.4742 54.9844L68.6291 42.3609C67.9407 40.495 65.3156 39.5757 61.6323 39.5757Z" fill="#FDBD39"/>
<path fill-rule="evenodd" clip-rule="evenodd" d="M59.6904 62.5385H59.6902C58.6559 62.5385 57.1299 61.6201 55.1547 59.809C52.818 57.6662 50.1412 54.5278 47.6174 50.9718C45.0937 47.416 43.0199 43.8611 41.7781 40.9617C40.4251 37.8022 40.2322 35.8595 41.2047 35.1876C41.418 35.0404 41.675 34.9658 41.9687 34.9658C42.7597 34.9658 44.3011 35.5447 47.1513 38.3028L47.2136 38.3631L47.2052 38.4488C47.1857 38.647 47.1677 38.8469 47.1517 39.0431L47.12 39.4327L46.8403 39.1558C43.7693 36.1146 42.4175 35.7863 41.9787 35.7863C41.8536 35.7863 41.754 35.8113 41.6826 35.8607C41.2607 36.152 41.2336 37.579 42.5453 40.6418C43.7649 43.4895 45.8085 46.9907 48.2996 50.5005C50.7909 54.0106 53.4267 57.1026 55.7217 59.2071C58.1965 61.4763 59.3117 61.7214 59.6764 61.7214C59.8023 61.7214 59.9046 61.6948 59.9804 61.6423C60.4254 61.335 60.426 59.8063 58.9632 56.5097L58.896 56.3583L59.043 56.2793C59.19 56.2001 59.3322 56.1222 59.4656 56.0477L59.6417 55.9493L59.7229 56.1322C60.7601 58.4681 61.7296 61.437 60.4583 62.3154C60.2439 62.4634 59.9856 62.5385 59.6904 62.5385ZM59.6902 62.1782H59.6905L59.6903 62.3583L59.6902 62.1782Z" fill="#EE6723"/>
<path fill-rule="evenodd" clip-rule="evenodd" d="M54.8855 58.3289L54.8708 58.5084C54.6253 61.4935 53.9791 65.0822 52.2942 65.2274C52.2603 65.2304 52.2252 65.2319 52.19 65.2319C51.0454 65.2319 49.9625 63.6199 48.9715 60.4407C48.0339 57.4329 47.3062 53.3945 46.9227 49.0694C46.5391 44.7452 46.5449 40.6435 46.9389 37.52C47.3683 34.1163 48.1859 32.3388 49.3687 32.2367C49.4037 32.2336 49.4399 32.2319 49.4757 32.2319C50.3061 32.2319 51.5575 33.1561 52.8386 37.4607L52.0021 37.6194C51.5744 36.1809 51.1082 35.011 50.6454 34.207C50.2174 33.4634 49.8011 33.0539 49.4734 33.0539C49.4626 33.0539 49.4517 33.0544 49.4411 33.0553C48.9284 33.0995 48.1817 34.322 47.7654 37.6215C47.3785 40.6889 47.3738 44.7292 47.7523 48.9979C48.131 53.2672 48.8467 57.2453 49.7676 60.1992C50.18 61.5221 50.6323 62.6124 51.0757 63.3523C51.4845 64.0345 51.8802 64.4103 52.1898 64.4103C52.2004 64.4103 52.211 64.4098 52.2216 64.4089C52.7122 64.3666 53.6366 63.0946 54.0257 58.6189L54.8855 58.3289Z" fill="#EE6723"/>
</svg>
