<svg width="96" height="97" viewBox="0 0 96 97" fill="none" xmlns="http://www.w3.org/2000/svg">
<rect x="0.5" y="1.23193" width="95" height="95" rx="15.5" fill="#F8FAFB"/>
<rect x="0.5" y="1.23193" width="95" height="95" rx="15.5" stroke="#ECEFF3"/>
<path d="M48 27.7319C36.4172 27.7319 27 37.1491 27 48.7319C27 60.3147 36.4172 69.7319 48 69.7319C59.5828 69.7319 69 60.3147 69 48.7319C69 37.1491 59.5828 27.7319 48 27.7319Z" fill="#E6001F"/>
<path d="M34.5 59.2319C34.5 59.2319 43.831 36.7378 43.8089 36.7319C43.8089 36.7319 43.8089 36.7319 43.8089 36.7319H43.8089H50.8952L61.5 59.2319L53.4902 59.2319C53.4961 59.2438 47.4844 45.4264 47.409 45.2875C47.3959 45.408 43.4226 54.6556 43.3746 54.667H47.6565C47.6371 54.6905 49.5183 59.189 49.5183 59.2319L34.5 59.2319Z" fill="white"/>
</svg>
