<svg width="20" height="20" viewBox="0 0 20 20" fill="none" xmlns="http://www.w3.org/2000/svg">
<path d="M13 4H14.5C14.8978 4 15.2794 4.15804 15.5607 4.43934C15.842 4.72064 16 5.10218 16 5.5V16C16 16.3978 15.842 16.7794 15.5607 17.0607C15.2794 17.342 14.8978 17.5 14.5 17.5H5.5C5.10218 17.5 4.72064 17.342 4.43934 17.0607C4.15804 16.7794 4 16.3978 4 16V5.5C4 5.10218 4.15804 4.72064 4.43934 4.43934C4.72064 4.15804 5.10218 4 5.5 4H7" stroke="#818898" stroke-width="1.5" stroke-linecap="round" stroke-linejoin="round"/>
<path d="M12.25 2.5H7.75C7.33579 2.5 7 2.83579 7 3.25V4.75C7 5.16421 7.33579 5.5 7.75 5.5H12.25C12.6642 5.5 13 5.16421 13 4.75V3.25C13 2.83579 12.6642 2.5 12.25 2.5Z" stroke="#818898" stroke-width="1.5" stroke-linecap="round" stroke-linejoin="round"/>
</svg>
