<svg width="50" height="50" viewBox="0 0 50 50" fill="none" xmlns="http://www.w3.org/2000/svg">
<g filter="url(#filter0_dd_658_5051)">
<rect x="3" y="2" width="44" height="44" rx="22" fill="white" fill-opacity="0.1" shape-rendering="crispEdges"/>
<path opacity="0.12" d="M27.5 17.8333C27.5 17.3666 27.5 17.1333 27.4092 16.955C27.3293 16.7982 27.2018 16.6707 27.045 16.5908C26.8667 16.5 26.6334 16.5 26.1667 16.5L23.8333 16.5C23.3666 16.5 23.1333 16.5 22.955 16.5908C22.7982 16.6707 22.6707 16.7982 22.5908 16.955C22.5 17.1333 22.5 17.3666 22.5 17.8333L22.5 31.5H27.5L27.5 17.8333Z" fill="#F8FAFB"/>
<path d="M22.5 19.8333H18.8333C18.3666 19.8333 18.1333 19.8333 17.955 19.9242C17.7982 20.0041 17.6707 20.1315 17.5908 20.2883C17.5 20.4666 17.5 20.7 17.5 21.1667V30.1667C17.5 30.6334 17.5 30.8667 17.5908 31.045C17.6707 31.2018 17.7982 31.3293 17.955 31.4092C18.1333 31.5 18.3666 31.5 18.8333 31.5H22.5M22.5 31.5H27.5M22.5 31.5L22.5 17.8333C22.5 17.3666 22.5 17.1333 22.5908 16.955C22.6707 16.7982 22.7982 16.6707 22.955 16.5908C23.1333 16.5 23.3666 16.5 23.8333 16.5L26.1667 16.5C26.6334 16.5 26.8667 16.5 27.045 16.5908C27.2018 16.6707 27.3293 16.7982 27.4092 16.955C27.5 17.1333 27.5 17.3666 27.5 17.8333V31.5M27.5 23.1667H31.1667C31.6334 23.1667 31.8667 23.1667 32.045 23.2575C32.2018 23.3374 32.3293 23.4649 32.4092 23.6217C32.5 23.7999 32.5 24.0333 32.5 24.5V30.1667C32.5 30.6334 32.5 30.8667 32.4092 31.045C32.3293 31.2018 32.2018 31.3293 32.045 31.4092C31.8667 31.5 31.6334 31.5 31.1667 31.5H27.5" stroke="#F8FAFB" stroke-width="2" stroke-linecap="round" stroke-linejoin="round"/>
</g>
<defs>
<filter id="filter0_dd_658_5051" x="0" y="0" width="50" height="50" filterUnits="userSpaceOnUse" color-interpolation-filters="sRGB">
<feFlood flood-opacity="0" result="BackgroundImageFix"/>
<feColorMatrix in="SourceAlpha" type="matrix" values="0 0 0 0 0 0 0 0 0 0 0 0 0 0 0 0 0 0 127 0" result="hardAlpha"/>
<feOffset dy="1"/>
<feGaussianBlur stdDeviation="1"/>
<feComposite in2="hardAlpha" operator="out"/>
<feColorMatrix type="matrix" values="0 0 0 0 0.0509804 0 0 0 0 0.0509804 0 0 0 0 0.0705882 0 0 0 0.04 0"/>
<feBlend mode="normal" in2="BackgroundImageFix" result="effect1_dropShadow_658_5051"/>
<feColorMatrix in="SourceAlpha" type="matrix" values="0 0 0 0 0 0 0 0 0 0 0 0 0 0 0 0 0 0 127 0" result="hardAlpha"/>
<feOffset dy="1"/>
<feGaussianBlur stdDeviation="1.5"/>
<feComposite in2="hardAlpha" operator="out"/>
<feColorMatrix type="matrix" values="0 0 0 0 0.0509804 0 0 0 0 0.0509804 0 0 0 0 0.0705882 0 0 0 0.05 0"/>
<feBlend mode="normal" in2="effect1_dropShadow_658_5051" result="effect2_dropShadow_658_5051"/>
<feBlend mode="normal" in="SourceGraphic" in2="effect2_dropShadow_658_5051" result="shape"/>
</filter>
</defs>
</svg>
