<svg width="96" height="97" viewBox="0 0 96 97" fill="none" xmlns="http://www.w3.org/2000/svg">
<rect x="0.5" y="1.23193" width="95" height="95" rx="15.5" fill="#F8FAFB"/>
<rect x="0.5" y="1.23193" width="95" height="95" rx="15.5" stroke="#ECEFF3"/>
<path d="M41.8628 54.2495L36.7308 63.3073C36.7308 63.3073 36.5603 63.2243 36.3286 63.0526C37.057 63.613 37.765 63.7319 37.765 63.7319H57.9205C59.0326 63.7319 59.2642 63.3073 59.2642 63.3073C59.2679 63.3054 59.2698 63.3035 59.2735 63.3016L54.1452 54.2495H41.8628Z" fill="#4285F4"/>
<path d="M54.145 54.2495H64.4962C64.4443 55.4799 63.9105 56.1988 63.9105 56.1988L63.5213 56.8744C63.4935 56.914 63.4768 56.9367 63.4768 56.9367L62.6298 58.4236L60.7282 61.7335C60.6726 61.8675 60.6078 61.9902 60.5392 62.1071C60.5132 62.1468 60.4891 62.1902 60.4613 62.2279C60.4539 62.2392 60.4465 62.2506 60.4391 62.2619C60.2037 62.594 59.9405 62.8506 59.6774 63.0526C59.4457 63.2262 59.2752 63.3073 59.2752 63.3073L54.145 54.2495Z" fill="#EA4335"/>
<path d="M41.8629 54.2495H31.5117C31.5636 55.4799 32.0974 56.1988 32.0974 56.1988L32.4866 56.8744C32.5144 56.914 32.5311 56.9367 32.5311 56.9367L33.3781 58.4236L35.2796 61.7335C35.3352 61.8675 35.4001 61.9902 35.4687 62.1071C35.4946 62.1468 35.5187 62.1902 35.5465 62.2279C35.5539 62.2392 35.5614 62.2506 35.5688 62.2619C35.8042 62.594 36.0673 62.8506 36.3305 63.0526C36.5622 63.2262 36.7327 63.3073 36.7327 63.3073L41.8629 54.2495Z" fill="#1967D2"/>
<path d="M48.0029 43.4082L54.145 54.2493H64.4962C64.5129 53.8322 64.4758 53.3586 64.3424 52.834L54.8586 36.1016C54.8586 36.1016 54.1543 34.3825 52.6253 33.8787C52.8217 33.956 53.0219 34.0711 53.1943 34.2466L48.0029 43.4082Z" fill="#FBBC05"/>
<path d="M48.0029 43.4082L42.8115 34.2466C42.9839 34.0711 43.1822 33.956 43.3805 33.8787C41.8496 34.3825 41.1472 36.1016 41.1472 36.1016L31.6634 52.834C31.53 53.3586 31.4929 53.8322 31.5096 54.2493H41.8607L48.0029 43.4082Z" fill="#34A853"/>
<path d="M48.0029 43.4086L53.1942 34.247C53.0218 34.0715 52.8216 33.9564 52.6252 33.879C52.3991 33.8054 52.1563 33.7564 51.8931 33.7432H51.6188H44.3869H44.1126C43.8513 33.7545 43.6066 33.8035 43.3805 33.879C43.1841 33.9564 42.9839 34.0715 42.8115 34.247L48.0029 43.4086Z" fill="#188038"/>
</svg>
