<svg width="51" height="50" viewBox="0 0 51 50" fill="none" xmlns="http://www.w3.org/2000/svg">
<g filter="url(#filter0_dd_658_5063)">
<rect x="3.3335" y="2" width="44" height="44" rx="22" fill="white" fill-opacity="0.1" shape-rendering="crispEdges"/>
<g opacity="0.12">
<path d="M17 18.3333C17 17.3999 17 16.9332 17.1817 16.5766C17.3414 16.263 17.5964 16.0081 17.91 15.8483C18.2665 15.6666 18.7332 15.6666 19.6667 15.6666H31C31.9334 15.6666 32.4001 15.6666 32.7567 15.8483C33.0703 16.0081 33.3252 16.263 33.485 16.5766C33.6667 16.9332 33.6667 17.3999 33.6667 18.3333V19.6666C33.6667 20.6 33.6667 21.0668 33.485 21.4233C33.3252 21.7369 33.0703 21.9918 32.7567 22.1516C32.4001 22.3333 31.9334 22.3333 31 22.3333H19.6667C18.7332 22.3333 18.2665 22.3333 17.91 22.1516C17.5964 21.9918 17.3414 21.7369 17.1817 21.4233C17 21.0668 17 20.6 17 19.6666V18.3333Z" fill="#F8FAFB"/>
<path d="M17 28.3333C17 27.3999 17 26.9332 17.1817 26.5766C17.3414 26.263 17.5964 26.0081 17.91 25.8483C18.2665 25.6666 18.7332 25.6666 19.6667 25.6666H31C31.9334 25.6666 32.4001 25.6666 32.7567 25.8483C33.0703 26.0081 33.3252 26.263 33.485 26.5766C33.6667 26.9332 33.6667 27.3999 33.6667 28.3333V29.6666C33.6667 30.6 33.6667 31.0668 33.485 31.4233C33.3252 31.7369 33.0703 31.9918 32.7567 32.1516C32.4001 32.3333 31.9334 32.3333 31 32.3333H19.6667C18.7332 32.3333 18.2665 32.3333 17.91 32.1516C17.5964 31.9918 17.3414 31.7369 17.1817 31.4233C17 31.0668 17 30.6 17 29.6666V28.3333Z" fill="#F8FAFB"/>
</g>
<path d="M20.3333 19H20.3417M20.3333 29H20.3417M19.6667 22.3333H31C31.9334 22.3333 32.4001 22.3333 32.7567 22.1516C33.0703 21.9918 33.3252 21.7369 33.485 21.4233C33.6667 21.0668 33.6667 20.6 33.6667 19.6666V18.3333C33.6667 17.3999 33.6667 16.9332 33.485 16.5766C33.3252 16.263 33.0703 16.0081 32.7567 15.8483C32.4001 15.6666 31.9334 15.6666 31 15.6666H19.6667C18.7332 15.6666 18.2665 15.6666 17.91 15.8483C17.5964 16.0081 17.3414 16.263 17.1817 16.5766C17 16.9332 17 17.3999 17 18.3333V19.6666C17 20.6 17 21.0668 17.1817 21.4233C17.3414 21.7369 17.5964 21.9918 17.91 22.1516C18.2665 22.3333 18.7332 22.3333 19.6667 22.3333ZM19.6667 32.3333H31C31.9334 32.3333 32.4001 32.3333 32.7567 32.1516C33.0703 31.9918 33.3252 31.7369 33.485 31.4233C33.6667 31.0668 33.6667 30.6 33.6667 29.6666V28.3333C33.6667 27.3999 33.6667 26.9332 33.485 26.5766C33.3252 26.263 33.0703 26.0081 32.7567 25.8483C32.4001 25.6666 31.9334 25.6666 31 25.6666H19.6667C18.7332 25.6666 18.2665 25.6666 17.91 25.8483C17.5964 26.0081 17.3414 26.263 17.1817 26.5766C17 26.9332 17 27.3999 17 28.3333V29.6666C17 30.6 17 31.0668 17.1817 31.4233C17.3414 31.7369 17.5964 31.9918 17.91 32.1516C18.2665 32.3333 18.7332 32.3333 19.6667 32.3333Z" stroke="#F8FAFB" stroke-width="2" stroke-linecap="round" stroke-linejoin="round"/>
</g>
<defs>
<filter id="filter0_dd_658_5063" x="0.333496" y="0" width="50" height="50" filterUnits="userSpaceOnUse" color-interpolation-filters="sRGB">
<feFlood flood-opacity="0" result="BackgroundImageFix"/>
<feColorMatrix in="SourceAlpha" type="matrix" values="0 0 0 0 0 0 0 0 0 0 0 0 0 0 0 0 0 0 127 0" result="hardAlpha"/>
<feOffset dy="1"/>
<feGaussianBlur stdDeviation="1"/>
<feComposite in2="hardAlpha" operator="out"/>
<feColorMatrix type="matrix" values="0 0 0 0 0.0509804 0 0 0 0 0.0509804 0 0 0 0 0.0705882 0 0 0 0.04 0"/>
<feBlend mode="normal" in2="BackgroundImageFix" result="effect1_dropShadow_658_5063"/>
<feColorMatrix in="SourceAlpha" type="matrix" values="0 0 0 0 0 0 0 0 0 0 0 0 0 0 0 0 0 0 127 0" result="hardAlpha"/>
<feOffset dy="1"/>
<feGaussianBlur stdDeviation="1.5"/>
<feComposite in2="hardAlpha" operator="out"/>
<feColorMatrix type="matrix" values="0 0 0 0 0.0509804 0 0 0 0 0.0509804 0 0 0 0 0.0705882 0 0 0 0.05 0"/>
<feBlend mode="normal" in2="effect1_dropShadow_658_5063" result="effect2_dropShadow_658_5063"/>
<feBlend mode="normal" in="SourceGraphic" in2="effect2_dropShadow_658_5063" result="shape"/>
</filter>
</defs>
</svg>
