<svg width="16" height="16" viewBox="0 0 16 16" fill="none" xmlns="http://www.w3.org/2000/svg">
<path d="M9.19995 2H4.39995C4.08169 2 3.77647 2.12643 3.55142 2.35147C3.32638 2.57652 3.19995 2.88174 3.19995 3.2V12.8C3.19995 13.1183 3.32638 13.4235 3.55142 13.6485C3.77647 13.8736 4.08169 14 4.39995 14H11.6C11.9182 14 12.2234 13.8736 12.4485 13.6485C12.6735 13.4235 12.8 13.1183 12.8 12.8V5.6L9.19995 2Z" stroke="#5F57FF" stroke-width="1.5" stroke-linecap="round" stroke-linejoin="round"/>
<path d="M10.4001 11H5.6001" stroke="#5F57FF" stroke-width="1.2" stroke-linecap="round" stroke-linejoin="round"/>
<path d="M10.4001 8.6001H5.6001" stroke="#5F57FF" stroke-width="1.2" stroke-linecap="round" stroke-linejoin="round"/>
<path d="M6.8001 6.19995H6.2001H5.6001" stroke="#5F57FF" stroke-width="1.2" stroke-linecap="round" stroke-linejoin="round"/>
<path d="M9.19995 2V5.6H12.8" stroke="#5F57FF" stroke-width="1.2" stroke-linecap="round" stroke-linejoin="round"/>
</svg>
