<svg width="21" height="20" viewBox="0 0 21 20" fill="none" xmlns="http://www.w3.org/2000/svg">
<path d="M13.62 8.27115C13.9316 7.71749 14.1914 7.21789 14.3517 6.83764C15.1298 4.99118 14.3604 2.86727 12.4795 2.0009C10.5986 1.13452 8.70987 2.03287 7.88096 3.7674C6.29584 2.67971 4.18135 2.83945 3.01527 4.53682C1.84919 6.23419 2.21516 8.45165 3.81227 9.66166C4.53712 10.2108 5.97066 11.0201 7.32033 11.7403M14.2464 9.79158C13.8946 7.90162 12.2865 6.51941 10.2617 6.89509C8.23696 7.27077 6.92776 9.09753 7.20149 11.0825C7.4214 12.6772 8.6353 16.4189 9.10404 17.8283C9.168 18.0206 9.19998 18.1168 9.2633 18.1838C9.31846 18.2422 9.39181 18.2846 9.46998 18.3032C9.55972 18.3245 9.65899 18.3041 9.85753 18.2633C11.3125 17.9646 15.1598 17.145 16.6509 16.5381C18.5067 15.7826 19.4645 13.7367 18.7471 11.7941C18.0297 9.85151 16.059 9.15122 14.2464 9.79158Z" stroke="#5F57FF" stroke-width="2" stroke-linecap="round" stroke-linejoin="round"/>
</svg>
