<svg width="20" height="20" viewBox="0 0 20 20" fill="none" xmlns="http://www.w3.org/2000/svg">
<path d="M10 17.5C14.1421 17.5 17.5 14.1421 17.5 10C17.5 5.85786 14.1421 2.5 10 2.5C5.85786 2.5 2.5 5.85786 2.5 10C2.5 14.1421 5.85786 17.5 10 17.5Z" stroke="#818898" stroke-width="1.5" stroke-linecap="round" stroke-linejoin="round"/>
<path d="M10 13.75H10.0067" stroke="#818898" stroke-width="1.5" stroke-linecap="round" stroke-linejoin="round"/>
<path d="M7.81738 7.75006C7.99371 7.24881 8.34175 6.82614 8.79985 6.55691C9.25795 6.28768 9.79655 6.18926 10.3203 6.27909C10.844 6.36893 11.319 6.6412 11.6612 7.04771C12.0034 7.45421 12.1907 7.9687 12.1899 8.50006C12.1899 10.0001 9.93988 10.7501 9.93988 10.7501" stroke="#818898" stroke-width="1.5" stroke-linecap="round" stroke-linejoin="round"/>
</svg>
