<svg width="128" height="19" viewBox="0 0 128 19" fill="none" xmlns="http://www.w3.org/2000/svg">
<path d="M11.6691 18.2025H16.6241V0.379395H11.6691V7.07885H5.62688V0.379395H0.671875V18.2025H5.62688V11.0479H11.6691V18.2025ZM33.9709 4.01993H28.9905V11.6295C28.9905 13.2727 28.0803 14.2335 26.6394 14.2335C25.2237 14.2335 24.2884 13.2727 24.2884 11.6295V4.01993H19.3586V12.2616C19.3586 16.0031 21.4063 18.329 24.6927 18.329C26.69 18.329 28.1816 17.3934 28.9905 16.18V18.2025H33.9709V4.01993ZM56.1054 18.2025H61.0606V9.9357C61.0606 6.21934 58.9116 3.89348 55.3217 3.89348C53.2236 3.89348 51.5549 5.05651 50.5942 6.49744C49.6585 4.85423 47.9904 3.89348 45.8669 3.89348C43.9454 3.89348 42.5551 4.753 41.746 5.89062V4.01993H36.7908V18.2025H41.746V10.5929C41.746 9.05078 42.6561 8.19126 44.1224 8.19126C45.5382 8.19126 46.4483 9.05078 46.4483 10.5929V18.2025H51.4033V10.5929C51.4033 9.05078 52.3134 8.19126 53.7543 8.19126C55.1701 8.19126 56.1054 9.05078 56.1054 10.5929V18.2025ZM62.9661 11.0985C62.9661 15.6238 65.6458 18.3794 69.0081 18.3794C71.0054 18.3794 72.4463 17.4947 73.1794 16.2306V18.2025H78.1346V4.01993H73.1794V5.99185C72.4463 4.72779 71.0306 3.84286 69.0081 3.84286C65.6458 3.84286 62.9661 6.57327 62.9661 11.0985ZM73.1794 11.0985C73.1794 13.0198 71.9914 14.0564 70.6008 14.0564C69.1851 14.0564 68.0221 12.9946 68.0221 11.0985C68.0221 9.17722 69.1851 8.16605 70.6008 8.16605C71.9914 8.16605 73.1794 9.20243 73.1794 11.0985ZM80.1491 11.0985C80.1491 15.6238 82.8289 18.3794 86.1911 18.3794C88.1884 18.3794 89.6294 17.4947 90.3624 16.2306V18.2025H95.3174V4.01993H90.3624V5.99185C89.6294 4.72779 88.2136 3.84286 86.1911 3.84286C82.8289 3.84286 80.1491 6.57327 80.1491 11.0985ZM90.3624 11.0985C90.3624 13.0198 89.1742 14.0564 87.7839 14.0564C86.3682 14.0564 85.2052 12.9946 85.2052 11.0985C85.2052 9.17722 86.3682 8.16605 87.7839 8.16605C89.1742 8.16605 90.3624 9.20243 90.3624 11.0985ZM107.798 18.2025H112.753V9.9357C112.753 6.21934 110.706 3.89348 107.419 3.89348C105.422 3.89348 103.93 4.82883 103.096 6.04247V4.01993H98.141V18.2025H103.096V10.5929C103.096 8.94974 104.006 7.98898 105.473 7.98898C106.888 7.98898 107.798 8.94974 107.798 10.5929V18.2025ZM127.405 14.0312C127.379 8.64623 119.82 10.2642 119.82 8.24188C119.82 7.71088 120.25 7.38236 121.059 7.38236C122.121 7.38236 122.753 7.91316 122.905 8.79808H127.379C127.051 5.99185 125.028 3.84286 121.16 3.84286C117.318 3.84286 115.27 5.89062 115.27 8.36832C115.27 13.576 122.804 11.8822 122.804 13.9554C122.804 14.461 122.323 14.8653 121.489 14.8653C120.452 14.8653 119.669 14.3597 119.542 13.4244H114.739C114.941 16.2558 117.571 18.3794 121.514 18.3794C125.18 18.3794 127.405 16.5087 127.405 14.0312Z" fill="#818898"/>
</svg>
