<svg width="96" height="97" viewBox="0 0 96 97" fill="none" xmlns="http://www.w3.org/2000/svg">
<rect x="0.5" y="1.23193" width="95" height="95" rx="15.5" fill="#F8FAFB"/>
<rect x="0.5" y="1.23193" width="95" height="95" rx="15.5" stroke="#ECEFF3"/>
<circle cx="48" cy="48.7319" r="21" fill="#FF3366"/>
<path d="M41.0391 41.021C42.4888 41.021 43.6641 39.8457 43.6641 38.396C43.6641 36.9462 42.4888 35.771 41.0391 35.771C39.5893 35.771 38.4141 36.9462 38.4141 38.396C38.4141 39.8457 39.5893 41.021 41.0391 41.021Z" fill="white"/>
<path d="M35.5547 43.271L34.6406 46.6226H37.6406C37.0391 49.0679 35.7797 54.2116 35.5547 55.2241C35.2734 56.4897 35.2265 60.0991 39.0234 60.0991C41.6736 60.0991 43.3639 58.3871 44.3068 56.9892L43.5938 59.8413H47.8594L50.0859 50.829C50.4023 49.3296 51.1471 46.4351 53.8359 46.4351C57.0338 46.4351 55.8606 50.2219 55.2857 52.0777C55.2623 52.1533 55.2398 52.2256 55.2188 52.2944C54.7875 53.7007 54.3281 55.3413 54.3281 56.4663C54.3281 57.7319 54.9141 60.0991 58.1953 60.0991C61.4766 60.0991 62.875 56.8491 63.1641 55.2241L61.5 54.5444C61.3828 55.4116 60.3281 57.2866 59.3438 57.2866C57.9962 57.2866 58.6731 55.0147 59.3955 52.59C59.7159 51.5146 60.0453 50.4091 60.2109 49.4585C60.6297 47.0551 60.2109 42.9663 56.0391 42.9663C53.448 42.9663 51.4133 45.2752 50.4454 46.8781L51.2578 43.271H44.7656L43.875 46.6226H46.8984C46.8984 46.6226 45.1043 53.9344 44.9883 54.1636C43.7695 56.5718 41.9262 57.3801 40.5469 57.2866C39.4406 57.2116 39.5703 55.8804 39.7734 55.2241L42.7734 43.271H35.5547Z" fill="white"/>
</svg>
