<svg width="52" height="53" viewBox="0 0 52 53" fill="none" xmlns="http://www.w3.org/2000/svg">
<g filter="url(#filter0_i_728_57037)">
<rect y="0.758789" width="52" height="52" rx="14" fill="#5F57FF"/>
<rect x="0.5" y="1.25879" width="51" height="51" rx="13.5" stroke="#A19DF1"/>
<path d="M22.5002 31.6667L26.0002 28.1667M26.0002 28.1667L29.5002 31.6667M26.0002 28.1667V36.3334M37.6668 23.5001H14.3335M18.4168 34.0001H18.0668C16.76 34.0001 16.1066 34.0001 15.6075 33.7458C15.1685 33.5221 14.8115 33.1651 14.5878 32.7261C14.3335 32.2269 14.3335 31.5735 14.3335 30.2667V21.4001C14.3335 20.0933 14.3335 19.4399 14.5878 18.9408C14.8115 18.5017 15.1685 18.1448 15.6075 17.9211C16.1066 17.6667 16.76 17.6667 18.0668 17.6667H33.9335C35.2403 17.6667 35.8937 17.6667 36.3928 17.9211C36.8319 18.1448 37.1888 18.5017 37.4125 18.9408C37.6668 19.4399 37.6668 20.0933 37.6668 21.4001V30.2667C37.6668 31.5735 37.6668 32.2269 37.4125 32.7261C37.1888 33.1651 36.8319 33.5221 36.3928 33.7458C35.8937 34.0001 35.2403 34.0001 33.9335 34.0001H33.5835" stroke="white" stroke-width="2" stroke-linecap="round" stroke-linejoin="round"/>
</g>
<defs>
<filter id="filter0_i_728_57037" x="0" y="-3.24121" width="52" height="56" filterUnits="userSpaceOnUse" color-interpolation-filters="sRGB">
<feFlood flood-opacity="0" result="BackgroundImageFix"/>
<feBlend mode="normal" in="SourceGraphic" in2="BackgroundImageFix" result="shape"/>
<feColorMatrix in="SourceAlpha" type="matrix" values="0 0 0 0 0 0 0 0 0 0 0 0 0 0 0 0 0 0 127 0" result="hardAlpha"/>
<feOffset dy="-4"/>
<feGaussianBlur stdDeviation="4"/>
<feComposite in2="hardAlpha" operator="arithmetic" k2="-1" k3="1"/>
<feColorMatrix type="matrix" values="0 0 0 0 1 0 0 0 0 1 0 0 0 0 1 0 0 0 0.64 0"/>
<feBlend mode="normal" in2="shape" result="effect1_innerShadow_728_57037"/>
</filter>
</defs>
</svg>
