<svg width="16" height="16" viewBox="0 0 16 16" fill="none" xmlns="http://www.w3.org/2000/svg">
<path fill-rule="evenodd" clip-rule="evenodd" d="M6.28567 5.9795H8.76167V7.21283C9.11834 6.5035 10.033 5.86616 11.407 5.86616C14.041 5.86616 14.6663 7.27816 14.6663 9.86883V14.6668H11.9997V10.4588C11.9997 8.9835 11.643 8.1515 10.735 8.1515C9.47567 8.1515 8.95234 9.04816 8.95234 10.4582V14.6668H6.28567V5.9795ZM1.71301 14.5535H4.37967V5.86616H1.71301V14.5535ZM4.76167 3.0335C4.76177 3.25701 4.71744 3.47832 4.63127 3.68455C4.54509 3.89079 4.41878 4.07784 4.25967 4.23483C3.93727 4.55525 3.50088 4.7346 3.04634 4.7335C2.5926 4.73319 2.15722 4.5543 1.83434 4.2355C1.67582 4.07797 1.54993 3.89071 1.4639 3.68445C1.37788 3.47819 1.33339 3.25698 1.33301 3.0335C1.33301 2.58216 1.51301 2.15016 1.83501 1.8315C2.1576 1.51227 2.59317 1.3333 3.04701 1.3335C3.50167 1.3335 3.93767 1.51283 4.25967 1.8315C4.58101 2.15016 4.76167 2.58216 4.76167 3.0335Z" fill="#F6F8FA"/>
</svg>
