<svg width="32" height="32" viewBox="0 0 32 32" fill="none" xmlns="http://www.w3.org/2000/svg">
<rect width="32" height="32" rx="16" fill="#1A1B25"/>
<path d="M21.3996 14.8C21.3996 19 15.9996 22.6 15.9996 22.6C15.9996 22.6 10.5996 19 10.5996 14.8C10.5996 13.3679 11.1685 11.9943 12.1812 10.9816C13.1939 9.96895 14.5674 9.40002 15.9996 9.40002C17.4318 9.40002 18.8053 9.96895 19.818 10.9816C20.8307 11.9943 21.3996 13.3679 21.3996 14.8Z" stroke="#818898" stroke-width="1.2" stroke-linecap="round" stroke-linejoin="round"/>
<path d="M15.9992 16.6C16.9933 16.6 17.7992 15.7941 17.7992 14.8C17.7992 13.8059 16.9933 13 15.9992 13C15.0051 13 14.1992 13.8059 14.1992 14.8C14.1992 15.7941 15.0051 16.6 15.9992 16.6Z" stroke="#818898" stroke-width="1.2" stroke-linecap="round" stroke-linejoin="round"/>
</svg>
