<svg width="89" height="27" viewBox="0 0 89 27" fill="none" xmlns="http://www.w3.org/2000/svg">
<g clip-path="url(#clip0_660_5745)">
<path d="M34.3979 23.1566V3.58582H37.968V23.1566H34.3979Z" fill="#818898"/>
<path d="M68.6788 9.85026H72.0767V11.492C72.8079 10.1959 74.4854 9.50464 75.9478 9.50464C77.7544 9.50464 79.2168 10.2823 79.862 11.708C80.8943 10.0663 82.3137 9.50464 84.0342 9.50464C86.4859 9.50464 88.8086 10.9735 88.8086 14.5594V23.1567H85.3246V15.2506C85.3246 13.8249 84.6364 12.7448 83.0019 12.7448C81.4534 12.7448 80.5502 13.9545 80.5502 15.3802V23.1567H77.0232V15.2506C77.0232 13.8249 76.292 12.7448 74.7005 12.7448C73.152 12.7448 72.2058 13.9113 72.2058 15.3802V23.1567H68.6357L68.6788 9.85026Z" fill="#818898"/>
<path d="M46.0544 23.5455C42.0112 23.5455 39.1294 20.5645 39.1294 16.5035C39.1294 12.5288 42.0542 9.46143 46.0544 9.46143C50.0976 9.46143 52.9794 12.572 52.9794 16.5035C53.0224 20.4781 50.0976 23.5455 46.0544 23.5455ZM46.0544 12.7016C43.9898 12.7016 42.2693 14.3865 42.2693 16.5035C42.2693 18.5772 43.9468 20.3053 46.0544 20.3053C48.119 20.3053 49.8395 18.6204 49.8395 16.5035C49.8395 14.4297 48.119 12.7016 46.0544 12.7016Z" fill="#818898"/>
<path d="M60.6354 23.5455C56.5923 23.5455 53.7104 20.5645 53.7104 16.5035C53.7104 12.5288 56.6353 9.46143 60.6354 9.46143C64.6786 9.46143 67.5604 12.572 67.5604 16.5035C67.5604 20.4781 64.6786 23.5455 60.6354 23.5455ZM60.6354 12.6584C58.5278 12.6584 56.8073 14.3865 56.8073 16.5035C56.8073 18.6204 58.5278 20.3485 60.6354 20.3485C62.7431 20.3485 64.4635 18.6204 64.4635 16.5035C64.4635 14.3865 62.7431 12.6584 60.6354 12.6584Z" fill="#818898"/>
<path d="M27.215 11.8807H19.4298L26.1827 7.9925L24.7203 5.40034L17.9673 9.28858L21.8385 2.50576L19.2577 1.03687L15.3866 7.81969V0H12.4187V7.81969L8.54763 1.03687L5.96688 2.50576L9.838 9.28858L3.08505 5.40034L1.62263 7.9925L8.37558 11.8807H0.590332V14.8617H8.37558L1.62263 18.75L3.08505 21.3421L9.838 17.4539L5.96688 24.2367L8.54763 25.7056L12.4187 18.9228V26.7425H15.3866V18.9228L19.2577 25.7056L21.8385 24.2367L17.9673 17.4539L24.7203 21.3421L26.1827 18.75L19.4298 14.8617H27.215V11.8807ZM13.8812 17.4107C11.6445 17.4107 9.838 15.5962 9.838 13.3496C9.838 11.1031 11.6445 9.28858 13.8812 9.28858C16.1178 9.28858 17.9243 11.1031 17.9243 13.3496C17.9243 15.5962 16.1178 17.4107 13.8812 17.4107Z" fill="#818898"/>
</g>
<defs>
<clipPath id="clip0_660_5745">
<rect width="88.3045" height="26.7857" fill="white" transform="translate(0.590332)"/>
</clipPath>
</defs>
</svg>
