<svg width="98" height="18" viewBox="0 0 98 18" fill="none" xmlns="http://www.w3.org/2000/svg">
<g clip-path="url(#clip0_660_5769)">
<path d="M0.964844 17.5237V1.287H5.3064V3.46659C6.18943 1.87475 7.90643 0.895161 9.72155 0.99312C11.6102 0.944141 13.3518 1.94822 14.2348 3.58904C15.9518 1.80128 17.2518 0.99312 19.2877 0.99312C22.9424 0.99312 25.0028 3.05026 25.0028 6.82169V17.5237H20.3424V8.7319C20.3424 6.45434 19.8518 5.42577 18.0613 5.42577C16.2461 5.42577 15.265 6.52781 15.265 8.7319V17.5237H10.58V8.7319C10.58 6.45434 10.0895 5.42577 8.29889 5.42577C6.48377 5.42577 5.50263 6.52781 5.50263 8.7319V17.5237H0.964844ZM30.5218 3.41761C33.8331 0.0380182 39.2785 -0.0354512 42.6634 3.27067C46.0484 6.57679 46.122 12.0135 42.8106 15.3931C42.0012 16.2258 41.02 16.887 39.9407 17.3278C38.886 17.7686 37.7332 17.989 36.5803 17.9645C34.2501 18.038 31.9935 17.0829 30.4237 15.3686C28.8784 13.7523 28.0199 11.6217 28.0444 9.36863C28.0444 7.14006 28.9274 4.98496 30.5218 3.41761ZM36.6049 13.4339C38.8124 13.5319 40.7011 11.8176 40.7992 9.58904C40.8974 7.36047 39.1804 5.49924 36.9483 5.40128C34.7407 5.30332 32.852 7.01761 32.7539 9.24618C32.7539 9.31965 32.7539 9.36863 32.7539 9.4421C32.7293 11.5972 34.4464 13.385 36.6049 13.4339ZM48.2559 17.5237V1.287H52.7937L52.7447 3.46659C53.7013 1.82577 55.5164 0.870671 57.4051 0.99312C60.7655 0.99312 62.9486 3.09924 62.9486 6.82169V17.5237H58.1655V8.7319C58.1655 6.45434 57.6749 5.42577 55.8353 5.42577C53.9466 5.42577 52.9654 6.52781 52.9654 8.7319V17.5237H48.2559ZM83.2582 3.39312C86.5941 0.0135283 92.0149 -0.0354512 95.3999 3.27067C98.7848 6.57679 98.8584 12.0135 95.547 15.3931C94.7376 16.2258 93.7564 16.887 92.6772 17.3278C91.6225 17.7686 90.4696 17.989 89.3168 17.9645C86.9866 18.038 84.7299 17.0829 83.1601 15.3686C81.6148 13.7523 80.7563 11.6217 80.7808 9.36863C80.7808 7.11557 81.6639 4.98496 83.2582 3.39312ZM89.3658 13.4094C91.5734 13.5074 93.4621 11.7931 93.5602 9.56455C93.6583 7.36047 91.9413 5.47475 89.7092 5.37679C87.5017 5.27883 85.613 6.99312 85.5148 9.22169C85.5148 9.29516 85.5148 9.34414 85.5148 9.41761C85.4658 11.5972 87.2073 13.3605 89.3658 13.4094ZM66.4316 17.5237V14.1441L73.1279 5.47475H66.4316V1.287H78.5242V5.10741L72.6128 13.3115H78.6468V17.4992H66.4316V17.5237Z" fill="#818898"/>
</g>
<defs>
<clipPath id="clip0_660_5769">
<rect width="97.035" height="17.1429" fill="white" transform="translate(0.964844 0.821411)"/>
</clipPath>
</defs>
</svg>
