<svg width="48" height="48" viewBox="0 0 48 48" fill="none" xmlns="http://www.w3.org/2000/svg">
<path fill-rule="evenodd" clip-rule="evenodd" d="M8.574 43.8267L3.41495 37.3997C2.17369 35.8534 1.5 33.9519 1.5 31.9948V8.72248C1.5 5.79096 3.84538 3.35845 6.87107 3.15188L30.7982 1.51827C32.5365 1.39959 34.2642 1.86164 35.6921 2.82706L44.0989 8.51087C45.6037 9.52828 46.5 11.1915 46.5 12.9664V39.4248C46.5 42.2936 44.1938 44.6689 41.2314 44.8513L14.675 46.486C12.311 46.6315 10.026 45.6355 8.574 43.8267Z" fill="white"/>
<path d="M16.8721 20.3681V20.0634C16.8721 19.291 17.4907 18.6505 18.2879 18.5973L24.0949 18.2096L32.1256 30.0353V19.6562L30.0585 19.3807V19.2359C30.0585 18.4545 30.6912 17.8098 31.4986 17.7684L36.7824 17.4977V18.2581C36.7824 18.6151 36.5169 18.9204 36.1531 18.9819L34.8816 19.197V36.0055L33.2859 36.5543C31.9527 37.0128 30.4686 36.522 29.7054 35.3704L21.9091 23.6058V34.8344L24.3088 35.2937L24.2753 35.5163C24.1706 36.2135 23.5687 36.7408 22.8405 36.7732L16.8721 37.0388C16.7932 36.2891 17.3552 35.6183 18.1304 35.5369L18.9154 35.4544V20.4829L16.8721 20.3681Z" fill="black"/>
<path fill-rule="evenodd" clip-rule="evenodd" d="M31.0123 4.45017L7.08521 6.08378C5.65198 6.18163 4.54102 7.33387 4.54102 8.72248V31.9948C4.54102 33.2995 4.99015 34.5672 5.81765 35.5981L10.9767 42.025C11.8108 43.0642 13.1235 43.6363 14.4815 43.5527L41.038 41.918C42.3991 41.8342 43.4586 40.7429 43.4586 39.4248V12.9664C43.4586 12.1509 43.0468 11.3867 42.3554 10.9193L33.9487 5.23544C33.0919 4.65619 32.0553 4.37897 31.0123 4.45017ZM8.2717 9.08549C7.93892 8.83911 8.09729 8.32582 8.51535 8.29583L31.1733 6.67066C31.8952 6.61888 32.6126 6.81768 33.1964 7.23132L37.7425 10.4522C37.9151 10.5745 37.8342 10.8384 37.6205 10.8501L13.6258 12.155C12.8997 12.1945 12.1829 11.9812 11.6055 11.5537L8.2717 9.08549ZM12.5004 16.2461C12.5004 15.4665 13.1301 14.8226 13.9354 14.7788L39.3046 13.3972C40.0894 13.3544 40.7501 13.958 40.7501 14.7177V37.6279C40.7501 38.406 40.1226 39.0492 39.3189 39.095L14.1103 40.5293C13.2369 40.579 12.5004 39.9078 12.5004 39.0622V16.2461Z" fill="black"/>
</svg>
