<svg width="32" height="32" viewBox="0 0 32 32" fill="none" xmlns="http://www.w3.org/2000/svg">
<rect width="32" height="32" rx="16" fill="#1A1B25"/>
<path d="M21.9993 18.9519V20.7519C22 20.919 21.9657 21.0844 21.8988 21.2375C21.8318 21.3907 21.7337 21.5281 21.6105 21.6411C21.4874 21.754 21.342 21.84 21.1837 21.8936C21.0254 21.9471 20.8577 21.967 20.6913 21.9519C18.845 21.7513 17.0715 21.1204 15.5133 20.1099C14.0636 19.1887 12.8345 17.9596 11.9133 16.5099C10.8993 14.9447 10.2682 13.1625 10.0713 11.3079C10.0563 11.142 10.076 10.9748 10.1292 10.8169C10.1824 10.659 10.2678 10.5139 10.3801 10.3909C10.4925 10.2679 10.6292 10.1696 10.7816 10.1022C10.9339 10.0349 11.0987 10.0001 11.2653 9.99994H13.0653C13.3565 9.99707 13.6388 10.1002 13.8595 10.2901C14.0803 10.4799 14.2245 10.7436 14.2653 11.0319C14.3413 11.608 14.4821 12.1736 14.6853 12.7179C14.766 12.9327 14.7835 13.1661 14.7356 13.3905C14.6878 13.6148 14.5766 13.8208 14.4153 13.9839L13.6533 14.7459C14.5074 16.2481 15.7511 17.4918 17.2533 18.3459L18.0153 17.5839C18.1784 17.4226 18.3844 17.3114 18.6087 17.2636C18.8331 17.2157 19.0665 17.2332 19.2813 17.3139C19.8256 17.5171 20.3912 17.658 20.9673 17.7339C21.2587 17.7751 21.5249 17.9219 21.7152 18.1464C21.9055 18.371 22.0066 18.6577 21.9993 18.9519Z" stroke="#818898" stroke-width="1.2" stroke-linecap="round" stroke-linejoin="round"/>
</svg>
