<svg width="16" height="17" viewBox="0 0 16 17" fill="none" xmlns="http://www.w3.org/2000/svg">
<path d="M13.5258 11.093C13.144 11.9956 12.547 12.7911 11.7869 13.4097C11.0267 14.0284 10.1266 14.4514 9.16522 14.6418C8.20382 14.8322 7.21041 14.7842 6.27184 14.502C5.33328 14.2198 4.47813 13.712 3.78117 13.023C3.0842 12.3339 2.56664 11.4846 2.27373 10.5493C1.98083 9.61405 1.92149 8.62125 2.10091 7.65774C2.28033 6.69423 2.69305 5.78933 3.30298 5.02218C3.91291 4.25502 4.70148 3.64895 5.59975 3.25696" stroke="#5F57FF" stroke-width="1.5" stroke-linecap="round" stroke-linejoin="round"/>
<path d="M14 8.75891C14 7.97098 13.8448 7.19076 13.5433 6.46281C13.2417 5.73486 12.7998 5.07342 12.2426 4.51627C11.6855 3.95912 11.0241 3.51716 10.2961 3.21563C9.56815 2.91411 8.78793 2.75891 8 2.75891V8.75891H14Z" stroke="#5F57FF" stroke-width="1.2" stroke-linecap="round" stroke-linejoin="round"/>
</svg>
