<svg width="100" height="27" viewBox="0 0 100 27" fill="none" xmlns="http://www.w3.org/2000/svg">
<g clip-path="url(#clip0_660_5763)">
<path d="M7.02824 9.06586C4.65736 9.06586 3.48962 11.1585 3.48962 13.9604V20.9831H0.12793V6.19295H3.41885V10.0235H3.48962C4.19734 7.64714 5.57741 5.76733 7.73596 5.76733C9.25757 5.76733 9.89452 6.29935 9.89452 6.29935L8.37292 9.3496C8.37292 9.3496 7.9129 9.06586 7.02824 9.06586ZM47.4747 11.123V21.0186H44.2191V12.3289C44.2191 9.84615 43.4406 8.53384 41.459 8.53384C39.4066 8.53384 38.4158 10.2008 38.4158 13.393V21.0186H35.1603V12.3289C35.1603 9.95256 34.3818 8.53384 32.4355 8.53384C30.1708 8.53384 29.3216 10.52 29.3216 13.393V21.0186H26.0306V6.19295H29.3216V9.56241H29.3569C29.8523 7.25699 31.2678 5.8028 33.6387 5.8028C35.9742 5.8028 37.4958 7.07965 38.0973 9.31413C38.6635 7.15059 40.1143 5.8028 42.3791 5.8028C45.4577 5.8028 47.4747 7.75354 47.4747 11.123ZM16.4764 5.76733C13.4331 5.76733 11.4869 7.18605 10.5669 9.77522L13.3624 10.8038C13.8578 9.2432 14.9194 8.3565 16.5471 8.3565C18.3518 8.3565 19.4488 9.17226 19.4488 10.3782C19.4488 11.6196 18.5995 11.9033 16.6887 12.2225C14.5655 12.5772 9.46989 12.6836 9.46989 16.9752C9.46989 19.4934 11.5577 21.3732 14.707 21.3732C17.0779 21.3732 18.7057 20.4156 19.4488 18.6067H19.4842V21.0186H22.7397V11.9033C22.7043 7.89541 20.7227 5.76733 16.4764 5.76733ZM19.5196 14.0314C19.5196 17.1526 17.998 19.1388 15.5209 19.1388C13.787 19.1388 12.7608 18.1811 12.7608 16.7624C12.7608 15.4501 13.8224 14.5279 15.8748 14.1378C17.9626 13.7476 19.0242 13.2865 19.5196 12.1161V14.0314ZM59.0814 5.8028C56.6043 5.8028 54.9412 7.18605 54.2334 9.2432V6.19295H50.7656V26.6934H54.1981V17.9683H54.2334C55.0119 20.2028 56.6043 21.4442 59.0814 21.4442C63.0446 21.4442 65.8755 18.1811 65.8755 13.5703C65.8755 8.95945 63.0446 5.8028 59.0814 5.8028ZM58.2321 18.6777C55.5073 18.6777 53.9857 16.6915 53.9857 13.6058C53.9857 10.52 55.6843 8.53384 58.2321 8.53384C60.7799 8.53384 62.4784 10.6264 62.4784 13.6058C62.4784 16.5851 60.7799 18.6777 58.2321 18.6777Z" fill="#818898"/>
<path d="M99.8817 20.9121V21.0185H86.4704V20.9121C88.4166 19.8126 89.7259 18.7131 90.929 17.5427H96.4493L99.8817 20.9121ZM96.5554 3.4264L93.1583 0.0924072H93.0522C93.0522 0.0924072 93.123 6.2993 87.3904 11.9742C81.7994 17.5072 75.2529 17.5427 75.2529 17.5427V17.6491L78.7208 21.054C78.7208 21.054 85.1964 21.1249 90.8936 15.4855C96.5908 9.88157 96.5554 3.4264 96.5554 3.4264Z" fill="#818898"/>
</g>
<defs>
<clipPath id="clip0_660_5763">
<rect width="99.7537" height="26.601" fill="white" transform="translate(0.12793 0.0924072)"/>
</clipPath>
</defs>
</svg>
