<svg width="51" height="50" viewBox="0 0 51 50" fill="none" xmlns="http://www.w3.org/2000/svg">
<g filter="url(#filter0_dd_658_5057)">
<rect x="3.6665" y="2" width="44" height="44" rx="22" fill="white" fill-opacity="0.1" shape-rendering="crispEdges"/>
<path opacity="0.12" d="M30.2419 21.8711C29.9444 20.761 29.1503 19.8327 28.0343 19.2904C26.9182 18.7482 25.5716 18.6363 24.2907 18.9795C23.0098 19.3228 21.8995 20.0929 21.2041 21.1206C20.5087 22.1482 20.2852 23.3492 20.5826 24.4593C21.0748 26.296 20.9792 27.7613 20.6684 28.8748C20.3142 30.1438 20.1371 30.7784 20.1849 30.9058C20.2397 31.0516 20.2793 31.0916 20.4245 31.1478C20.5514 31.197 21.0845 31.0541 22.1508 30.7684L32.0384 28.1191C33.1047 27.8334 33.6378 27.6905 33.7231 27.5845C33.8207 27.4631 33.835 27.4087 33.8095 27.2551C33.7873 27.1208 33.3166 26.6599 32.3753 25.7379C31.5495 24.9291 30.734 23.7078 30.2419 21.8711Z" fill="#F8FAFB"/>
<path d="M28.7049 29.0124C29.0623 30.3461 28.2708 31.7169 26.9372 32.0743C25.6035 32.4317 24.2327 31.6402 23.8753 30.3065M17.3807 23.6779C17.0561 22.5127 17.3937 21.253 18.2573 20.4063M25.7886 18.7842C26.0421 18.3281 26.1256 17.7768 25.9799 17.233C25.6821 16.1216 24.5397 15.4621 23.4283 15.7599C22.3169 16.0577 21.6574 17.2 21.9552 18.3114C22.1009 18.8552 22.4489 19.2909 22.8964 19.5591M32.5992 19.6001C32.2977 18.4288 31.3755 17.5066 30.2042 17.2051M30.2422 21.8712C29.9447 20.7611 29.1506 19.8328 28.0346 19.2905C26.9185 18.7482 25.5719 18.6364 24.291 18.9796C23.0101 19.3228 21.8998 20.093 21.2044 21.1206C20.509 22.1483 20.2855 23.3493 20.5829 24.4594C21.0751 26.2961 20.9795 27.7614 20.6687 28.8749C20.3145 30.1439 20.1374 30.7784 20.1852 30.9058C20.24 31.0516 20.2796 31.0916 20.4248 31.1479C20.5517 31.1971 21.0848 31.0542 22.1511 30.7685L32.0387 28.1191C33.105 27.8334 33.6381 27.6906 33.7234 27.5845C33.821 27.4632 33.8353 27.4088 33.8098 27.2551C33.7876 27.1209 33.3169 26.6599 32.3756 25.738C31.5498 24.9291 30.7343 23.7079 30.2422 21.8712Z" stroke="#F8FAFB" stroke-width="2" stroke-linecap="round" stroke-linejoin="round"/>
</g>
<defs>
<filter id="filter0_dd_658_5057" x="0.666504" y="0" width="50" height="50" filterUnits="userSpaceOnUse" color-interpolation-filters="sRGB">
<feFlood flood-opacity="0" result="BackgroundImageFix"/>
<feColorMatrix in="SourceAlpha" type="matrix" values="0 0 0 0 0 0 0 0 0 0 0 0 0 0 0 0 0 0 127 0" result="hardAlpha"/>
<feOffset dy="1"/>
<feGaussianBlur stdDeviation="1"/>
<feComposite in2="hardAlpha" operator="out"/>
<feColorMatrix type="matrix" values="0 0 0 0 0.0509804 0 0 0 0 0.0509804 0 0 0 0 0.0705882 0 0 0 0.04 0"/>
<feBlend mode="normal" in2="BackgroundImageFix" result="effect1_dropShadow_658_5057"/>
<feColorMatrix in="SourceAlpha" type="matrix" values="0 0 0 0 0 0 0 0 0 0 0 0 0 0 0 0 0 0 127 0" result="hardAlpha"/>
<feOffset dy="1"/>
<feGaussianBlur stdDeviation="1.5"/>
<feComposite in2="hardAlpha" operator="out"/>
<feColorMatrix type="matrix" values="0 0 0 0 0.0509804 0 0 0 0 0.0509804 0 0 0 0 0.0705882 0 0 0 0.05 0"/>
<feBlend mode="normal" in2="effect1_dropShadow_658_5057" result="effect2_dropShadow_658_5057"/>
<feBlend mode="normal" in="SourceGraphic" in2="effect2_dropShadow_658_5057" result="shape"/>
</filter>
</defs>
</svg>
