<svg width="110" height="24" viewBox="0 0 110 24" fill="none" xmlns="http://www.w3.org/2000/svg">
<g clip-path="url(#clip0_660_5752)">
<path d="M0.978027 2.95158C0.978027 1.79887 1.91534 0.865723 3.07319 0.865723H11.3987C12.5566 0.865723 13.4939 1.79887 13.4939 2.95158V4.59831C13.4939 5.20211 12.9977 5.64123 12.4463 5.64123H2.02561C1.47425 5.69612 0.978027 5.20211 0.978027 4.59831V2.95158Z" fill="#818898"/>
<path d="M0.978027 9.59334C0.978027 9.04443 1.47425 8.55042 2.02561 8.55042H21.9848C23.1427 8.55042 24.08 9.48356 24.08 10.6363V16.1254C24.08 16.7292 23.5838 17.1683 23.0324 17.1683H3.07319C1.91534 17.2232 0.978027 16.2351 0.978027 15.0824V9.59334Z" fill="#818898"/>
<path d="M11.564 21.1204C11.564 20.5166 12.0602 20.0775 12.6115 20.0775H23.0322C23.6387 20.0775 24.0798 20.5715 24.0798 21.1204V21.7791C24.0798 22.9318 23.1425 23.865 21.9847 23.865H13.7143C12.5564 23.865 11.6191 22.9318 11.6191 21.7791V21.1204H11.564Z" fill="#818898"/>
<path d="M37.2576 15.0276H39.463L43.5982 21.7792H48.6707L44.0944 14.5885C46.6307 13.7102 48.1193 11.7341 48.1193 8.93469C48.1193 4.98254 45.3074 2.8418 40.8414 2.8418H32.8467V21.8341H37.2576V15.0276ZM37.2576 11.4048V6.4646H40.6209C42.716 6.4646 43.7636 7.34285 43.7636 8.93469C43.7636 10.4716 42.716 11.4048 40.6209 11.4048H37.2576Z" fill="#818898"/>
<path d="M56.3346 22.0537C59.1465 22.0537 61.6827 20.6265 62.7303 17.9918L59.1465 16.8391C58.7605 18.0467 57.713 18.7054 56.3897 18.7054C54.7907 18.7054 53.6329 17.6075 53.3572 15.7412H62.8406V14.6434C62.8406 10.6913 60.5249 7.5625 56.2794 7.5625C52.2545 7.5625 49.2771 10.6913 49.2771 14.8081C49.222 19.1445 52.0891 22.0537 56.3346 22.0537ZM56.1691 10.8011C57.713 10.8011 58.54 11.844 58.5951 13.1065H53.4675C53.9086 11.5695 54.901 10.8011 56.1691 10.8011Z" fill="#818898"/>
<path d="M65.2116 18.0467C65.2116 20.901 66.7003 21.8891 69.7328 21.8891C70.7252 21.8891 71.5523 21.8342 72.269 21.7244V18.2663C71.7728 18.3212 71.5523 18.3212 71.056 18.3212C70.0084 18.3212 69.4019 18.1016 69.4019 16.9489V11.35H72.1588V7.83699H69.4019V3.99463H65.2116V7.83699H63.4473V11.35H65.2116V18.0467Z" fill="#818898"/>
<path d="M87.4865 14.8081C87.4865 10.4717 84.6194 7.5625 80.4842 7.5625C76.349 7.5625 73.4819 10.4717 73.4819 14.8081C73.4819 19.1445 76.349 22.0537 80.4842 22.0537C84.6194 22.0537 87.4865 19.1445 87.4865 14.8081ZM77.7274 14.8081C77.7274 12.3929 78.8301 11.0206 80.5393 11.0206C82.2486 11.0206 83.3513 12.3929 83.3513 14.8081C83.3513 17.2233 82.2486 18.5956 80.5393 18.5956C78.775 18.5956 77.7274 17.2233 77.7274 14.8081Z" fill="#818898"/>
<path d="M102.814 14.8081C102.814 10.4717 99.947 7.5625 95.8118 7.5625C91.6766 7.5625 88.8096 10.4717 88.8096 14.8081C88.8096 19.1445 91.6766 22.0537 95.8118 22.0537C99.8919 22.0537 102.814 19.1445 102.814 14.8081ZM92.9999 14.8081C92.9999 12.3929 94.1026 11.0206 95.8118 11.0206C97.5211 11.0206 98.6238 12.3929 98.6238 14.8081C98.6238 17.2233 97.5211 18.5956 95.8118 18.5956C94.1026 18.5956 92.9999 17.2233 92.9999 14.8081Z" fill="#818898"/>
<path d="M109.044 2.78699H104.799V21.7792H109.044V2.78699Z" fill="#818898"/>
</g>
<defs>
<clipPath id="clip0_660_5752">
<rect width="108.066" height="23.0542" fill="white" transform="translate(0.978027 0.865723)"/>
</clipPath>
</defs>
</svg>
