<svg width="14" height="14" viewBox="0 0 14 14" fill="none" xmlns="http://www.w3.org/2000/svg">
<path d="M11.5 9.33333V5.33333C11.4998 5.15796 11.4535 4.98573 11.3658 4.83391C11.278 4.68208 11.1519 4.55601 11 4.46833L7.5 2.46833C7.34798 2.38056 7.17554 2.33435 7 2.33435C6.82446 2.33435 6.65202 2.38056 6.5 2.46833L3 4.46833C2.84813 4.55601 2.72199 4.68208 2.63423 4.83391C2.54647 4.98573 2.50018 5.15796 2.5 5.33333V9.33333C2.50018 9.50869 2.54647 9.68092 2.63423 9.83274C2.72199 9.98457 2.84813 10.1106 3 10.1983L6.5 12.1983C6.65202 12.2861 6.82446 12.3323 7 12.3323C7.17554 12.3323 7.34798 12.2861 7.5 12.1983L11 10.1983C11.1519 10.1106 11.278 9.98457 11.3658 9.83274C11.4535 9.68092 11.4998 9.50869 11.5 9.33333Z" stroke="#F8FAFB" stroke-linecap="round" stroke-linejoin="round"/>
<path d="M11.5 7.33331L9.25 8.63331V11.2283" stroke="#F8FAFB" stroke-linecap="round" stroke-linejoin="round"/>
<path d="M4.75 11.2283V8.63331L2.5 7.33331" stroke="#F8FAFB" stroke-linecap="round" stroke-linejoin="round"/>
<path d="M2.63525 4.81335L7.00025 7.33835L11.3653 4.81335" stroke="#F8FAFB" stroke-linecap="round" stroke-linejoin="round"/>
<path d="M7 12.3733V7.33331" stroke="#F8FAFB" stroke-linecap="round" stroke-linejoin="round"/>
<path d="M4.75 3.43835L7 4.73835L9.25 3.43835" stroke="#F8FAFB" stroke-linecap="round" stroke-linejoin="round"/>
</svg>
