<svg width="20" height="20" viewBox="0 0 20 20" fill="none" xmlns="http://www.w3.org/2000/svg">
<path d="M5.5 2.5L3.25 5.5V16C3.25 16.3978 3.40804 16.7794 3.68934 17.0607C3.97064 17.342 4.35218 17.5 4.75 17.5H15.25C15.6478 17.5 16.0294 17.342 16.3107 17.0607C16.592 16.7794 16.75 16.3978 16.75 16V5.5L14.5 2.5H5.5Z" stroke="#818898" stroke-width="1.5" stroke-linecap="round" stroke-linejoin="round"/>
<path d="M13 8.5C13 9.29565 12.6839 10.0587 12.1213 10.6213C11.5587 11.1839 10.7956 11.5 10 11.5C9.20435 11.5 8.44129 11.1839 7.87868 10.6213C7.31607 10.0587 7 9.29565 7 8.5" stroke="#818898" stroke-width="1.5" stroke-linecap="round" stroke-linejoin="round"/>
<path d="M3.25 5.5H16.75" stroke="#818898" stroke-width="1.5" stroke-linecap="round" stroke-linejoin="round"/>
</svg>
