<svg width="20" height="20" viewBox="0 0 20 20" fill="none" xmlns="http://www.w3.org/2000/svg">
<path d="M16 17.5C16.4142 17.5 16.75 17.1642 16.75 16.75C16.75 16.3358 16.4142 16 16 16C15.5858 16 15.25 16.3358 15.25 16.75C15.25 17.1642 15.5858 17.5 16 17.5Z" stroke="#818898" stroke-width="1.5" stroke-linecap="round" stroke-linejoin="round"/>
<path d="M7.75 17.5C8.16421 17.5 8.5 17.1642 8.5 16.75C8.5 16.3358 8.16421 16 7.75 16C7.33579 16 7 16.3358 7 16.75C7 17.1642 7.33579 17.5 7.75 17.5Z" stroke="#818898" stroke-width="1.5" stroke-linecap="round" stroke-linejoin="round"/>
<path d="M1.75 1.75H4.75L6.76 11.7925C6.82858 12.1378 7.01643 12.448 7.29066 12.6687C7.56489 12.8895 7.90802 13.0067 8.26 13H15.55C15.902 13.0067 16.2451 12.8895 16.5193 12.6687C16.7936 12.448 16.9814 12.1378 17.05 11.7925L18.25 5.5H5.5" stroke="#818898" stroke-width="1.5" stroke-linecap="round" stroke-linejoin="round"/>
</svg>
