<svg width="108" height="21" viewBox="0 0 108 21" fill="none" xmlns="http://www.w3.org/2000/svg">
<path d="M10.5382 2.45274C10.1979 2.29049 9.80251 2.29049 9.46221 2.45274C9.16803 2.593 9.00584 2.83654 8.92404 2.97014C8.83948 3.10825 8.75268 3.28419 8.66807 3.45568L6.87163 7.09509L2.85325 7.68243C2.6641 7.71004 2.47001 7.73837 2.31258 7.77623C2.16028 7.81285 1.87868 7.89206 1.65459 8.12859C1.39535 8.40223 1.27343 8.77824 1.32278 9.15194C1.36544 9.47497 1.54698 9.70434 1.64881 9.82336C1.75407 9.9464 1.89462 10.0832 2.03159 10.2166L4.93808 13.0475L4.25228 17.0461C4.2199 17.2346 4.18669 17.428 4.1739 17.5895C4.16154 17.7457 4.14958 18.0381 4.30517 18.3245C4.48513 18.6558 4.80503 18.8882 5.17575 18.957C5.49626 19.0164 5.77066 18.9146 5.91536 18.8546C6.06498 18.7925 6.23866 18.7011 6.40796 18.612L10.0002 16.7229L13.5924 18.612C13.7617 18.7011 13.9354 18.7925 14.085 18.8546C14.2297 18.9146 14.5041 19.0164 14.8246 18.957C15.1953 18.8882 15.5152 18.6558 15.6952 18.3245C15.8508 18.0381 15.8388 17.7457 15.8265 17.5895C15.8137 17.428 15.7805 17.2346 15.7481 17.0461L15.0623 13.0475L17.9688 10.2166C18.1058 10.0832 18.2463 9.94639 18.3516 9.82336C18.4534 9.70434 18.6349 9.47497 18.6776 9.15194C18.7269 8.77824 18.605 8.40223 18.3458 8.12859C18.1217 7.89206 17.8401 7.81285 17.6878 7.77623C17.5304 7.73837 17.3363 7.71004 17.1471 7.68243L13.1287 7.09509L11.3323 3.45575C11.2477 3.28424 11.1609 3.10826 11.0763 2.97014C10.9945 2.83654 10.8323 2.593 10.5382 2.45274Z" fill="#FFBE4C"/>
<path d="M32.5382 2.45274C32.1979 2.29049 31.8025 2.29049 31.4622 2.45274C31.168 2.593 31.0058 2.83654 30.924 2.97014C30.8395 3.10825 30.7527 3.28419 30.6681 3.45568L28.8716 7.09509L24.8533 7.68243C24.6641 7.71004 24.47 7.73837 24.3126 7.77623C24.1603 7.81285 23.8787 7.89206 23.6546 8.12859C23.3953 8.40223 23.2734 8.77824 23.3228 9.15194C23.3654 9.47497 23.547 9.70434 23.6488 9.82336C23.7541 9.9464 23.8946 10.0832 24.0316 10.2166L26.9381 13.0475L26.2523 17.0461C26.2199 17.2346 26.1867 17.428 26.1739 17.5895C26.1615 17.7457 26.1496 18.0381 26.3052 18.3245C26.4851 18.6558 26.805 18.8882 27.1758 18.957C27.4963 19.0164 27.7707 18.9146 27.9154 18.8546C28.065 18.7925 28.2387 18.7011 28.408 18.612L32.0002 16.7229L35.5924 18.612C35.7617 18.7011 35.9354 18.7925 36.085 18.8546C36.2297 18.9146 36.5041 19.0164 36.8246 18.957C37.1953 18.8882 37.5152 18.6558 37.6952 18.3245C37.8508 18.0381 37.8388 17.7457 37.8265 17.5895C37.8137 17.428 37.7805 17.2346 37.7481 17.0461L37.0623 13.0475L39.9688 10.2166C40.1058 10.0832 40.2463 9.94639 40.3516 9.82336C40.4534 9.70434 40.6349 9.47497 40.6776 9.15194C40.7269 8.77824 40.605 8.40223 40.3458 8.12859C40.1217 7.89206 39.8401 7.81285 39.6878 7.77623C39.5304 7.73837 39.3363 7.71004 39.1471 7.68243L35.1287 7.09509L33.3323 3.45575C33.2477 3.28424 33.1609 3.10826 33.0763 2.97014C32.9945 2.83654 32.8323 2.593 32.5382 2.45274Z" fill="#FFBE4C"/>
<path d="M54.5382 2.45274C54.1979 2.29049 53.8025 2.29049 53.4622 2.45274C53.168 2.593 53.0058 2.83654 52.924 2.97014C52.8395 3.10825 52.7527 3.28419 52.6681 3.45568L50.8716 7.09509L46.8533 7.68243C46.6641 7.71004 46.47 7.73837 46.3126 7.77623C46.1603 7.81285 45.8787 7.89206 45.6546 8.12859C45.3953 8.40223 45.2734 8.77824 45.3228 9.15194C45.3654 9.47497 45.547 9.70434 45.6488 9.82336C45.7541 9.9464 45.8946 10.0832 46.0316 10.2166L48.9381 13.0475L48.2523 17.0461C48.2199 17.2346 48.1867 17.428 48.1739 17.5895C48.1615 17.7457 48.1496 18.0381 48.3052 18.3245C48.4851 18.6558 48.805 18.8882 49.1758 18.957C49.4963 19.0164 49.7707 18.9146 49.9154 18.8546C50.065 18.7925 50.2387 18.7011 50.408 18.612L54.0002 16.7229L57.5924 18.612C57.7617 18.7011 57.9354 18.7925 58.085 18.8546C58.2297 18.9146 58.5041 19.0164 58.8246 18.957C59.1953 18.8882 59.5152 18.6558 59.6952 18.3245C59.8508 18.0381 59.8388 17.7457 59.8265 17.5895C59.8137 17.428 59.7805 17.2346 59.7481 17.0461L59.0623 13.0475L61.9688 10.2166C62.1058 10.0832 62.2463 9.94639 62.3516 9.82336C62.4534 9.70434 62.6349 9.47497 62.6776 9.15194C62.7269 8.77824 62.605 8.40223 62.3458 8.12859C62.1217 7.89206 61.8401 7.81285 61.6878 7.77623C61.5304 7.73837 61.3363 7.71004 61.1471 7.68243L57.1287 7.09509L55.3323 3.45575C55.2477 3.28424 55.1609 3.10826 55.0763 2.97014C54.9945 2.83654 54.8323 2.593 54.5382 2.45274Z" fill="#FFBE4C"/>
<path d="M76.5382 2.45274C76.1979 2.29049 75.8025 2.29049 75.4622 2.45274C75.168 2.593 75.0058 2.83654 74.924 2.97014C74.8395 3.10825 74.7527 3.28419 74.6681 3.45568L72.8716 7.09509L68.8533 7.68243C68.6641 7.71004 68.47 7.73837 68.3126 7.77623C68.1603 7.81285 67.8787 7.89206 67.6546 8.12859C67.3953 8.40223 67.2734 8.77824 67.3228 9.15194C67.3654 9.47497 67.547 9.70434 67.6488 9.82336C67.7541 9.9464 67.8946 10.0832 68.0316 10.2166L70.9381 13.0475L70.2523 17.0461C70.2199 17.2346 70.1867 17.428 70.1739 17.5895C70.1615 17.7457 70.1496 18.0381 70.3052 18.3245C70.4851 18.6558 70.805 18.8882 71.1758 18.957C71.4963 19.0164 71.7707 18.9146 71.9154 18.8546C72.065 18.7925 72.2387 18.7011 72.408 18.612L76.0002 16.7229L79.5924 18.612C79.7617 18.7011 79.9354 18.7925 80.085 18.8546C80.2297 18.9146 80.5041 19.0164 80.8246 18.957C81.1953 18.8882 81.5152 18.6558 81.6952 18.3245C81.8508 18.0381 81.8388 17.7457 81.8265 17.5895C81.8137 17.428 81.7805 17.2346 81.7481 17.0461L81.0623 13.0475L83.9688 10.2166C84.1058 10.0832 84.2463 9.94639 84.3516 9.82336C84.4534 9.70434 84.6349 9.47497 84.6776 9.15194C84.7269 8.77824 84.605 8.40223 84.3458 8.12859C84.1217 7.89206 83.8401 7.81285 83.6878 7.77623C83.5304 7.73837 83.3363 7.71004 83.1471 7.68243L79.1287 7.09509L77.3323 3.45575C77.2477 3.28424 77.1609 3.10826 77.0763 2.97014C76.9945 2.83654 76.8323 2.593 76.5382 2.45274Z" fill="#FFBE4C"/>
<path d="M98.5382 2.45274C98.1979 2.29049 97.8025 2.29049 97.4622 2.45274C97.168 2.593 97.0058 2.83654 96.924 2.97014C96.8395 3.10825 96.7527 3.28419 96.6681 3.45568L94.8716 7.09509L90.8533 7.68243C90.6641 7.71004 90.47 7.73837 90.3126 7.77623C90.1603 7.81285 89.8787 7.89206 89.6546 8.12859C89.3953 8.40223 89.2734 8.77824 89.3228 9.15194C89.3654 9.47497 89.547 9.70434 89.6488 9.82336C89.7541 9.9464 89.8946 10.0832 90.0316 10.2166L92.9381 13.0475L92.2523 17.0461C92.2199 17.2346 92.1867 17.428 92.1739 17.5895C92.1615 17.7457 92.1496 18.0381 92.3052 18.3245C92.4851 18.6558 92.805 18.8882 93.1758 18.957C93.4963 19.0164 93.7707 18.9146 93.9154 18.8546C94.065 18.7925 94.2387 18.7011 94.408 18.612L98.0002 16.7229L101.592 18.612C101.762 18.7011 101.935 18.7925 102.085 18.8546C102.23 18.9146 102.504 19.0164 102.825 18.957C103.195 18.8882 103.515 18.6558 103.695 18.3245C103.851 18.0381 103.839 17.7457 103.826 17.5895C103.814 17.428 103.78 17.2346 103.748 17.0461L103.062 13.0475L105.969 10.2166C106.106 10.0832 106.246 9.94639 106.352 9.82336C106.453 9.70434 106.635 9.47497 106.678 9.15194C106.727 8.77824 106.605 8.40223 106.346 8.12859C106.122 7.89206 105.84 7.81285 105.688 7.77623C105.53 7.73837 105.336 7.71004 105.147 7.68243L101.129 7.09509L99.3323 3.45575C99.2477 3.28424 99.1609 3.10826 99.0763 2.97014C98.9945 2.83654 98.8323 2.593 98.5382 2.45274Z" fill="#FFBE4C"/>
</svg>
