<svg width="17" height="17" viewBox="0 0 17 17" fill="none" xmlns="http://www.w3.org/2000/svg">
<path d="M15.0998 14.3731V13.1731C15.0994 12.6413 14.9224 12.1247 14.5966 11.7045C14.2708 11.2842 13.8147 10.984 13.2998 10.8511" stroke="#5F57FF" stroke-width="1.5" stroke-linecap="round" stroke-linejoin="round"/>
<path d="M11.4999 14.3732V13.1732C11.4999 12.5367 11.247 11.9262 10.797 11.4761C10.3469 11.0261 9.73642 10.7732 9.0999 10.7732H4.2999C3.66338 10.7732 3.05293 11.0261 2.60285 11.4761C2.15276 11.9262 1.8999 12.5367 1.8999 13.1732V14.3732" stroke="#5F57FF" stroke-width="1.5" stroke-linecap="round" stroke-linejoin="round"/>
<path d="M10.8999 3.65112C11.4162 3.7833 11.8737 4.08354 12.2005 4.50451C12.5272 4.92547 12.7046 5.44322 12.7046 5.97612C12.7046 6.50903 12.5272 7.02677 12.2005 7.44774C11.8737 7.8687 11.4162 8.16894 10.8999 8.30112" stroke="#5F57FF" stroke-width="1.5" stroke-linecap="round" stroke-linejoin="round"/>
<path d="M6.6998 8.37324C8.02529 8.37324 9.0998 7.29873 9.0998 5.97324C9.0998 4.64776 8.02529 3.57324 6.6998 3.57324C5.37432 3.57324 4.2998 4.64776 4.2998 5.97324C4.2998 7.29873 5.37432 8.37324 6.6998 8.37324Z" stroke="#5F57FF" stroke-width="1.5" stroke-linecap="round" stroke-linejoin="round"/>
</svg>
