<svg width="20" height="20" viewBox="0 0 20 20" fill="none" xmlns="http://www.w3.org/2000/svg">
<path d="M8.33366 12.4998L12.6587 9.99984L8.33366 7.49984V12.4998ZM17.967 5.97484C18.0753 6.3665 18.1503 6.8915 18.2003 7.55817C18.2587 8.22484 18.2837 8.79984 18.2837 9.29984L18.3337 9.99984C18.3337 11.8248 18.2003 13.1665 17.967 14.0248C17.7587 14.7748 17.2753 15.2582 16.5253 15.4665C16.1337 15.5748 15.417 15.6498 14.317 15.6998C13.2337 15.7582 12.242 15.7832 11.3253 15.7832L10.0003 15.8332C6.50866 15.8332 4.33366 15.6998 3.47533 15.4665C2.72533 15.2582 2.24199 14.7748 2.03366 14.0248C1.92533 13.6332 1.85033 13.1082 1.80033 12.4415C1.74199 11.7748 1.71699 11.1998 1.71699 10.6998L1.66699 9.99984C1.66699 8.17484 1.80033 6.83317 2.03366 5.97484C2.24199 5.22484 2.72533 4.7415 3.47533 4.53317C3.86699 4.42484 4.58366 4.34984 5.68366 4.29984C6.76699 4.2415 7.75866 4.2165 8.67533 4.2165L10.0003 4.1665C13.492 4.1665 15.667 4.29984 16.5253 4.53317C17.2753 4.7415 17.7587 5.22484 17.967 5.97484Z" fill="#F8FAFB"/>
</svg>
