<svg width="100" height="28" viewBox="0 0 100 28" fill="none" xmlns="http://www.w3.org/2000/svg">
<g clip-path="url(#clip0_660_5788)">
<path d="M23.5182 19.3458L23.5042 19.3012L32.3915 11.1651V7.24487H18.1332V11.1651H26.6497L26.6637 11.2026L17.8633 19.3458V23.2661H32.5346V19.3458H23.5182Z" fill="#818898"/>
<path d="M41.2861 6.87158C39.6414 6.87158 38.3011 7.11963 37.2649 7.61572C36.3 8.04806 35.487 8.76039 34.9316 9.66032C34.4005 10.5662 34.0668 11.5741 33.9529 12.6181L38.2791 13.2261C38.4356 12.3043 38.7487 11.6509 39.218 11.266C39.7518 10.8633 40.4095 10.6599 41.0772 10.6908C41.9552 10.6908 42.5921 10.9256 42.9881 11.3951C43.3801 11.8645 43.5796 12.5148 43.5796 13.3716V13.7988H39.4199C37.3025 13.7988 35.7814 14.2683 34.8566 15.2073C33.9317 16.1462 33.4701 17.3857 33.4717 18.9256C33.4717 20.5031 33.9333 21.6768 34.8566 22.4467C35.7798 23.2167 36.9411 23.5993 38.3402 23.5945C40.0756 23.5945 41.4106 22.9976 42.3448 21.8036C42.8965 21.0697 43.2906 20.2298 43.5021 19.3364H43.6594L44.2557 23.2565H48.1759V13.3294C48.1759 11.2777 47.6352 9.68851 46.5539 8.56174C45.4724 7.43498 43.7166 6.87158 41.2861 6.87158ZM42.6571 19.1087C42.0349 19.6275 41.2205 19.8857 40.2064 19.8857C39.3706 19.8857 38.79 19.7394 38.4646 19.4467C38.3061 19.3083 38.1797 19.1366 38.095 18.9439C38.0102 18.7512 37.9688 18.5422 37.974 18.3317C37.9646 18.1332 37.996 17.9349 38.0658 17.7489C38.1355 17.5628 38.2425 17.3929 38.38 17.2495C38.5288 17.11 38.7043 17.0021 38.896 16.9323C39.0877 16.8625 39.2914 16.8323 39.4951 16.8434H43.5866V17.1134C43.595 17.495 43.5155 17.8733 43.3543 18.2193C43.193 18.5653 42.9545 18.8696 42.6571 19.1087Z" fill="#818898"/>
<path d="M71.8785 7.24487H67.2471V23.2683H71.8785V7.24487Z" fill="#818898"/>
<path d="M99.2221 7.24487C97.9139 7.24487 96.8826 7.70652 96.1284 8.62986C95.5868 9.29339 95.1752 10.2738 94.8935 11.5712H94.7574L94.1519 7.24487H90.1963V23.2661H94.828V15.05C94.828 14.0141 95.0704 13.2198 95.5556 12.6674C96.0406 12.115 96.9358 11.8388 98.241 11.8388H99.9992V7.24487H99.2221Z" fill="#818898"/>
<path d="M85.6049 7.76872C84.5236 7.12553 83.1598 6.80472 81.5134 6.80628C78.9219 6.80628 76.8937 7.54416 75.429 9.0199C73.964 10.4956 73.2318 12.5301 73.2318 15.1232C73.1944 16.6909 73.5366 18.2444 74.2293 19.6514C74.8634 20.9051 75.851 21.9456 77.0698 22.6443C78.2966 23.3533 79.756 23.7086 81.4476 23.71C82.9109 23.71 84.1331 23.4847 85.1143 23.0341C86.0369 22.6293 86.8401 21.9948 87.4476 21.1913C88.0262 20.4025 88.4558 19.5147 88.7152 18.5716L84.7247 17.4542C84.5568 18.0675 84.2333 18.627 83.7857 19.0786C83.3349 19.5293 82.5799 19.7546 81.5204 19.7546C80.2607 19.7546 79.3218 19.3939 78.7034 18.6725C78.2553 18.1514 77.9736 17.4072 77.849 16.4424H88.7764C88.821 15.9917 88.8444 15.6138 88.8444 15.3086V14.311C88.8708 12.9707 88.5939 11.6418 88.0345 10.4237C87.511 9.31393 86.664 8.38847 85.6049 7.76872ZM81.3796 10.6255C83.2576 10.6255 84.3225 11.5496 84.5743 13.3978H77.9312C78.0368 12.7812 78.2922 12.1999 78.6755 11.7053C79.2842 10.9839 80.1856 10.624 81.3796 10.6255Z" fill="#818898"/>
<path d="M69.6123 0.787148C69.2639 0.775298 68.9166 0.833608 68.5912 0.958617C68.2657 1.08363 67.9689 1.27277 67.718 1.51483C67.4707 1.75921 67.2768 2.05234 67.1486 2.37562C67.0205 2.69889 66.9609 3.04525 66.9739 3.39275C66.9613 3.74249 67.0211 4.09105 67.1492 4.41668C67.2776 4.74233 67.4715 5.03805 67.719 5.2854C67.9667 5.53274 68.2625 5.72641 68.5882 5.85433C68.914 5.98226 69.2627 6.04167 69.6123 6.02887C69.9597 6.04201 70.3064 5.98262 70.6296 5.85449C70.9529 5.72639 71.2459 5.53234 71.4902 5.28474C71.7325 5.03457 71.9216 4.73801 72.0462 4.41286C72.1709 4.08771 72.2285 3.74073 72.2155 3.39275C72.2315 3.04683 72.1753 2.70136 72.0502 2.37842C71.9252 2.05549 71.7343 1.76217 71.4896 1.5172C71.2447 1.27222 70.9517 1.08098 70.6288 0.95568C70.306 0.830381 69.9605 0.773787 69.6147 0.789497L69.6123 0.787148Z" fill="#818898"/>
<path d="M60.0464 6.80627C58.4691 6.80627 57.2015 7.30157 56.2437 8.29217C55.5347 9.02613 55.0145 10.1216 54.6827 11.5786H54.5347L53.9292 7.25227H49.9736V27.8721H54.6051V19.3791H54.7742C54.9156 19.9453 55.1137 20.4959 55.3658 21.0222C55.7576 21.8796 56.4001 22.5983 57.2085 23.0833C58.0467 23.5406 58.9909 23.7683 59.9454 23.7429C61.8845 23.7429 63.3611 22.9879 64.3752 21.4776C65.3891 19.9675 65.8963 17.8603 65.8963 15.1561C65.8963 12.5442 65.4057 10.4996 64.4244 9.02224C63.4432 7.54493 61.9839 6.80627 60.0464 6.80627ZM60.516 18.4166C59.976 19.1991 59.131 19.5903 57.9807 19.5903C57.5066 19.6122 57.0338 19.5208 56.602 19.3236C56.17 19.1265 55.7914 18.8292 55.4973 18.4565C54.8978 17.7038 54.5989 16.6733 54.6005 15.365V15.0598C54.6005 13.7312 54.8994 12.7139 55.4973 12.0081C56.095 11.3024 56.9228 10.9534 57.9807 10.9612C59.1514 10.9612 60.0018 11.3329 60.5324 12.0762C61.0629 12.8196 61.3282 13.8564 61.3282 15.1865C61.3314 16.5621 61.0621 17.6388 60.5206 18.4166H60.516Z" fill="#818898"/>
<path d="M16.0694 19.3458H0.0458984V23.2708H16.0694V19.3458Z" fill="#818898"/>
</g>
<defs>
<clipPath id="clip0_660_5788">
<rect width="99.954" height="27.1875" fill="white" transform="translate(0.0458984 0.785645)"/>
</clipPath>
</defs>
</svg>
